<?xml version="1.0" encoding="UTF-8"?>
<!-- Generator: visioncortex VTracer 0.6.4 -->
<svg version="1.1" xmlns="http://www.w3.org/2000/svg" width="1294" height="250">
<path d="M0,0 L1294,0 L1294,250 L0,250 Z " fill="#FFFFFF" transform="translate(0,0)"/>
<path d="M0,0 L43,0 L43,14 L56,14 L56,56 L43,56 L43,70 L36,70 L36,82 L50,82 L50,97 L34,97 L34,83 L20,83 L20,70 L2,70 L2,97 L-13,97 L-13,14 L0,14 Z " fill="#000000" transform="translate(701,78)"/>
<path d="M0,0 L15,0 L15,27 L56,27 L56,41 L69,41 L69,83 L56,83 L56,97 L13,97 L13,83 L0,83 Z " fill="#000000" transform="translate(485,78)"/>
<path d="M0,0 L42,0 L42,13 L56,13 L56,55 L42,55 L42,69 L0,69 L0,55 L-14,55 L-14,13 L0,13 Z " fill="#000000" transform="translate(191,106)"/>
<path d="M0,0 L15,0 L15,41 L54,41 L54,0 L69,0 L69,84 L56,84 L56,97 L13,97 L13,84 L0,84 L0,69 L15,69 L15,82 L54,82 L54,56 L13,56 L13,42 L0,42 Z " fill="#000000" transform="translate(570,105)"/>
<path d="M0,0 L43,0 L43,14 L57,14 L57,29 L41,29 L41,16 L2,16 L2,41 L43,41 L43,54 L57,54 L57,83 L43,83 L43,97 L1,97 L1,83 L-13,83 L-13,68 L2,68 L2,82 L42,82 L42,56 L1,56 L1,42 L-13,42 L-13,14 L0,14 Z " fill="#000000" transform="translate(107,78)"/>
<path d="M0,0 L15,0 L15,27 L56,27 L56,43 L15,43 L15,82 L54,82 L54,68 L70,68 L70,84 L56,84 L56,97 L13,97 L13,83 L0,83 L0,42 L-14,42 L-14,28 L0,28 Z " fill="#000000" transform="translate(367,78)"/>
<path d="M0,0 L15,0 L15,27 L56,27 L56,43 L15,43 L15,82 L55,82 L55,68 L70,68 L70,83 L56,83 L56,97 L14,97 L14,83 L0,83 L0,43 L-14,43 L-14,27 L0,27 Z " fill="#000000" transform="translate(1130,78)"/>
<path d="M0,0 L42,0 L42,14 L56,14 L56,29 L41,29 L41,16 L2,16 L2,27 L29,27 L29,43 L2,43 L2,55 L41,55 L41,41 L56,41 L56,56 L42,56 L42,70 L0,70 L0,57 L-14,57 L-14,14 L0,14 Z " fill="#000000" transform="translate(789,105)"/>
<path d="M0,0 L43,0 L43,14 L56,14 L56,29 L41,29 L41,16 L2,16 L2,27 L29,27 L29,43 L2,43 L2,55 L41,55 L41,41 L56,41 L56,56 L43,56 L43,70 L0,70 L0,56 L-13,56 L-13,14 L0,14 Z " fill="#000000" transform="translate(960,105)"/>
<path d="M0,0 L56,0 L56,14 L69,14 L69,70 L54,70 L54,15 L15,15 L15,70 L0,70 Z " fill="#000000" transform="translate(1035,105)"/>
<path d="M0,0 L42,0 L42,13 L56,13 L56,28 L41,28 L41,15 L2,15 L2,54 L41,54 L41,40 L56,40 L56,55 L42,55 L42,69 L0,69 L0,55 L-14,55 L-14,13 L0,13 Z " fill="#000000" transform="translate(877,106)"/>
<path d="M0,0 L42,0 L42,13 L56,13 L56,28 L41,28 L41,14 L1,14 L1,69 L-14,69 L-14,13 L0,13 Z " fill="#000000" transform="translate(279,106)"/>
<path d="M0,0 L39,0 L39,39 L0,39 Z " fill="#FFFFFF" transform="translate(500,121)"/>
<path d="M0,0 L39,0 L39,39 L0,39 Z " fill="#FFFFFF" transform="translate(193,121)"/>
<path d="M0,0 L39,0 L39,38 L0,38 Z " fill="#FFFFFF" transform="translate(703,94)"/>
<path d="M0,0 L13,0 L13,54 L-1,54 L-1,1 L0,1 Z " fill="#000000" transform="translate(1091,120)"/>
<path d="M0,0 L15,0 L15,41 L54,41 L54,42 L15,42 L15,43 L14,43 L14,56 L13,56 L13,42 L0,42 Z " fill="#000000" transform="translate(570,105)"/>
<path d="M0,0 L13,0 L13,14 L-1,14 L-1,1 L0,1 Z " fill="#000000" transform="translate(1003,120)"/>
<path d="M0,0 L40,0 L40,14 L39,14 L39,1 L1,1 L1,55 L0,55 Z " fill="#9F9F9F" transform="translate(280,120)"/>
<path d="M0,0 L1,0 L1,16 L-13,16 L-13,29 L-56,29 L-56,15 L-55,15 L-55,28 L-14,28 L-14,15 L0,15 Z " fill="#333333" transform="translate(436,146)"/>
<path d="M0,0 L14,0 L14,13 L55,13 L55,0 L69,0 L69,1 L56,1 L56,14 L13,14 L13,1 L0,1 Z " fill="#0F0F0F" transform="translate(570,188)"/>
<path d="M0,0 L14,0 L14,1 L1,1 L1,55 L15,55 L15,56 L0,56 Z " fill="#3B3B3B" transform="translate(265,119)"/>
<path d="M0,0 L1,0 L1,83 L0,83 Z " fill="#8B8B8B" transform="translate(687,92)"/>
<path d="M0,0 L1,0 L1,83 L0,83 Z " fill="#ABABAB" transform="translate(484,78)"/>
<path d="M0,0 L1,0 L1,82 L0,82 Z " fill="#9F9F9F" transform="translate(639,106)"/>
<path d="M0,0 L40,0 L40,1 L1,1 L1,40 L0,40 Z " fill="#7F7F7F" transform="translate(878,120)"/>
<path d="M0,0 L1,0 L1,26 L-39,26 L-39,12 L-38,12 L-38,25 L0,25 Z " fill="#CBCBCB" transform="translate(148,134)"/>
<path d="M0,0 L39,0 L39,1 L0,1 Z M-1,1 L0,1 L0,40 L-1,40 Z " fill="#7F7F7F" transform="translate(193,120)"/>
<path d="M0,0 L1,0 L1,39 L-38,39 L-38,38 L0,38 Z " fill="#CBCBCB" transform="translate(231,121)"/>
<path d="M0,0 L1,0 L1,13 L42,13 L42,0 L43,0 L43,14 L0,14 Z " fill="#333333" transform="translate(960,161)"/>
<path d="M0,0 L1,0 L1,13 L42,13 L42,0 L43,0 L43,14 L0,14 Z " fill="#333333" transform="translate(498,161)"/>
<path d="M0,0 L1,0 L1,69 L0,69 Z " fill="#939393" transform="translate(1034,106)"/>
<path d="M0,0 L56,0 L56,14 L55,14 L55,1 L0,1 Z " fill="#7F7F7F" transform="translate(1035,105)"/>
<path d="M0,0 L43,0 L43,14 L42,14 L42,1 L1,1 L1,14 L0,14 Z " fill="#7F7F7F" transform="translate(960,105)"/>
<path d="M0,0 L43,0 L43,14 L42,14 L42,1 L1,1 L1,14 L0,14 Z " fill="#575757" transform="translate(701,78)"/>
<path d="M0,0 L1,0 L1,53 L15,53 L15,54 L0,54 Z " fill="#030303" transform="translate(1089,121)"/>
<path d="M0,0 L1,0 L1,54 L-14,54 L-14,53 L0,53 Z " fill="#474747" transform="translate(1049,121)"/>
<path d="M0,0 L1,0 L1,56 L0,56 Z " fill="#ABABAB" transform="translate(1104,119)"/>
<path d="M0,0 L1,0 L1,42 L14,42 L14,43 L0,43 Z " fill="#6F6F6F" transform="translate(775,119)"/>
<path d="M0,0 L43,0 L43,1 L1,1 L1,14 L0,14 Z " fill="#575757" transform="translate(107,78)"/>
<path d="M0,0 L15,0 L15,1 L1,1 L1,41 L0,41 Z " fill="#3B3B3B" transform="translate(624,105)"/>
<path d="M0,0 L15,0 L15,41 L14,41 L14,1 L0,1 Z " fill="#373737" transform="translate(570,105)"/>
<path d="M0,0 L1,0 L1,41 L14,41 L14,42 L0,42 Z " fill="#9F9F9F" transform="translate(569,106)"/>
<path d="M0,0 L14,0 L14,41 L13,41 L13,1 L0,1 Z " fill="#C3C3C3" transform="translate(353,120)"/>
<path d="M0,0 L41,0 L41,14 L40,14 L40,1 L0,1 Z " fill="#7F7F7F" transform="translate(500,105)"/>
<path d="M0,0 L1,0 L1,14 L-39,14 L-39,13 L0,13 Z " fill="#CBCBCB" transform="translate(1184,146)"/>
<path d="M0,0 L40,0 L40,14 L39,14 L39,1 L0,1 Z " fill="#7F7F7F" transform="translate(280,120)"/>
<path d="M0,0 L1,0 L1,14 L-38,14 L-38,13 L0,13 Z " fill="#CBCBCB" transform="translate(917,146)"/>
<path d="M0,0 L1,0 L1,14 L-38,14 L-38,13 L0,13 Z " fill="#CBCBCB" transform="translate(829,146)"/>
<path d="M0,0 L1,0 L1,15 L-15,15 L-15,1 L-14,1 L-14,14 L0,14 Z " fill="#333333" transform="translate(750,160)"/>
<path d="M0,0 L42,0 L42,1 L0,1 Z " fill="#333333" transform="translate(1144,174)"/>
<path d="M0,0 L42,0 L42,1 L0,1 Z " fill="#333333" transform="translate(877,174)"/>
<path d="M0,0 L42,0 L42,1 L0,1 Z " fill="#333333" transform="translate(789,174)"/>
<path d="M0,0 L42,0 L42,1 L0,1 Z " fill="#333333" transform="translate(191,174)"/>
<path d="M0,0 L42,0 L42,1 L0,1 Z " fill="#333333" transform="translate(108,174)"/>
<path d="M0,0 L14,0 L14,29 L13,29 L13,1 L0,1 Z " fill="#3F3F3F" transform="translate(150,132)"/>
<path d="M0,0 L1,0 L1,42 L0,42 Z " fill="#ABABAB" transform="translate(946,119)"/>
<path d="M0,0 L1,0 L1,42 L0,42 Z " fill="#535353" transform="translate(863,119)"/>
<path d="M0,0 L1,0 L1,42 L0,42 Z " fill="#939393" transform="translate(554,119)"/>
<path d="M0,0 L1,0 L1,42 L0,42 Z " fill="#E7E7E7" transform="translate(247,119)"/>
<path d="M0,0 L1,0 L1,42 L0,42 Z " fill="#575757" transform="translate(177,119)"/>
<path d="M0,0 L14,0 L14,1 L1,1 L1,15 L14,15 L14,16 L0,16 Z " fill="#737373" transform="translate(1116,105)"/>
<path d="M0,0 L42,0 L42,1 L0,1 Z " fill="#7F7F7F" transform="translate(877,105)"/>
<path d="M0,0 L42,0 L42,1 L0,1 Z " fill="#7F7F7F" transform="translate(789,105)"/>
<path d="M0,0 L42,0 L42,1 L0,1 Z " fill="#7F7F7F" transform="translate(279,105)"/>
<path d="M0,0 L42,0 L42,1 L0,1 Z " fill="#7F7F7F" transform="translate(191,105)"/>
<path d="M0,0 L1,0 L1,42 L0,42 Z " fill="#B3B3B3" transform="translate(757,92)"/>
<path d="M0,0 L41,0 L41,1 L0,1 Z " fill="#B3B3B3" transform="translate(583,161)"/>
<path d="M0,0 L1,0 L1,27 L-14,27 L-14,26 L0,26 Z " fill="#4B4B4B" transform="translate(702,148)"/>
<path d="M0,0 L41,0 L41,1 L0,1 Z " fill="#7F7F7F" transform="translate(1145,120)"/>
<path d="M0,0 L41,0 L41,1 L0,1 Z " fill="#7F7F7F" transform="translate(382,120)"/>
<path d="M0,0 L41,0 L41,1 L0,1 Z " fill="#232323" transform="translate(109,119)"/>
<path d="M0,0 L41,0 L41,1 L0,1 Z " fill="#7F7F7F" transform="translate(1145,105)"/>
<path d="M0,0 L41,0 L41,1 L0,1 Z " fill="#7F7F7F" transform="translate(382,105)"/>
<path d="M0,0 L1,0 L1,28 L-13,28 L-13,27 L0,27 Z " fill="#C3C3C3" transform="translate(366,78)"/>
<path d="M0,0 L15,0 L15,1 L1,1 L1,27 L0,27 Z " fill="#1B1B1B" transform="translate(1130,78)"/>
<path d="M0,0 L15,0 L15,27 L14,27 L14,1 L0,1 Z " fill="#2F2F2F" transform="translate(485,78)"/>
<path d="M0,0 L15,0 L15,27 L14,27 L14,1 L0,1 Z " fill="#3B3B3B" transform="translate(367,78)"/>
<path d="M0,0 L1,0 L1,40 L0,40 Z " fill="#1B1B1B" transform="translate(1130,121)"/>
<path d="M0,0 L39,0 L39,1 L0,1 Z " fill="#EFEFEF" transform="translate(585,186)"/>
<path d="M0,0 L39,0 L39,1 L0,1 Z " fill="#CBCBCB" transform="translate(962,159)"/>
<path d="M0,0 L39,0 L39,1 L0,1 Z " fill="#CBCBCB" transform="translate(500,159)"/>
<path d="M0,0 L39,0 L39,1 L0,1 Z " fill="#CBCBCB" transform="translate(382,159)"/>
<path d="M0,0 L39,0 L39,1 L0,1 Z " fill="#232323" transform="translate(585,146)"/>
<path d="M0,0 L39,0 L39,1 L0,1 Z " fill="#7F7F7F" transform="translate(703,132)"/>
<path d="M0,0 L1,0 L1,39 L0,39 Z " fill="#838383" transform="translate(878,121)"/>
<path d="M0,0 L1,0 L1,39 L0,39 Z " fill="#1B1B1B" transform="translate(539,121)"/>
<path d="M0,0 L1,0 L1,39 L0,39 Z " fill="#2F2F2F" transform="translate(499,121)"/>
<path d="M0,0 L1,0 L1,39 L0,39 Z " fill="#3B3B3B" transform="translate(381,121)"/>
<path d="M0,0 L39,0 L39,1 L0,1 Z " fill="#7F7F7F" transform="translate(1050,120)"/>
<path d="M0,0 L39,0 L39,1 L0,1 Z " fill="#7F7F7F" transform="translate(962,120)"/>
<path d="M0,0 L39,0 L39,1 L0,1 Z " fill="#7F7F7F" transform="translate(791,120)"/>
<path d="M0,0 L39,0 L39,1 L0,1 Z " fill="#7F7F7F" transform="translate(500,120)"/>
<path d="M0,0 L39,0 L39,1 L0,1 Z " fill="#7F7F7F" transform="translate(703,93)"/>
<path d="M0,0 L39,0 L39,1 L0,1 Z " fill="#7F7F7F" transform="translate(109,93)"/>
<path d="M0,0 L1,0 L1,38 L0,38 Z " fill="#E3E3E3" transform="translate(1145,121)"/>
<path d="M0,0 L1,0 L1,38 L0,38 Z " fill="#4B4B4B" transform="translate(702,94)"/>
<path d="M0,0 L36,0 L36,1 L0,1 Z " fill="#CBCBCB" transform="translate(193,159)"/>
<path d="M0,0 L19,0 L19,14 L18,14 L18,1 L0,1 Z " fill="#5B5B5B" transform="translate(703,147)"/>
<path d="M0,0 L16,0 L16,1 L1,1 L1,15 L0,15 Z " fill="#9F9F9F" transform="translate(569,173)"/>
<path d="M0,0 L1,0 L1,16 L-13,16 L-13,15 L0,15 Z " fill="#7B7B7B" transform="translate(436,146)"/>
<path d="M0,0 L15,0 L15,15 L14,15 L14,1 L0,1 Z " fill="#232323" transform="translate(1185,146)"/>
<path d="M0,0 L14,0 L14,15 L13,15 L13,1 L0,1 Z " fill="#030303" transform="translate(321,119)"/>
<path d="M0,0 L14,0 L14,1 L1,1 L1,14 L0,14 Z " fill="#434343" transform="translate(625,188)"/>
<path d="M0,0 L14,0 L14,14 L13,14 L13,1 L0,1 Z " fill="#474747" transform="translate(570,188)"/>
<path d="M0,0 L14,0 L14,14 L13,14 L13,1 L0,1 Z " fill="#9B9B9B" transform="translate(1130,161)"/>
<path d="M0,0 L14,0 L14,14 L13,14 L13,1 L0,1 Z " fill="#A3A3A3" transform="translate(94,161)"/>
<path d="M0,0 L14,0 L14,1 L1,1 L1,14 L0,14 Z " fill="#B3B3B3" transform="translate(1186,161)"/>
<path d="M0,0 L14,0 L14,1 L1,1 L1,14 L0,14 Z " fill="#B3B3B3" transform="translate(919,161)"/>
<path d="M0,0 L14,0 L14,1 L1,1 L1,14 L0,14 Z " fill="#B3B3B3" transform="translate(233,161)"/>
<path d="M0,0 L27,0 L27,1 L0,1 Z " fill="#5B5B5B" transform="translate(962,147)"/>
<path d="M0,0 L27,0 L27,1 L0,1 Z " fill="#5B5B5B" transform="translate(791,147)"/>
<path d="M0,0 L27,0 L27,1 L0,1 Z " fill="#7F7F7F" transform="translate(962,132)"/>
<path d="M0,0 L27,0 L27,1 L0,1 Z " fill="#7F7F7F" transform="translate(791,132)"/>
<path d="M0,0 L14,0 L14,14 L13,14 L13,1 L0,1 Z " fill="#7F7F7F" transform="translate(94,120)"/>
<path d="M0,0 L1,0 L1,27 L0,27 Z " fill="#E3E3E3" transform="translate(1145,78)"/>
<path d="M0,0 L1,0 L1,26 L0,26 Z " fill="#3B3B3B" transform="translate(624,161)"/>
<path d="M0,0 L1,0 L1,26 L0,26 Z " fill="#6F6F6F" transform="translate(148,134)"/>
<path d="M0,0 L1,0 L1,25 L0,25 Z " fill="#DBDBDB" transform="translate(109,94)"/>
<path d="M0,0 L1,0 L1,14 L-6,14 L-6,13 L0,13 Z " fill="#7F7F7F" transform="translate(743,134)"/>
<path d="M0,0 L15,0 L15,1 L0,1 Z " fill="#333333" transform="translate(1089,174)"/>
<path d="M0,0 L15,0 L15,1 L0,1 Z " fill="#6F6F6F" transform="translate(570,173)"/>
<path d="M0,0 L1,0 L1,15 L0,15 Z " fill="#9B9B9B" transform="translate(750,160)"/>
<path d="M0,0 L1,0 L1,15 L0,15 Z " fill="#EBEBEB" transform="translate(933,146)"/>
<path d="M0,0 L1,0 L1,15 L0,15 Z " fill="#8F8F8F" transform="translate(1016,146)"/>
<path d="M0,0 L1,0 L1,15 L0,15 Z " fill="#CFCFCF" transform="translate(845,146)"/>
<path d="M0,0 L15,0 L15,1 L0,1 Z " fill="#232323" transform="translate(918,146)"/>
<path d="M0,0 L15,0 L15,1 L0,1 Z " fill="#232323" transform="translate(94,146)"/>
<path d="M0,0 L1,0 L1,15 L0,15 Z " fill="#DFDFDF" transform="translate(989,133)"/>
<path d="M0,0 L1,0 L1,15 L0,15 Z " fill="#8F8F8F" transform="translate(1016,119)"/>
<path d="M0,0 L1,0 L1,15 L0,15 Z " fill="#EBEBEB" transform="translate(933,119)"/>
<path d="M0,0 L1,0 L1,15 L0,15 Z " fill="#CFCFCF" transform="translate(845,119)"/>
<path d="M0,0 L15,0 L15,1 L0,1 Z " fill="#7F7F7F" transform="translate(624,105)"/>
<path d="M0,0 L15,0 L15,1 L0,1 Z " fill="#7F7F7F" transform="translate(570,105)"/>
<path d="M0,0 L1,0 L1,15 L0,15 Z " fill="#3F3F3F" transform="translate(163,92)"/>
<path d="M0,0 L15,0 L15,1 L0,1 Z " fill="#575757" transform="translate(1130,78)"/>
<path d="M0,0 L15,0 L15,1 L0,1 Z " fill="#575757" transform="translate(485,78)"/>
<path d="M0,0 L15,0 L15,1 L0,1 Z " fill="#575757" transform="translate(367,78)"/>
<path d="M0,0 L14,0 L14,1 L0,1 Z " fill="#333333" transform="translate(1035,174)"/>
<path d="M0,0 L14,0 L14,1 L0,1 Z " fill="#333333" transform="translate(688,174)"/>
<path d="M0,0 L14,0 L14,1 L0,1 Z " fill="#333333" transform="translate(266,174)"/>
<path d="M0,0 L1,0 L1,14 L0,14 Z " fill="#5F5F5F" transform="translate(1002,161)"/>
<path d="M0,0 L1,0 L1,14 L0,14 Z " fill="#535353" transform="translate(960,161)"/>
<path d="M0,0 L1,0 L1,14 L0,14 Z " fill="#9B9B9B" transform="translate(831,161)"/>
<path d="M0,0 L1,0 L1,14 L0,14 Z " fill="#636363" transform="translate(735,161)"/>
<path d="M0,0 L1,0 L1,14 L0,14 Z " fill="#636363" transform="translate(540,161)"/>
<path d="M0,0 L1,0 L1,14 L0,14 Z " fill="#4F4F4F" transform="translate(498,161)"/>
<path d="M0,0 L1,0 L1,14 L0,14 Z " fill="#434343" transform="translate(380,161)"/>
<path d="M0,0 L14,0 L14,1 L0,1 Z " fill="#B3B3B3" transform="translate(863,161)"/>
<path d="M0,0 L14,0 L14,1 L0,1 Z " fill="#B3B3B3" transform="translate(775,161)"/>
<path d="M0,0 L14,0 L14,1 L0,1 Z " fill="#B3B3B3" transform="translate(423,161)"/>
<path d="M0,0 L14,0 L14,1 L0,1 Z " fill="#B3B3B3" transform="translate(177,161)"/>
<path d="M0,0 L14,0 L14,1 L0,1 Z " fill="#B3B3B3" transform="translate(150,161)"/>
<path d="M0,0 L1,0 L1,14 L0,14 Z " fill="#B3B3B3" transform="translate(1184,146)"/>
<path d="M0,0 L1,0 L1,14 L0,14 Z " fill="#C7C7C7" transform="translate(917,146)"/>
<path d="M0,0 L1,0 L1,14 L0,14 Z " fill="#5F5F5F" transform="translate(421,146)"/>
<path d="M0,0 L1,0 L1,14 L0,14 Z " fill="#1F1F1F" transform="translate(1001,146)"/>
<path d="M0,0 L14,0 L14,1 L0,1 Z " fill="#232323" transform="translate(422,146)"/>
<path d="M0,0 L1,0 L1,14 L0,14 Z " fill="#1B1B1B" transform="translate(817,133)"/>
<path d="M0,0 L14,0 L14,1 L0,1 Z " fill="#7F7F7F" transform="translate(150,132)"/>
<path d="M0,0 L14,0 L14,1 L0,1 Z " fill="#7F7F7F" transform="translate(1116,120)"/>
<path d="M0,0 L14,0 L14,1 L0,1 Z " fill="#7F7F7F" transform="translate(353,120)"/>
<path d="M0,0 L14,0 L14,1 L0,1 Z " fill="#232323" transform="translate(919,119)"/>
<path d="M0,0 L14,0 L14,1 L0,1 Z " fill="#232323" transform="translate(831,119)"/>
<path d="M0,0 L14,0 L14,1 L0,1 Z " fill="#232323" transform="translate(321,119)"/>
<path d="M0,0 L14,0 L14,1 L0,1 Z " fill="#232323" transform="translate(233,119)"/>
<path d="M0,0 L1,0 L1,14 L0,14 Z " fill="#CBCBCB" transform="translate(1186,106)"/>
<path d="M0,0 L1,0 L1,14 L0,14 Z " fill="#1F1F1F" transform="translate(422,106)"/>
<path d="M0,0 L1,0 L1,14 L0,14 Z " fill="#1F1F1F" transform="translate(353,106)"/>
<path d="M0,0 L14,0 L14,1 L0,1 Z " fill="#7F7F7F" transform="translate(1116,105)"/>
<path d="M0,0 L14,0 L14,1 L0,1 Z " fill="#7F7F7F" transform="translate(353,105)"/>
<path d="M0,0 L1,0 L1,14 L0,14 Z " fill="#7F7F7F" transform="translate(743,78)"/>
<path d="M0,0 L1,0 L1,14 L0,14 Z " fill="#A3A3A3" transform="translate(107,78)"/>
<path d="M0,0 L13,0 L13,1 L0,1 Z " fill="#8F8F8F" transform="translate(626,188)"/>
<path d="M0,0 L13,0 L13,1 L0,1 Z " fill="#8F8F8F" transform="translate(570,188)"/>
<path d="M0,0 L1,0 L1,13 L0,13 Z " fill="#373737" transform="translate(584,174)"/>
<path d="M0,0 L1,0 L1,13 L0,13 Z " fill="#171717" transform="translate(789,161)"/>
<path d="M0,0 L1,0 L1,13 L0,13 Z " fill="#1F1F1F" transform="translate(422,161)"/>
<path d="M0,0 L1,0 L1,13 L0,13 Z " fill="#0F0F0F" transform="translate(149,161)"/>
<path d="M0,0 L1,0 L1,13 L0,13 Z " fill="#CBCBCB" transform="translate(1186,162)"/>
<path d="M0,0 L1,0 L1,13 L0,13 Z " fill="#B7B7B7" transform="translate(919,162)"/>
<path d="M0,0 L1,0 L1,13 L0,13 Z " fill="#FBFBFB" transform="translate(876,162)"/>
<path d="M0,0 L13,0 L13,1 L0,1 Z " fill="#B3B3B3" transform="translate(1130,161)"/>
<path d="M0,0 L13,0 L13,1 L0,1 Z " fill="#DBDBDB" transform="translate(1003,161)"/>
<path d="M0,0 L13,0 L13,1 L0,1 Z " fill="#B3B3B3" transform="translate(947,161)"/>
<path d="M0,0 L13,0 L13,1 L0,1 Z " fill="#DBDBDB" transform="translate(832,161)"/>
<path d="M0,0 L13,0 L13,1 L0,1 Z " fill="#B3B3B3" transform="translate(722,161)"/>
<path d="M0,0 L13,0 L13,1 L0,1 Z " fill="#B3B3B3" transform="translate(541,161)"/>
<path d="M0,0 L13,0 L13,1 L0,1 Z " fill="#B3B3B3" transform="translate(485,161)"/>
<path d="M0,0 L13,0 L13,1 L0,1 Z " fill="#B3B3B3" transform="translate(367,161)"/>
<path d="M0,0 L13,0 L13,1 L0,1 Z " fill="#B3B3B3" transform="translate(94,161)"/>
<path d="M0,0 L13,0 L13,1 L0,1 Z " fill="#CBCBCB" transform="translate(737,159)"/>
<path d="M0,0 L1,0 L1,13 L0,13 Z " fill="#232323" transform="translate(1199,148)"/>
<path d="M0,0 L1,0 L1,13 L0,13 Z " fill="#979797" transform="translate(721,148)"/>
<path d="M0,0 L1,0 L1,13 L0,13 Z " fill="#474747" transform="translate(583,148)"/>
<path d="M0,0 L1,0 L1,13 L0,13 Z " fill="#DBDBDB" transform="translate(109,146)"/>
<path d="M0,0 L1,0 L1,13 L0,13 Z " fill="#E3E3E3" transform="translate(829,146)"/>
<path d="M0,0 L13,0 L13,1 L0,1 Z " fill="#5B5B5B" transform="translate(570,147)"/>
<path d="M0,0 L1,0 L1,13 L0,13 Z " fill="#1F1F1F" transform="translate(1001,121)"/>
<path d="M0,0 L1,0 L1,13 L0,13 Z " fill="#C7C7C7" transform="translate(917,121)"/>
<path d="M0,0 L1,0 L1,13 L0,13 Z " fill="#E3E3E3" transform="translate(829,121)"/>
<path d="M0,0 L1,0 L1,13 L0,13 Z " fill="#AFAFAF" transform="translate(319,121)"/>
<path d="M0,0 L1,0 L1,13 L0,13 Z " fill="#A3A3A3" transform="translate(107,121)"/>
<path d="M0,0 L13,0 L13,1 L0,1 Z " fill="#232323" transform="translate(1091,119)"/>
<path d="M0,0 L13,0 L13,1 L0,1 Z " fill="#232323" transform="translate(1003,119)"/>
<path d="M0,0 L13,0 L13,1 L0,1 Z " fill="#232323" transform="translate(947,119)"/>
<path d="M0,0 L13,0 L13,1 L0,1 Z " fill="#232323" transform="translate(864,119)"/>
<path d="M0,0 L13,0 L13,1 L0,1 Z " fill="#232323" transform="translate(776,119)"/>
<path d="M0,0 L13,0 L13,1 L0,1 Z " fill="#232323" transform="translate(541,119)"/>
<path d="M0,0 L13,0 L13,1 L0,1 Z " fill="#232323" transform="translate(266,119)"/>
<path d="M0,0 L13,0 L13,1 L0,1 Z " fill="#232323" transform="translate(178,119)"/>
<path d="M0,0 L1,0 L1,13 L0,13 Z " fill="#7B7B7B" transform="translate(1090,106)"/>
<path d="M0,0 L1,0 L1,13 L0,13 Z " fill="#5F5F5F" transform="translate(1002,106)"/>
<path d="M0,0 L1,0 L1,13 L0,13 Z " fill="#535353" transform="translate(960,106)"/>
<path d="M0,0 L1,0 L1,13 L0,13 Z " fill="#B7B7B7" transform="translate(919,106)"/>
<path d="M0,0 L1,0 L1,13 L0,13 Z " fill="#FBFBFB" transform="translate(876,106)"/>
<path d="M0,0 L1,0 L1,13 L0,13 Z " fill="#9B9B9B" transform="translate(831,106)"/>
<path d="M0,0 L1,0 L1,13 L0,13 Z " fill="#171717" transform="translate(789,106)"/>
<path d="M0,0 L1,0 L1,13 L0,13 Z " fill="#636363" transform="translate(540,106)"/>
<path d="M0,0 L1,0 L1,13 L0,13 Z " fill="#CFCFCF" transform="translate(321,106)"/>
<path d="M0,0 L1,0 L1,13 L0,13 Z " fill="#DFDFDF" transform="translate(278,106)"/>
<path d="M0,0 L1,0 L1,13 L0,13 Z " fill="#B3B3B3" transform="translate(233,106)"/>
<path d="M0,0 L1,0 L1,13 L0,13 Z " fill="#6F6F6F" transform="translate(148,94)"/>
<path d="M0,0 L1,0 L1,13 L0,13 Z " fill="#333333" transform="translate(701,79)"/>
<path d="M0,0 L1,0 L1,13 L0,13 Z " fill="#0F0F0F" transform="translate(149,79)"/>
<path d="M0,0 L1,0 L1,12 L0,12 Z " fill="#B3B3B3" transform="translate(233,163)"/>
<path d="M0,0 L1,0 L1,12 L0,12 Z " fill="#2B2B2B" transform="translate(961,148)"/>
<path d="M0,0 L1,0 L1,12 L0,12 Z " fill="#676767" transform="translate(790,148)"/>
<path d="M0,0 L1,0 L1,12 L0,12 Z " fill="#1B1B1B" transform="translate(736,148)"/>
<path d="M0,0 L1,0 L1,12 L0,12 Z " fill="#0F0F0F" transform="translate(149,120)"/>
<path d="M0,0 L1,0 L1,11 L0,11 Z " fill="#2B2B2B" transform="translate(961,121)"/>
<path d="M0,0 L1,0 L1,11 L0,11 Z " fill="#676767" transform="translate(790,121)"/>
<path d="M0,0 L6,0 L6,1 L0,1 Z " fill="#5B5B5B" transform="translate(737,147)"/>
<path d="M0,0 L1,0 L1,2 L-2,2 L-2,1 L0,1 Z " fill="#CBCBCB" transform="translate(231,158)"/>
<path d="M0,0 L2,0 L2,1 L1,1 L1,2 L0,2 Z " fill="#B3B3B3" transform="translate(233,161)"/>
<path d="M0,0 L2,0 L2,2 L1,2 L1,1 L0,1 Z " fill="#232323" transform="translate(1198,146)"/>
<path d="M0,0 L1,0 L1,2 L0,2 Z " fill="#434343" transform="translate(625,188)"/>
<path d="M0,0 L1,0 L1,2 L0,2 Z " fill="#474747" transform="translate(583,188)"/>
<path d="M0,0 L2,0 L2,1 L0,1 Z " fill="#333333" transform="translate(1089,174)"/>
<path d="M0,0 L2,0 L2,1 L0,1 Z " fill="#333333" transform="translate(789,174)"/>
<path d="M0,0 L1,0 L1,2 L0,2 Z " fill="#9F9F9F" transform="translate(569,173)"/>
<path d="M0,0 L1,0 L1,2 L0,2 Z " fill="#9B9B9B" transform="translate(1143,161)"/>
<path d="M0,0 L1,0 L1,2 L0,2 Z " fill="#5F5F5F" transform="translate(1002,161)"/>
<path d="M0,0 L1,0 L1,2 L0,2 Z " fill="#535353" transform="translate(960,161)"/>
<path d="M0,0 L1,0 L1,2 L0,2 Z " fill="#9B9B9B" transform="translate(831,161)"/>
<path d="M0,0 L1,0 L1,2 L0,2 Z " fill="#171717" transform="translate(789,161)"/>
<path d="M0,0 L1,0 L1,2 L0,2 Z " fill="#636363" transform="translate(735,161)"/>
<path d="M0,0 L1,0 L1,2 L0,2 Z " fill="#3B3B3B" transform="translate(624,161)"/>
<path d="M0,0 L1,0 L1,2 L0,2 Z " fill="#636363" transform="translate(540,161)"/>
<path d="M0,0 L1,0 L1,2 L0,2 Z " fill="#4F4F4F" transform="translate(498,161)"/>
<path d="M0,0 L1,0 L1,2 L0,2 Z " fill="#1F1F1F" transform="translate(422,161)"/>
<path d="M0,0 L1,0 L1,2 L0,2 Z " fill="#434343" transform="translate(380,161)"/>
<path d="M0,0 L1,0 L1,2 L0,2 Z " fill="#0F0F0F" transform="translate(149,161)"/>
<path d="M0,0 L1,0 L1,2 L0,2 Z " fill="#A3A3A3" transform="translate(107,161)"/>
<path d="M0,0 L2,0 L2,1 L0,1 Z " fill="#B3B3B3" transform="translate(1186,161)"/>
<path d="M0,0 L2,0 L2,1 L0,1 Z " fill="#B3B3B3" transform="translate(1130,161)"/>
<path d="M0,0 L2,0 L2,1 L0,1 Z " fill="#B3B3B3" transform="translate(919,161)"/>
<path d="M0,0 L2,0 L2,1 L0,1 Z " fill="#B3B3B3" transform="translate(863,161)"/>
<path d="M0,0 L2,0 L2,1 L0,1 Z " fill="#B3B3B3" transform="translate(775,161)"/>
<path d="M0,0 L2,0 L2,1 L0,1 Z " fill="#B3B3B3" transform="translate(583,161)"/>
<path d="M0,0 L2,0 L2,1 L0,1 Z " fill="#B3B3B3" transform="translate(177,161)"/>
<path d="M0,0 L2,0 L2,1 L0,1 Z " fill="#CBCBCB" transform="translate(1145,159)"/>
<path d="M0,0 L2,0 L2,1 L0,1 Z " fill="#CBCBCB" transform="translate(109,159)"/>
<path d="M0,0 L1,0 L1,2 L0,2 Z " fill="#B3B3B3" transform="translate(1184,146)"/>
<path d="M0,0 L1,0 L1,2 L0,2 Z " fill="#EBEBEB" transform="translate(933,146)"/>
<path d="M0,0 L1,0 L1,2 L0,2 Z " fill="#C7C7C7" transform="translate(917,146)"/>
<path d="M0,0 L1,0 L1,2 L0,2 Z " fill="#7B7B7B" transform="translate(436,146)"/>
<path d="M0,0 L1,0 L1,2 L0,2 Z " fill="#5F5F5F" transform="translate(421,146)"/>
<path d="M0,0 L1,0 L1,2 L0,2 Z " fill="#DBDBDB" transform="translate(109,146)"/>
<path d="M0,0 L2,0 L2,1 L0,1 Z " fill="#7F7F7F" transform="translate(1145,120)"/>
<path d="M0,0 L2,0 L2,1 L0,1 Z " fill="#7F7F7F" transform="translate(1116,120)"/>
<path d="M0,0 L1,0 L1,2 L0,2 Z " fill="#ABABAB" transform="translate(1104,119)"/>
<path d="M0,0 L1,0 L1,2 L0,2 Z " fill="#8F8F8F" transform="translate(1016,119)"/>
<path d="M0,0 L1,0 L1,2 L0,2 Z " fill="#ABABAB" transform="translate(946,119)"/>
<path d="M0,0 L1,0 L1,2 L0,2 Z " fill="#EBEBEB" transform="translate(933,119)"/>
<path d="M0,0 L2,0 L2,1 L0,1 Z " fill="#7F7F7F" transform="translate(878,120)"/>
<path d="M0,0 L1,0 L1,2 L0,2 Z " fill="#535353" transform="translate(863,119)"/>
<path d="M0,0 L1,0 L1,2 L0,2 Z " fill="#CFCFCF" transform="translate(845,119)"/>
<path d="M0,0 L1,0 L1,2 L0,2 Z " fill="#6F6F6F" transform="translate(775,119)"/>
<path d="M0,0 L1,0 L1,2 L0,2 Z " fill="#939393" transform="translate(554,119)"/>
<path d="M0,0 L2,0 L2,1 L0,1 Z " fill="#7F7F7F" transform="translate(353,120)"/>
<path d="M0,0 L2,0 L2,1 L0,1 Z " fill="#7F7F7F" transform="translate(280,120)"/>
<path d="M0,0 L1,0 L1,2 L0,2 Z " fill="#3B3B3B" transform="translate(265,119)"/>
<path d="M0,0 L1,0 L1,2 L0,2 Z " fill="#E7E7E7" transform="translate(247,119)"/>
<path d="M0,0 L1,0 L1,2 L0,2 Z " fill="#575757" transform="translate(177,119)"/>
<path d="M0,0 L2,0 L2,1 L0,1 Z " fill="#232323" transform="translate(919,119)"/>
<path d="M0,0 L2,0 L2,1 L0,1 Z " fill="#232323" transform="translate(831,119)"/>
<path d="M0,0 L1,0 L1,1 L0,1 Z M-1,1 L0,1 L0,2 L-1,2 Z " fill="#0D0D0D" transform="translate(540,119)"/>
<path d="M0,0 L2,0 L2,1 L0,1 Z " fill="#232323" transform="translate(321,119)"/>
<path d="M0,0 L2,0 L2,1 L0,1 Z " fill="#232323" transform="translate(233,119)"/>
<path d="M0,0 L2,0 L2,1 L0,1 Z " fill="#232323" transform="translate(109,119)"/>
<path d="M0,0 L2,0 L2,1 L0,1 Z " fill="#7F7F7F" transform="translate(1145,105)"/>
<path d="M0,0 L2,0 L2,1 L0,1 Z " fill="#7F7F7F" transform="translate(1116,105)"/>
<path d="M0,0 L2,0 L2,1 L0,1 Z " fill="#7F7F7F" transform="translate(960,105)"/>
<path d="M0,0 L2,0 L2,1 L0,1 Z " fill="#7F7F7F" transform="translate(789,105)"/>
<path d="M0,0 L2,0 L2,1 L0,1 Z " fill="#7F7F7F" transform="translate(624,105)"/>
<path d="M0,0 L2,0 L2,1 L0,1 Z " fill="#7F7F7F" transform="translate(353,105)"/>
<path d="M0,0 L2,0 L2,1 L0,1 Z " fill="#7F7F7F" transform="translate(109,93)"/>
<path d="M0,0 L1,0 L1,2 L0,2 Z " fill="#E3E3E3" transform="translate(1145,78)"/>
<path d="M0,0 L1,0 L1,2 L0,2 Z " fill="#7F7F7F" transform="translate(743,78)"/>
<path d="M0,0 L1,0 L1,2 L0,2 Z " fill="#ABABAB" transform="translate(484,78)"/>
<path d="M0,0 L1,0 L1,2 L0,2 Z " fill="#C3C3C3" transform="translate(366,78)"/>
<path d="M0,0 L1,0 L1,2 L0,2 Z " fill="#A3A3A3" transform="translate(107,78)"/>
<path d="M0,0 L2,0 L2,1 L0,1 Z " fill="#575757" transform="translate(1130,78)"/>
<path d="M0,0 L2,0 L2,1 L0,1 Z " fill="#575757" transform="translate(701,78)"/>
<path d="M0,0 L1,0 L1,1 L0,1 Z " fill="#4E4E4E" transform="translate(625,201)"/>
<path d="M0,0 L1,0 L1,1 L0,1 Z " fill="#525252" transform="translate(583,201)"/>
<path d="M0,0 L1,0 L1,1 L0,1 Z " fill="#FFFFFF" transform="translate(626,189)"/>
<path d="M0,0 L1,0 L1,1 L0,1 Z " fill="#D5D5D5" transform="translate(639,188)"/>
<path d="M0,0 L1,0 L1,1 L0,1 Z " fill="#252525" transform="translate(625,188)"/>
<path d="M0,0 L1,0 L1,1 L0,1 Z " fill="#272727" transform="translate(583,188)"/>
<path d="M0,0 L1,0 L1,1 L0,1 Z " fill="#D5D5D5" transform="translate(569,188)"/>
<path d="M0,0 L1,0 L1,1 L0,1 Z " fill="#373737" transform="translate(624,186)"/>
<path d="M0,0 L1,0 L1,1 L0,1 Z " fill="#333333" transform="translate(584,186)"/>
<path d="M0,0 L1,0 L1,1 L0,1 Z " fill="#D5D5D5" transform="translate(1186,174)"/>
<path d="M0,0 L1,0 L1,1 L0,1 Z " fill="#AFAFAF" transform="translate(1143,174)"/>
<path d="M0,0 L1,0 L1,1 L0,1 Z " fill="#BCBCBC" transform="translate(1104,174)"/>
<path d="M0,0 L1,0 L1,1 L0,1 Z " fill="#363636" transform="translate(1089,174)"/>
<path d="M0,0 L1,0 L1,1 L0,1 Z " fill="#6C6C6C" transform="translate(1049,174)"/>
<path d="M0,0 L1,0 L1,1 L0,1 Z " fill="#A8A8A8" transform="translate(1034,174)"/>
<path d="M0,0 L1,0 L1,1 L0,1 Z " fill="#7F7F7F" transform="translate(1002,174)"/>
<path d="M0,0 L1,0 L1,1 L0,1 Z " fill="#757575" transform="translate(960,174)"/>
<path d="M0,0 L1,0 L1,1 L0,1 Z " fill="#C5C5C5" transform="translate(919,174)"/>
<path d="M0,0 L1,0 L1,1 L0,1 Z " fill="#AFAFAF" transform="translate(831,174)"/>
<path d="M0,0 L1,0 L1,1 L0,1 Z " fill="#464646" transform="translate(789,174)"/>
<path d="M0,0 L1,0 L1,1 L0,1 Z " fill="#AFAFAF" transform="translate(750,174)"/>
<path d="M0,0 L1,0 L1,1 L0,1 Z " fill="#828282" transform="translate(735,174)"/>
<path d="M0,0 L1,0 L1,1 L0,1 Z " fill="#6F6F6F" transform="translate(702,174)"/>
<path d="M0,0 L1,0 L1,1 L0,1 Z " fill="#A2A2A2" transform="translate(687,174)"/>
<path d="M0,0 L1,0 L1,1 L0,1 Z " fill="#828282" transform="translate(540,174)"/>
<path d="M0,0 L1,0 L1,1 L0,1 Z " fill="#727272" transform="translate(498,174)"/>
<path d="M0,0 L1,0 L1,1 L0,1 Z " fill="#4C4C4C" transform="translate(422,174)"/>
<path d="M0,0 L1,0 L1,1 L0,1 Z " fill="#696969" transform="translate(380,174)"/>
<path d="M0,0 L1,0 L1,1 L0,1 Z " fill="#B2B2B2" transform="translate(280,174)"/>
<path d="M0,0 L1,0 L1,1 L0,1 Z " fill="#626262" transform="translate(265,174)"/>
<path d="M0,0 L1,0 L1,1 L0,1 Z " fill="#C2C2C2" transform="translate(233,174)"/>
<path d="M0,0 L1,0 L1,1 L0,1 Z " fill="#3F3F3F" transform="translate(149,174)"/>
<path d="M0,0 L1,0 L1,1 L0,1 Z " fill="#B5B5B5" transform="translate(107,174)"/>
<path d="M0,0 L1,0 L1,1 L0,1 Z " fill="#8E8E8E" transform="translate(584,173)"/>
<path d="M0,0 L1,0 L1,1 L0,1 Z " fill="#C9C9C9" transform="translate(569,173)"/>
<path d="M0,0 L1,0 L1,1 L0,1 Z " fill="#FFFFFF" transform="translate(1187,162)"/>
<path d="M0,0 L1,0 L1,1 L0,1 Z " fill="#FFFFFF" transform="translate(1003,162)"/>
<path d="M0,0 L1,0 L1,1 L0,1 Z " fill="#FFFFFF" transform="translate(920,162)"/>
<path d="M0,0 L1,0 L1,1 L0,1 Z " fill="#FFFFFF" transform="translate(832,162)"/>
<path d="M0,0 L1,0 L1,1 L0,1 Z " fill="#FFFFFF" transform="translate(541,162)"/>
<path d="M0,0 L1,0 L1,1 L0,1 Z " fill="#FFFFFF" transform="translate(423,162)"/>
<path d="M0,0 L1,0 L1,1 L0,1 Z " fill="#FFFFFF" transform="translate(234,162)"/>
<path d="M0,0 L1,0 L1,1 L0,1 Z " fill="#FFFFFF" transform="translate(150,162)"/>
<path d="M0,0 L1,0 L1,1 L0,1 Z " fill="#BDBDBD" transform="translate(1199,161)"/>
<path d="M0,0 L1,0 L1,1 L0,1 Z " fill="#8E8E8E" transform="translate(1186,161)"/>
<path d="M0,0 L1,0 L1,1 L0,1 Z " fill="#6C6C6C" transform="translate(1143,161)"/>
<path d="M0,0 L1,0 L1,1 L0,1 Z " fill="#BBBBBB" transform="translate(1130,161)"/>
<path d="M0,0 L1,0 L1,1 L0,1 Z " fill="#EFEFEF" transform="translate(1016,161)"/>
<path d="M0,0 L1,0 L1,1 L0,1 Z " fill="#515151" transform="translate(1002,161)"/>
<path d="M0,0 L1,0 L1,1 L0,1 Z " fill="#3A3A3A" transform="translate(960,161)"/>
<path d="M0,0 L1,0 L1,1 L0,1 Z " fill="#E6E6E6" transform="translate(946,161)"/>
<path d="M0,0 L1,0 L1,1 L0,1 Z " fill="#F9F9F9" transform="translate(933,161)"/>
<path d="M0,0 L1,0 L1,1 L0,1 Z " fill="#808080" transform="translate(919,161)"/>
<path d="M0,0 L1,0 L1,1 L0,1 Z " fill="#B0B0B0" transform="translate(876,161)"/>
<path d="M0,0 L1,0 L1,1 L0,1 Z " fill="#CBCBCB" transform="translate(863,161)"/>
<path d="M0,0 L1,0 L1,1 L0,1 Z " fill="#F8F8F8" transform="translate(845,161)"/>
<path d="M0,0 L1,0 L1,1 L0,1 Z " fill="#858585" transform="translate(831,161)"/>
<path d="M0,0 L1,0 L1,1 L0,1 Z " fill="#0F0F0F" transform="translate(789,161)"/>
<path d="M0,0 L1,0 L1,1 L0,1 Z " fill="#D4D4D4" transform="translate(775,161)"/>
<path d="M0,0 L1,0 L1,1 L0,1 Z " fill="#454545" transform="translate(735,161)"/>
<path d="M0,0 L1,0 L1,1 L0,1 Z " fill="#E0E0E0" transform="translate(721,161)"/>
<path d="M0,0 L1,0 L1,1 L0,1 Z " fill="#292929" transform="translate(624,161)"/>
<path d="M0,0 L1,0 L1,1 L0,1 Z " fill="#C8C8C8" transform="translate(583,161)"/>
<path d="M0,0 L1,0 L1,1 L0,1 Z " fill="#DEDEDE" transform="translate(554,161)"/>
<path d="M0,0 L1,0 L1,1 L0,1 Z " fill="#454545" transform="translate(540,161)"/>
<path d="M0,0 L1,0 L1,1 L0,1 Z " fill="#373737" transform="translate(498,161)"/>
<path d="M0,0 L1,0 L1,1 L0,1 Z " fill="#E6E6E6" transform="translate(484,161)"/>
<path d="M0,0 L1,0 L1,1 L0,1 Z " fill="#D7D7D7" transform="translate(436,161)"/>
<path d="M0,0 L1,0 L1,1 L0,1 Z " fill="#151515" transform="translate(422,161)"/>
<path d="M0,0 L1,0 L1,1 L0,1 Z " fill="#2E2E2E" transform="translate(380,161)"/>
<path d="M0,0 L1,0 L1,1 L0,1 Z " fill="#EDEDED" transform="translate(366,161)"/>
<path d="M0,0 L1,0 L1,1 L0,1 Z " fill="#F7F7F7" transform="translate(247,161)"/>
<path d="M0,0 L1,0 L1,1 L0,1 Z " fill="#7D7D7D" transform="translate(233,161)"/>
<path d="M0,0 L1,0 L1,1 L0,1 Z " fill="#CDCDCD" transform="translate(177,161)"/>
<path d="M0,0 L1,0 L1,1 L0,1 Z " fill="#C6C6C6" transform="translate(163,161)"/>
<path d="M0,0 L1,0 L1,1 L0,1 Z " fill="#0A0A0A" transform="translate(149,161)"/>
<path d="M0,0 L1,0 L1,1 L0,1 Z " fill="#727272" transform="translate(107,161)"/>
<path d="M0,0 L1,0 L1,1 L0,1 Z " fill="#8E8E8E" transform="translate(1184,159)"/>
<path d="M0,0 L1,0 L1,1 L0,1 Z " fill="#B4B4B4" transform="translate(1145,159)"/>
<path d="M0,0 L1,0 L1,1 L0,1 Z " fill="#181818" transform="translate(1001,159)"/>
<path d="M0,0 L1,0 L1,1 L0,1 Z " fill="#222222" transform="translate(961,159)"/>
<path d="M0,0 L1,0 L1,1 L0,1 Z " fill="#9E9E9E" transform="translate(917,159)"/>
<path d="M0,0 L1,0 L1,1 L0,1 Z " fill="#686868" transform="translate(878,159)"/>
<path d="M0,0 L1,0 L1,1 L0,1 Z " fill="#B4B4B4" transform="translate(829,159)"/>
<path d="M0,0 L1,0 L1,1 L0,1 Z " fill="#515151" transform="translate(790,159)"/>
<path d="M0,0 L1,0 L1,1 L0,1 Z " fill="#EAEAEA" transform="translate(750,159)"/>
<path d="M0,0 L1,0 L1,1 L0,1 Z " fill="#151515" transform="translate(736,159)"/>
<path d="M0,0 L1,0 L1,1 L0,1 Z " fill="#151515" transform="translate(539,159)"/>
<path d="M0,0 L1,0 L1,1 L0,1 Z " fill="#252525" transform="translate(499,159)"/>
<path d="M0,0 L1,0 L1,1 L0,1 Z " fill="#4B4B4B" transform="translate(421,159)"/>
<path d="M0,0 L1,0 L1,1 L0,1 Z " fill="#2E2E2E" transform="translate(381,159)"/>
<path d="M0,0 L1,0 L1,1 L0,1 Z " fill="#A1A1A1" transform="translate(231,159)"/>
<path d="M0,0 L1,0 L1,1 L0,1 Z " fill="#656565" transform="translate(192,159)"/>
<path d="M0,0 L1,0 L1,1 L0,1 Z " fill="#585858" transform="translate(148,159)"/>
<path d="M0,0 L1,0 L1,1 L0,1 Z " fill="#AEAEAE" transform="translate(109,159)"/>
<path d="M0,0 L1,0 L1,1 L0,1 Z " fill="#FFFFFF" transform="translate(962,148)"/>
<path d="M0,0 L1,0 L1,1 L0,1 Z " fill="#FFFFFF" transform="translate(791,148)"/>
<path d="M0,0 L1,0 L1,1 L0,1 Z " fill="#FFFFFF" transform="translate(737,148)"/>
<path d="M0,0 L1,0 L1,1 L0,1 Z " fill="#FFFFFF" transform="translate(703,148)"/>
<path d="M0,0 L1,0 L1,1 L0,1 Z " fill="#EAEAEA" transform="translate(989,147)"/>
<path d="M0,0 L1,0 L1,1 L0,1 Z " fill="#0E0E0E" transform="translate(961,147)"/>
<path d="M0,0 L1,0 L1,1 L0,1 Z " fill="#6C6C6C" transform="translate(817,147)"/>
<path d="M0,0 L1,0 L1,1 L0,1 Z " fill="#242424" transform="translate(790,147)"/>
<path d="M0,0 L1,0 L1,1 L0,1 Z " fill="#ADADAD" transform="translate(743,147)"/>
<path d="M0,0 L1,0 L1,1 L0,1 Z " fill="#090909" transform="translate(736,147)"/>
<path d="M0,0 L1,0 L1,1 L0,1 Z " fill="#353535" transform="translate(721,147)"/>
<path d="M0,0 L1,0 L1,1 L0,1 Z " fill="#1A1A1A" transform="translate(702,147)"/>
<path d="M0,0 L1,0 L1,1 L0,1 Z " fill="#181818" transform="translate(583,147)"/>
<path d="M0,0 L1,0 L1,1 L0,1 Z " fill="#C1C1C1" transform="translate(569,147)"/>
<path d="M0,0 L1,0 L1,1 L0,1 Z " fill="#414141" transform="translate(1199,146)"/>
<path d="M0,0 L1,0 L1,1 L0,1 Z " fill="#BDBDBD" transform="translate(1184,146)"/>
<path d="M0,0 L1,0 L1,1 L0,1 Z " fill="#EDEDED" transform="translate(933,146)"/>
<path d="M0,0 L1,0 L1,1 L0,1 Z " fill="#CECECE" transform="translate(917,146)"/>
<path d="M0,0 L1,0 L1,1 L0,1 Z " fill="#070707" transform="translate(624,146)"/>
<path d="M0,0 L1,0 L1,1 L0,1 Z " fill="#060606" transform="translate(584,146)"/>
<path d="M0,0 L1,0 L1,1 L0,1 Z " fill="#8D8D8D" transform="translate(436,146)"/>
<path d="M0,0 L1,0 L1,1 L0,1 Z " fill="#757575" transform="translate(421,146)"/>
<path d="M0,0 L1,0 L1,1 L0,1 Z " fill="#E0E0E0" transform="translate(109,146)"/>
<path d="M0,0 L1,0 L1,1 L0,1 Z " fill="#FFFFFF" transform="translate(744,134)"/>
<path d="M0,0 L1,0 L1,1 L0,1 Z " fill="#EFEFEF" transform="translate(989,132)"/>
<path d="M0,0 L1,0 L1,1 L0,1 Z " fill="#151515" transform="translate(961,132)"/>
<path d="M0,0 L1,0 L1,1 L0,1 Z " fill="#8D8D8D" transform="translate(817,132)"/>
<path d="M0,0 L1,0 L1,1 L0,1 Z " fill="#333333" transform="translate(790,132)"/>
<path d="M0,0 L1,0 L1,1 L0,1 Z " fill="#252525" transform="translate(702,132)"/>
<path d="M0,0 L1,0 L1,1 L0,1 Z " fill="#9F9F9F" transform="translate(163,132)"/>
<path d="M0,0 L1,0 L1,1 L0,1 Z " fill="#070707" transform="translate(149,132)"/>
<path d="M0,0 L1,0 L1,1 L0,1 Z " fill="#FFFFFF" transform="translate(1146,121)"/>
<path d="M0,0 L1,0 L1,1 L0,1 Z " fill="#FFFFFF" transform="translate(1050,121)"/>
<path d="M0,0 L1,0 L1,1 L0,1 Z " fill="#FFFFFF" transform="translate(962,121)"/>
<path d="M0,0 L1,0 L1,1 L0,1 Z " fill="#FFFFFF" transform="translate(879,121)"/>
<path d="M0,0 L1,0 L1,1 L0,1 Z " fill="#FFFFFF" transform="translate(791,121)"/>
<path d="M0,0 L1,0 L1,1 L0,1 Z " fill="#FFFFFF" transform="translate(382,121)"/>
<path d="M0,0 L1,0 L1,1 L0,1 Z " fill="#FFFFFF" transform="translate(281,121)"/>
<path d="M0,0 L1,0 L1,1 L0,1 Z " fill="#E5E5E5" transform="translate(1186,120)"/>
<path d="M0,0 L1,0 L1,1 L0,1 Z " fill="#717171" transform="translate(1145,120)"/>
<path d="M0,0 L1,0 L1,1 L0,1 Z " fill="#0D0D0D" transform="translate(1130,120)"/>
<path d="M0,0 L1,0 L1,1 L0,1 Z " fill="#B9B9B9" transform="translate(1116,120)"/>
<path d="M0,0 L1,0 L1,1 L0,1 Z " fill="#010101" transform="translate(1089,120)"/>
<path d="M0,0 L1,0 L1,1 L0,1 Z " fill="#232323" transform="translate(1049,120)"/>
<path d="M0,0 L1,0 L1,1 L0,1 Z " fill="#0F0F0F" transform="translate(1001,120)"/>
<path d="M0,0 L1,0 L1,1 L0,1 Z " fill="#151515" transform="translate(961,120)"/>
<path d="M0,0 L1,0 L1,1 L0,1 Z " fill="#636363" transform="translate(917,120)"/>
<path d="M0,0 L1,0 L1,1 L0,1 Z " fill="#414141" transform="translate(878,120)"/>
<path d="M0,0 L1,0 L1,1 L0,1 Z " fill="#717171" transform="translate(829,120)"/>
<path d="M0,0 L1,0 L1,1 L0,1 Z " fill="#333333" transform="translate(790,120)"/>
<path d="M0,0 L1,0 L1,1 L0,1 Z " fill="#171717" transform="translate(499,120)"/>
<path d="M0,0 L1,0 L1,1 L0,1 Z " fill="#8F8F8F" transform="translate(422,120)"/>
<path d="M0,0 L1,0 L1,1 L0,1 Z " fill="#1D1D1D" transform="translate(381,120)"/>
<path d="M0,0 L1,0 L1,1 L0,1 Z " fill="#616161" transform="translate(366,120)"/>
<path d="M0,0 L1,0 L1,1 L0,1 Z " fill="#8F8F8F" transform="translate(353,120)"/>
<path d="M0,0 L1,0 L1,1 L0,1 Z " fill="#575757" transform="translate(319,120)"/>
<path d="M0,0 L1,0 L1,1 L0,1 Z " fill="#4F4F4F" transform="translate(280,120)"/>
<path d="M0,0 L1,0 L1,1 L0,1 Z " fill="#656565" transform="translate(231,120)"/>
<path d="M0,0 L1,0 L1,1 L0,1 Z " fill="#3F3F3F" transform="translate(192,120)"/>
<path d="M0,0 L1,0 L1,1 L0,1 Z " fill="#515151" transform="translate(107,120)"/>
<path d="M0,0 L1,0 L1,1 L0,1 Z " fill="#B6B6B6" transform="translate(1104,119)"/>
<path d="M0,0 L1,0 L1,1 L0,1 Z " fill="#101010" transform="translate(1090,119)"/>
<path d="M0,0 L1,0 L1,1 L0,1 Z " fill="#9E9E9E" transform="translate(1016,119)"/>
<path d="M0,0 L1,0 L1,1 L0,1 Z " fill="#0C0C0C" transform="translate(1002,119)"/>
<path d="M0,0 L1,0 L1,1 L0,1 Z " fill="#0A0A0A" transform="translate(960,119)"/>
<path d="M0,0 L1,0 L1,1 L0,1 Z " fill="#B6B6B6" transform="translate(946,119)"/>
<path d="M0,0 L1,0 L1,1 L0,1 Z " fill="#EDEDED" transform="translate(933,119)"/>
<path d="M0,0 L1,0 L1,1 L0,1 Z " fill="#181818" transform="translate(919,119)"/>
<path d="M0,0 L1,0 L1,1 L0,1 Z " fill="#222222" transform="translate(876,119)"/>
<path d="M0,0 L1,0 L1,1 L0,1 Z " fill="#6B6B6B" transform="translate(863,119)"/>
<path d="M0,0 L1,0 L1,1 L0,1 Z " fill="#D5D5D5" transform="translate(845,119)"/>
<path d="M0,0 L1,0 L1,1 L0,1 Z " fill="#141414" transform="translate(831,119)"/>
<path d="M0,0 L1,0 L1,1 L0,1 Z " fill="#020202" transform="translate(789,119)"/>
<path d="M0,0 L1,0 L1,1 L0,1 Z " fill="#838383" transform="translate(775,119)"/>
<path d="M0,0 L1,0 L1,1 L0,1 Z " fill="#A2A2A2" transform="translate(554,119)"/>
<path d="M0,0 L1,0 L1,1 L0,1 Z " fill="#262626" transform="translate(334,119)"/>
<path d="M0,0 L1,0 L1,1 L0,1 Z " fill="#1C1C1C" transform="translate(321,119)"/>
<path d="M0,0 L1,0 L1,1 L0,1 Z " fill="#1E1E1E" transform="translate(278,119)"/>
<path d="M0,0 L1,0 L1,1 L0,1 Z " fill="#565656" transform="translate(265,119)"/>
<path d="M0,0 L1,0 L1,1 L0,1 Z " fill="#EAEAEA" transform="translate(247,119)"/>
<path d="M0,0 L1,0 L1,1 L0,1 Z " fill="#181818" transform="translate(233,119)"/>
<path d="M0,0 L1,0 L1,1 L0,1 Z " fill="#6E6E6E" transform="translate(177,119)"/>
<path d="M0,0 L1,0 L1,1 L0,1 Z " fill="#303030" transform="translate(149,119)"/>
<path d="M0,0 L1,0 L1,1 L0,1 Z " fill="#1D1D1D" transform="translate(109,119)"/>
<path d="M0,0 L1,0 L1,1 L0,1 Z " fill="#E5E5E5" transform="translate(1186,105)"/>
<path d="M0,0 L1,0 L1,1 L0,1 Z " fill="#717171" transform="translate(1145,105)"/>
<path d="M0,0 L1,0 L1,1 L0,1 Z " fill="#0D0D0D" transform="translate(1130,105)"/>
<path d="M0,0 L1,0 L1,1 L0,1 Z " fill="#B9B9B9" transform="translate(1116,105)"/>
<path d="M0,0 L1,0 L1,1 L0,1 Z " fill="#BDBDBD" transform="translate(1090,105)"/>
<path d="M0,0 L1,0 L1,1 L0,1 Z " fill="#C9C9C9" transform="translate(1034,105)"/>
<path d="M0,0 L1,0 L1,1 L0,1 Z " fill="#AFAFAF" transform="translate(1002,105)"/>
<path d="M0,0 L1,0 L1,1 L0,1 Z " fill="#A9A9A9" transform="translate(960,105)"/>
<path d="M0,0 L1,0 L1,1 L0,1 Z " fill="#DBDBDB" transform="translate(919,105)"/>
<path d="M0,0 L1,0 L1,1 L0,1 Z " fill="#FDFDFD" transform="translate(876,105)"/>
<path d="M0,0 L1,0 L1,1 L0,1 Z " fill="#CDCDCD" transform="translate(831,105)"/>
<path d="M0,0 L1,0 L1,1 L0,1 Z " fill="#8B8B8B" transform="translate(789,105)"/>
<path d="M0,0 L1,0 L1,1 L0,1 Z " fill="#CFCFCF" transform="translate(639,105)"/>
<path d="M0,0 L1,0 L1,1 L0,1 Z " fill="#9D9D9D" transform="translate(624,105)"/>
<path d="M0,0 L1,0 L1,1 L0,1 Z " fill="#9B9B9B" transform="translate(584,105)"/>
<path d="M0,0 L1,0 L1,1 L0,1 Z " fill="#CFCFCF" transform="translate(569,105)"/>
<path d="M0,0 L1,0 L1,1 L0,1 Z " fill="#B1B1B1" transform="translate(540,105)"/>
<path d="M0,0 L1,0 L1,1 L0,1 Z " fill="#171717" transform="translate(499,105)"/>
<path d="M0,0 L1,0 L1,1 L0,1 Z " fill="#8F8F8F" transform="translate(422,105)"/>
<path d="M0,0 L1,0 L1,1 L0,1 Z " fill="#1D1D1D" transform="translate(381,105)"/>
<path d="M0,0 L1,0 L1,1 L0,1 Z " fill="#616161" transform="translate(366,105)"/>
<path d="M0,0 L1,0 L1,1 L0,1 Z " fill="#8F8F8F" transform="translate(353,105)"/>
<path d="M0,0 L1,0 L1,1 L0,1 Z " fill="#E7E7E7" transform="translate(321,105)"/>
<path d="M0,0 L1,0 L1,1 L0,1 Z " fill="#EFEFEF" transform="translate(278,105)"/>
<path d="M0,0 L1,0 L1,1 L0,1 Z " fill="#D9D9D9" transform="translate(233,105)"/>
<path d="M0,0 L1,0 L1,1 L0,1 Z " fill="#252525" transform="translate(702,93)"/>
<path d="M0,0 L1,0 L1,1 L0,1 Z " fill="#373737" transform="translate(148,93)"/>
<path d="M0,0 L1,0 L1,1 L0,1 Z " fill="#6D6D6D" transform="translate(109,93)"/>
<path d="M0,0 L1,0 L1,1 L0,1 Z " fill="#ECECEC" transform="translate(1145,78)"/>
<path d="M0,0 L1,0 L1,1 L0,1 Z " fill="#696969" transform="translate(1130,78)"/>
<path d="M0,0 L1,0 L1,1 L0,1 Z " fill="#ABABAB" transform="translate(743,78)"/>
<path d="M0,0 L1,0 L1,1 L0,1 Z " fill="#797979" transform="translate(701,78)"/>
<path d="M0,0 L1,0 L1,1 L0,1 Z " fill="#767676" transform="translate(499,78)"/>
<path d="M0,0 L1,0 L1,1 L0,1 Z " fill="#C7C7C7" transform="translate(484,78)"/>
<path d="M0,0 L1,0 L1,1 L0,1 Z " fill="#7E7E7E" transform="translate(381,78)"/>
<path d="M0,0 L1,0 L1,1 L0,1 Z " fill="#D7D7D7" transform="translate(366,78)"/>
<path d="M0,0 L1,0 L1,1 L0,1 Z " fill="#616161" transform="translate(149,78)"/>
<path d="M0,0 L1,0 L1,1 L0,1 Z " fill="#C2C2C2" transform="translate(107,78)"/>
</svg>
