<?xml version="1.0" encoding="UTF-8"?>
<!-- Generator: visioncortex VTracer 0.6.4 -->
<svg version="1.1" xmlns="http://www.w3.org/2000/svg" width="1294" height="250">
<path d="M0,0 L1294,0 L1294,250 L0,250 Z " fill="#FFFFFF" transform="translate(0,0)"/>
<path d="M0,0 L15,0 L15,27 L56,27 L56,41 L69,41 L69,83 L56,83 L56,97 L13,97 L13,83 L0,83 Z " fill="#000000" transform="translate(593,78)"/>
<path d="M0,0 L42,0 L42,13 L56,13 L56,55 L42,55 L42,69 L0,69 L0,55 L-14,55 L-14,13 L0,13 Z " fill="#000000" transform="translate(299,106)"/>
<path d="M0,0 L43,0 L43,14 L55,14 L55,0 L84,0 L84,14 L97,14 L97,70 L82,70 L82,15 L56,15 L56,70 L41,70 L41,16 L16,16 L16,70 L0,70 Z " fill="#000000" transform="translate(909,105)"/>
<path d="M0,0 L15,0 L15,41 L54,41 L54,0 L69,0 L69,84 L56,84 L56,97 L13,97 L13,84 L0,84 L0,69 L15,69 L15,82 L54,82 L54,56 L13,56 L13,42 L0,42 Z " fill="#000000" transform="translate(678,105)"/>
<path d="M0,0 L43,0 L43,14 L57,14 L57,29 L41,29 L41,16 L2,16 L2,41 L43,41 L43,54 L57,54 L57,83 L43,83 L43,97 L1,97 L1,83 L-13,83 L-13,68 L2,68 L2,82 L42,82 L42,56 L1,56 L1,42 L-13,42 L-13,14 L0,14 Z " fill="#000000" transform="translate(215,78)"/>
<path d="M0,0 L15,0 L15,27 L56,27 L56,43 L15,43 L15,82 L54,82 L54,68 L70,68 L70,84 L56,84 L56,97 L13,97 L13,83 L0,83 L0,42 L-14,42 L-14,28 L0,28 Z " fill="#000000" transform="translate(475,78)"/>
<path d="M0,0 L43,0 L43,14 L56,14 L56,29 L41,29 L41,16 L2,16 L2,27 L29,27 L29,43 L2,43 L2,55 L41,55 L41,41 L57,41 L57,56 L43,56 L43,70 L0,70 L0,56 L-13,56 L-13,14 L0,14 Z " fill="#000000" transform="translate(1036,105)"/>
<path d="M0,0 L43,0 L43,14 L56,14 L56,29 L41,29 L41,15 L29,15 L29,97 L14,97 L14,15 L2,15 L2,29 L-13,29 L-13,14 L0,14 Z " fill="#000000" transform="translate(809,78)"/>
<path d="M0,0 L42,0 L42,13 L56,13 L56,28 L41,28 L41,14 L1,14 L1,69 L-14,69 L-14,13 L0,13 Z " fill="#000000" transform="translate(387,106)"/>
<path d="M0,0 L43,0 L43,14 L55,14 L55,15 L43,15 L43,16 L16,16 L16,70 L0,70 Z " fill="#000000" transform="translate(909,105)"/>
<path d="M0,0 L39,0 L39,39 L0,39 Z " fill="#FFFFFF" transform="translate(608,121)"/>
<path d="M0,0 L39,0 L39,39 L0,39 Z " fill="#FFFFFF" transform="translate(301,121)"/>
<path d="M0,0 L15,0 L15,69 L0,69 Z " fill="#000000" transform="translate(879,106)"/>
<path d="M0,0 L13,0 L13,54 L-1,54 L-1,1 L0,1 Z " fill="#000000" transform="translate(993,120)"/>
<path d="M0,0 L15,0 L15,41 L54,41 L54,42 L15,42 L15,43 L14,43 L14,56 L13,56 L13,42 L0,42 Z " fill="#000000" transform="translate(678,105)"/>
<path d="M0,0 L15,0 L15,16 L0,16 Z " fill="#000000" transform="translate(879,78)"/>
<path d="M0,0 L43,0 L43,14 L42,14 L42,1 L1,1 L1,69 L15,69 L15,15 L41,15 L41,16 L16,16 L16,70 L0,70 Z " fill="#373737" transform="translate(909,105)"/>
<path d="M0,0 L13,0 L13,14 L-1,14 L-1,1 L0,1 Z " fill="#000000" transform="translate(1079,120)"/>
<path d="M0,0 L40,0 L40,14 L39,14 L39,1 L1,1 L1,55 L0,55 Z " fill="#9F9F9F" transform="translate(388,120)"/>
<path d="M0,0 L1,0 L1,16 L-13,16 L-13,29 L-56,29 L-56,15 L-55,15 L-55,28 L-14,28 L-14,15 L0,15 Z " fill="#333333" transform="translate(544,146)"/>
<path d="M0,0 L14,0 L14,13 L55,13 L55,0 L69,0 L69,1 L56,1 L56,14 L13,14 L13,1 L0,1 Z " fill="#0F0F0F" transform="translate(678,188)"/>
<path d="M0,0 L12,0 L12,82 L11,82 L11,1 L0,1 Z " fill="#B3B3B3" transform="translate(811,93)"/>
<path d="M0,0 L14,0 L14,1 L1,1 L1,55 L15,55 L15,56 L0,56 Z " fill="#3B3B3B" transform="translate(373,119)"/>
<path d="M0,0 L1,0 L1,83 L0,83 Z " fill="#ABABAB" transform="translate(592,78)"/>
<path d="M0,0 L1,0 L1,82 L0,82 Z " fill="#9F9F9F" transform="translate(747,106)"/>
<path d="M0,0 L26,0 L26,1 L1,1 L1,55 L0,55 Z " fill="#D3D3D3" transform="translate(965,120)"/>
<path d="M0,0 L26,0 L26,1 L1,1 L1,55 L0,55 Z " fill="#9F9F9F" transform="translate(924,120)"/>
<path d="M0,0 L1,0 L1,26 L-39,26 L-39,12 L-38,12 L-38,25 L0,25 Z " fill="#CBCBCB" transform="translate(256,134)"/>
<path d="M0,0 L39,0 L39,1 L0,1 Z M-1,1 L0,1 L0,40 L-1,40 Z " fill="#7F7F7F" transform="translate(301,120)"/>
<path d="M0,0 L1,0 L1,39 L-38,39 L-38,38 L0,38 Z " fill="#CBCBCB" transform="translate(339,121)"/>
<path d="M0,0 L1,0 L1,13 L42,13 L42,0 L43,0 L43,14 L0,14 Z " fill="#333333" transform="translate(1036,161)"/>
<path d="M0,0 L1,0 L1,13 L42,13 L42,0 L43,0 L43,14 L0,14 Z " fill="#333333" transform="translate(606,161)"/>
<path d="M0,0 L1,0 L1,69 L0,69 Z " fill="#F3F3F3" transform="translate(894,106)"/>
<path d="M0,0 L1,0 L1,69 L0,69 Z " fill="#E3E3E3" transform="translate(878,106)"/>
<path d="M0,0 L43,0 L43,14 L42,14 L42,1 L1,1 L1,14 L0,14 Z " fill="#7F7F7F" transform="translate(1036,105)"/>
<path d="M0,0 L43,0 L43,14 L42,14 L42,1 L1,1 L1,14 L0,14 Z " fill="#575757" transform="translate(809,78)"/>
<path d="M0,0 L1,0 L1,53 L15,53 L15,54 L0,54 Z " fill="#1F1F1F" transform="translate(991,121)"/>
<path d="M0,0 L1,0 L1,53 L15,53 L15,54 L0,54 Z " fill="#2B2B2B" transform="translate(950,121)"/>
<path d="M0,0 L1,0 L1,56 L0,56 Z " fill="#DFDFDF" transform="translate(1006,119)"/>
<path d="M0,0 L43,0 L43,14 L42,14 L42,1 L0,1 Z " fill="#7F7F7F" transform="translate(909,105)"/>
<path d="M0,0 L43,0 L43,1 L1,1 L1,14 L0,14 Z " fill="#575757" transform="translate(215,78)"/>
<path d="M0,0 L15,0 L15,1 L1,1 L1,41 L0,41 Z " fill="#3B3B3B" transform="translate(732,105)"/>
<path d="M0,0 L15,0 L15,41 L14,41 L14,1 L0,1 Z " fill="#373737" transform="translate(678,105)"/>
<path d="M0,0 L1,0 L1,41 L14,41 L14,42 L0,42 Z " fill="#9F9F9F" transform="translate(677,106)"/>
<path d="M0,0 L14,0 L14,41 L13,41 L13,1 L0,1 Z " fill="#C3C3C3" transform="translate(461,120)"/>
<path d="M0,0 L41,0 L41,14 L40,14 L40,1 L0,1 Z " fill="#7F7F7F" transform="translate(608,105)"/>
<path d="M0,0 L40,0 L40,14 L39,14 L39,1 L0,1 Z " fill="#7F7F7F" transform="translate(388,120)"/>
<path d="M0,0 L42,0 L42,1 L0,1 Z " fill="#333333" transform="translate(299,174)"/>
<path d="M0,0 L42,0 L42,1 L0,1 Z " fill="#333333" transform="translate(216,174)"/>
<path d="M0,0 L14,0 L14,29 L13,29 L13,1 L0,1 Z " fill="#3F3F3F" transform="translate(258,132)"/>
<path d="M0,0 L1,0 L1,42 L0,42 Z " fill="#BFBFBF" transform="translate(1022,119)"/>
<path d="M0,0 L1,0 L1,42 L0,42 Z " fill="#939393" transform="translate(662,119)"/>
<path d="M0,0 L1,0 L1,42 L0,42 Z " fill="#E7E7E7" transform="translate(355,119)"/>
<path d="M0,0 L1,0 L1,42 L0,42 Z " fill="#575757" transform="translate(285,119)"/>
<path d="M0,0 L29,0 L29,14 L28,14 L28,1 L0,1 Z " fill="#7F7F7F" transform="translate(964,105)"/>
<path d="M0,0 L42,0 L42,1 L0,1 Z " fill="#7F7F7F" transform="translate(387,105)"/>
<path d="M0,0 L42,0 L42,1 L0,1 Z " fill="#7F7F7F" transform="translate(299,105)"/>
<path d="M0,0 L41,0 L41,1 L0,1 Z " fill="#B3B3B3" transform="translate(691,161)"/>
<path d="M0,0 L41,0 L41,1 L0,1 Z " fill="#7F7F7F" transform="translate(490,120)"/>
<path d="M0,0 L41,0 L41,1 L0,1 Z " fill="#232323" transform="translate(217,119)"/>
<path d="M0,0 L41,0 L41,1 L0,1 Z " fill="#7F7F7F" transform="translate(490,105)"/>
<path d="M0,0 L1,0 L1,28 L-13,28 L-13,27 L0,27 Z " fill="#C3C3C3" transform="translate(474,78)"/>
<path d="M0,0 L15,0 L15,27 L14,27 L14,1 L0,1 Z " fill="#2F2F2F" transform="translate(593,78)"/>
<path d="M0,0 L15,0 L15,27 L14,27 L14,1 L0,1 Z " fill="#3B3B3B" transform="translate(475,78)"/>
<path d="M0,0 L39,0 L39,1 L0,1 Z " fill="#EFEFEF" transform="translate(693,186)"/>
<path d="M0,0 L39,0 L39,1 L0,1 Z " fill="#CBCBCB" transform="translate(1038,159)"/>
<path d="M0,0 L39,0 L39,1 L0,1 Z " fill="#CBCBCB" transform="translate(608,159)"/>
<path d="M0,0 L39,0 L39,1 L0,1 Z " fill="#CBCBCB" transform="translate(490,159)"/>
<path d="M0,0 L39,0 L39,1 L0,1 Z " fill="#232323" transform="translate(693,146)"/>
<path d="M0,0 L1,0 L1,39 L0,39 Z " fill="#1B1B1B" transform="translate(647,121)"/>
<path d="M0,0 L1,0 L1,39 L0,39 Z " fill="#2F2F2F" transform="translate(607,121)"/>
<path d="M0,0 L1,0 L1,39 L0,39 Z " fill="#3B3B3B" transform="translate(489,121)"/>
<path d="M0,0 L39,0 L39,1 L0,1 Z " fill="#7F7F7F" transform="translate(1038,120)"/>
<path d="M0,0 L39,0 L39,1 L0,1 Z " fill="#7F7F7F" transform="translate(608,120)"/>
<path d="M0,0 L39,0 L39,1 L0,1 Z " fill="#7F7F7F" transform="translate(217,93)"/>
<path d="M0,0 L36,0 L36,1 L0,1 Z " fill="#CBCBCB" transform="translate(301,159)"/>
<path d="M0,0 L16,0 L16,1 L1,1 L1,15 L0,15 Z " fill="#9F9F9F" transform="translate(677,173)"/>
<path d="M0,0 L1,0 L1,16 L-13,16 L-13,15 L0,15 Z " fill="#7B7B7B" transform="translate(544,146)"/>
<path d="M0,0 L14,0 L14,15 L13,15 L13,1 L0,1 Z " fill="#030303" transform="translate(429,119)"/>
<path d="M0,0 L14,0 L14,1 L1,1 L1,14 L0,14 Z " fill="#434343" transform="translate(733,188)"/>
<path d="M0,0 L14,0 L14,14 L13,14 L13,1 L0,1 Z " fill="#474747" transform="translate(678,188)"/>
<path d="M0,0 L14,0 L14,14 L13,14 L13,1 L0,1 Z " fill="#A3A3A3" transform="translate(202,161)"/>
<path d="M0,0 L14,0 L14,1 L1,1 L1,14 L0,14 Z " fill="#B3B3B3" transform="translate(341,161)"/>
<path d="M0,0 L27,0 L27,1 L0,1 Z " fill="#5B5B5B" transform="translate(1038,147)"/>
<path d="M0,0 L27,0 L27,1 L0,1 Z " fill="#7F7F7F" transform="translate(1038,132)"/>
<path d="M0,0 L14,0 L14,14 L13,14 L13,1 L0,1 Z " fill="#7F7F7F" transform="translate(202,120)"/>
<path d="M0,0 L1,0 L1,26 L0,26 Z " fill="#3B3B3B" transform="translate(732,161)"/>
<path d="M0,0 L1,0 L1,26 L0,26 Z " fill="#6F6F6F" transform="translate(256,134)"/>
<path d="M0,0 L26,0 L26,1 L0,1 Z " fill="#7F7F7F" transform="translate(965,120)"/>
<path d="M0,0 L26,0 L26,1 L0,1 Z " fill="#7F7F7F" transform="translate(924,120)"/>
<path d="M0,0 L1,0 L1,25 L0,25 Z " fill="#DBDBDB" transform="translate(217,94)"/>
<path d="M0,0 L15,0 L15,1 L0,1 Z " fill="#333333" transform="translate(991,174)"/>
<path d="M0,0 L15,0 L15,1 L0,1 Z " fill="#333333" transform="translate(950,174)"/>
<path d="M0,0 L15,0 L15,1 L0,1 Z " fill="#333333" transform="translate(879,174)"/>
<path d="M0,0 L15,0 L15,1 L0,1 Z " fill="#333333" transform="translate(823,174)"/>
<path d="M0,0 L15,0 L15,1 L0,1 Z " fill="#6F6F6F" transform="translate(678,173)"/>
<path d="M0,0 L1,0 L1,15 L0,15 Z " fill="#7F7F7F" transform="translate(1092,146)"/>
<path d="M0,0 L15,0 L15,1 L0,1 Z " fill="#232323" transform="translate(202,146)"/>
<path d="M0,0 L1,0 L1,15 L0,15 Z " fill="#CFCFCF" transform="translate(1065,133)"/>
<path d="M0,0 L1,0 L1,15 L0,15 Z " fill="#7F7F7F" transform="translate(1092,119)"/>
<path d="M0,0 L15,0 L15,1 L0,1 Z " fill="#7F7F7F" transform="translate(879,105)"/>
<path d="M0,0 L15,0 L15,1 L0,1 Z " fill="#7F7F7F" transform="translate(732,105)"/>
<path d="M0,0 L15,0 L15,1 L0,1 Z " fill="#7F7F7F" transform="translate(678,105)"/>
<path d="M0,0 L15,0 L15,1 L0,1 Z " fill="#7F7F7F" transform="translate(879,93)"/>
<path d="M0,0 L1,0 L1,15 L0,15 Z " fill="#B3B3B3" transform="translate(865,92)"/>
<path d="M0,0 L1,0 L1,15 L0,15 Z " fill="#8B8B8B" transform="translate(795,92)"/>
<path d="M0,0 L1,0 L1,15 L0,15 Z " fill="#3F3F3F" transform="translate(271,92)"/>
<path d="M0,0 L1,0 L1,15 L0,15 Z " fill="#F3F3F3" transform="translate(894,78)"/>
<path d="M0,0 L1,0 L1,15 L0,15 Z " fill="#E3E3E3" transform="translate(878,78)"/>
<path d="M0,0 L15,0 L15,1 L0,1 Z " fill="#575757" transform="translate(879,78)"/>
<path d="M0,0 L15,0 L15,1 L0,1 Z " fill="#575757" transform="translate(593,78)"/>
<path d="M0,0 L15,0 L15,1 L0,1 Z " fill="#575757" transform="translate(475,78)"/>
<path d="M0,0 L14,0 L14,1 L0,1 Z " fill="#333333" transform="translate(910,174)"/>
<path d="M0,0 L14,0 L14,1 L0,1 Z " fill="#333333" transform="translate(374,174)"/>
<path d="M0,0 L1,0 L1,14 L0,14 Z " fill="#4F4F4F" transform="translate(1078,161)"/>
<path d="M0,0 L1,0 L1,14 L0,14 Z " fill="#636363" transform="translate(1036,161)"/>
<path d="M0,0 L1,0 L1,14 L0,14 Z " fill="#636363" transform="translate(648,161)"/>
<path d="M0,0 L1,0 L1,14 L0,14 Z " fill="#4F4F4F" transform="translate(606,161)"/>
<path d="M0,0 L1,0 L1,14 L0,14 Z " fill="#434343" transform="translate(488,161)"/>
<path d="M0,0 L14,0 L14,1 L0,1 Z " fill="#B3B3B3" transform="translate(531,161)"/>
<path d="M0,0 L14,0 L14,1 L0,1 Z " fill="#B3B3B3" transform="translate(285,161)"/>
<path d="M0,0 L14,0 L14,1 L0,1 Z " fill="#B3B3B3" transform="translate(258,161)"/>
<path d="M0,0 L1,0 L1,14 L0,14 Z " fill="#5F5F5F" transform="translate(529,146)"/>
<path d="M0,0 L1,0 L1,14 L0,14 Z " fill="#2F2F2F" transform="translate(1077,146)"/>
<path d="M0,0 L14,0 L14,1 L0,1 Z " fill="#232323" transform="translate(530,146)"/>
<path d="M0,0 L14,0 L14,1 L0,1 Z " fill="#7F7F7F" transform="translate(258,132)"/>
<path d="M0,0 L14,0 L14,1 L0,1 Z " fill="#7F7F7F" transform="translate(461,120)"/>
<path d="M0,0 L14,0 L14,1 L0,1 Z " fill="#232323" transform="translate(429,119)"/>
<path d="M0,0 L14,0 L14,1 L0,1 Z " fill="#232323" transform="translate(341,119)"/>
<path d="M0,0 L1,0 L1,14 L0,14 Z " fill="#1F1F1F" transform="translate(530,106)"/>
<path d="M0,0 L1,0 L1,14 L0,14 Z " fill="#1F1F1F" transform="translate(461,106)"/>
<path d="M0,0 L14,0 L14,1 L0,1 Z " fill="#7F7F7F" transform="translate(461,105)"/>
<path d="M0,0 L1,0 L1,14 L0,14 Z " fill="#7F7F7F" transform="translate(851,78)"/>
<path d="M0,0 L1,0 L1,14 L0,14 Z " fill="#A3A3A3" transform="translate(215,78)"/>
<path d="M0,0 L13,0 L13,1 L0,1 Z " fill="#8F8F8F" transform="translate(734,188)"/>
<path d="M0,0 L13,0 L13,1 L0,1 Z " fill="#8F8F8F" transform="translate(678,188)"/>
<path d="M0,0 L1,0 L1,13 L0,13 Z " fill="#373737" transform="translate(692,174)"/>
<path d="M0,0 L1,0 L1,13 L0,13 Z " fill="#1F1F1F" transform="translate(530,161)"/>
<path d="M0,0 L1,0 L1,13 L0,13 Z " fill="#0F0F0F" transform="translate(257,161)"/>
<path d="M0,0 L13,0 L13,1 L0,1 Z " fill="#DBDBDB" transform="translate(1079,161)"/>
<path d="M0,0 L13,0 L13,1 L0,1 Z " fill="#B3B3B3" transform="translate(1023,161)"/>
<path d="M0,0 L13,0 L13,1 L0,1 Z " fill="#B3B3B3" transform="translate(649,161)"/>
<path d="M0,0 L13,0 L13,1 L0,1 Z " fill="#B3B3B3" transform="translate(593,161)"/>
<path d="M0,0 L13,0 L13,1 L0,1 Z " fill="#B3B3B3" transform="translate(475,161)"/>
<path d="M0,0 L13,0 L13,1 L0,1 Z " fill="#B3B3B3" transform="translate(202,161)"/>
<path d="M0,0 L1,0 L1,13 L0,13 Z " fill="#474747" transform="translate(691,148)"/>
<path d="M0,0 L1,0 L1,13 L0,13 Z " fill="#DBDBDB" transform="translate(217,146)"/>
<path d="M0,0 L13,0 L13,1 L0,1 Z " fill="#5B5B5B" transform="translate(678,147)"/>
<path d="M0,0 L1,0 L1,13 L0,13 Z " fill="#2F2F2F" transform="translate(1077,121)"/>
<path d="M0,0 L1,0 L1,13 L0,13 Z " fill="#AFAFAF" transform="translate(427,121)"/>
<path d="M0,0 L1,0 L1,13 L0,13 Z " fill="#A3A3A3" transform="translate(215,121)"/>
<path d="M0,0 L13,0 L13,1 L0,1 Z " fill="#232323" transform="translate(1079,119)"/>
<path d="M0,0 L13,0 L13,1 L0,1 Z " fill="#232323" transform="translate(1023,119)"/>
<path d="M0,0 L13,0 L13,1 L0,1 Z " fill="#232323" transform="translate(993,119)"/>
<path d="M0,0 L13,0 L13,1 L0,1 Z " fill="#232323" transform="translate(649,119)"/>
<path d="M0,0 L13,0 L13,1 L0,1 Z " fill="#232323" transform="translate(374,119)"/>
<path d="M0,0 L13,0 L13,1 L0,1 Z " fill="#232323" transform="translate(286,119)"/>
<path d="M0,0 L1,0 L1,13 L0,13 Z " fill="#4F4F4F" transform="translate(1078,106)"/>
<path d="M0,0 L1,0 L1,13 L0,13 Z " fill="#636363" transform="translate(1036,106)"/>
<path d="M0,0 L1,0 L1,13 L0,13 Z " fill="#5F5F5F" transform="translate(992,106)"/>
<path d="M0,0 L1,0 L1,13 L0,13 Z " fill="#ABABAB" transform="translate(963,106)"/>
<path d="M0,0 L1,0 L1,13 L0,13 Z " fill="#535353" transform="translate(951,106)"/>
<path d="M0,0 L1,0 L1,13 L0,13 Z " fill="#636363" transform="translate(648,106)"/>
<path d="M0,0 L1,0 L1,13 L0,13 Z " fill="#CFCFCF" transform="translate(429,106)"/>
<path d="M0,0 L1,0 L1,13 L0,13 Z " fill="#DFDFDF" transform="translate(386,106)"/>
<path d="M0,0 L1,0 L1,13 L0,13 Z " fill="#B3B3B3" transform="translate(341,106)"/>
<path d="M0,0 L1,0 L1,13 L0,13 Z " fill="#4B4B4B" transform="translate(810,94)"/>
<path d="M0,0 L1,0 L1,13 L0,13 Z " fill="#6F6F6F" transform="translate(256,94)"/>
<path d="M0,0 L1,0 L1,13 L0,13 Z " fill="#333333" transform="translate(809,79)"/>
<path d="M0,0 L1,0 L1,13 L0,13 Z " fill="#0F0F0F" transform="translate(257,79)"/>
<path d="M0,0 L1,0 L1,12 L0,12 Z " fill="#B3B3B3" transform="translate(341,163)"/>
<path d="M0,0 L1,0 L1,12 L0,12 Z " fill="#1B1B1B" transform="translate(1037,148)"/>
<path d="M0,0 L1,0 L1,12 L0,12 Z " fill="#0F0F0F" transform="translate(257,120)"/>
<path d="M0,0 L12,0 L12,1 L0,1 Z " fill="#232323" transform="translate(952,119)"/>
<path d="M0,0 L12,0 L12,1 L0,1 Z " fill="#7F7F7F" transform="translate(838,93)"/>
<path d="M0,0 L12,0 L12,1 L0,1 Z " fill="#7F7F7F" transform="translate(811,93)"/>
<path d="M0,0 L1,0 L1,11 L0,11 Z " fill="#1B1B1B" transform="translate(1037,121)"/>
<path d="M0,0 L1,0 L1,2 L-2,2 L-2,1 L0,1 Z " fill="#CBCBCB" transform="translate(339,158)"/>
<path d="M0,0 L2,0 L2,1 L1,1 L1,2 L0,2 Z " fill="#B3B3B3" transform="translate(341,161)"/>
<path d="M0,0 L1,0 L1,2 L0,2 Z " fill="#434343" transform="translate(733,188)"/>
<path d="M0,0 L1,0 L1,2 L0,2 Z " fill="#474747" transform="translate(691,188)"/>
<path d="M0,0 L2,0 L2,1 L0,1 Z " fill="#333333" transform="translate(991,174)"/>
<path d="M0,0 L2,0 L2,1 L0,1 Z " fill="#333333" transform="translate(950,174)"/>
<path d="M0,0 L1,0 L1,2 L0,2 Z " fill="#9F9F9F" transform="translate(677,173)"/>
<path d="M0,0 L1,0 L1,2 L0,2 Z " fill="#4F4F4F" transform="translate(1078,161)"/>
<path d="M0,0 L1,0 L1,2 L0,2 Z " fill="#636363" transform="translate(1036,161)"/>
<path d="M0,0 L1,0 L1,2 L0,2 Z " fill="#3B3B3B" transform="translate(732,161)"/>
<path d="M0,0 L1,0 L1,2 L0,2 Z " fill="#636363" transform="translate(648,161)"/>
<path d="M0,0 L1,0 L1,2 L0,2 Z " fill="#4F4F4F" transform="translate(606,161)"/>
<path d="M0,0 L1,0 L1,2 L0,2 Z " fill="#1F1F1F" transform="translate(530,161)"/>
<path d="M0,0 L1,0 L1,2 L0,2 Z " fill="#434343" transform="translate(488,161)"/>
<path d="M0,0 L1,0 L1,2 L0,2 Z " fill="#0F0F0F" transform="translate(257,161)"/>
<path d="M0,0 L1,0 L1,2 L0,2 Z " fill="#A3A3A3" transform="translate(215,161)"/>
<path d="M0,0 L2,0 L2,1 L0,1 Z " fill="#B3B3B3" transform="translate(691,161)"/>
<path d="M0,0 L2,0 L2,1 L0,1 Z " fill="#B3B3B3" transform="translate(285,161)"/>
<path d="M0,0 L2,0 L2,1 L0,1 Z " fill="#CBCBCB" transform="translate(217,159)"/>
<path d="M0,0 L1,0 L1,2 L0,2 Z " fill="#7B7B7B" transform="translate(544,146)"/>
<path d="M0,0 L1,0 L1,2 L0,2 Z " fill="#5F5F5F" transform="translate(529,146)"/>
<path d="M0,0 L1,0 L1,2 L0,2 Z " fill="#DBDBDB" transform="translate(217,146)"/>
<path d="M0,0 L1,0 L1,2 L0,2 Z " fill="#7F7F7F" transform="translate(1092,119)"/>
<path d="M0,0 L1,0 L1,2 L0,2 Z " fill="#BFBFBF" transform="translate(1022,119)"/>
<path d="M0,0 L1,0 L1,2 L0,2 Z " fill="#DFDFDF" transform="translate(1006,119)"/>
<path d="M0,0 L2,0 L2,1 L0,1 Z " fill="#7F7F7F" transform="translate(965,120)"/>
<path d="M0,0 L2,0 L2,1 L0,1 Z " fill="#7F7F7F" transform="translate(924,120)"/>
<path d="M0,0 L1,0 L1,2 L0,2 Z " fill="#939393" transform="translate(662,119)"/>
<path d="M0,0 L2,0 L2,1 L0,1 Z " fill="#7F7F7F" transform="translate(461,120)"/>
<path d="M0,0 L2,0 L2,1 L0,1 Z " fill="#7F7F7F" transform="translate(388,120)"/>
<path d="M0,0 L1,0 L1,2 L0,2 Z " fill="#3B3B3B" transform="translate(373,119)"/>
<path d="M0,0 L1,0 L1,2 L0,2 Z " fill="#E7E7E7" transform="translate(355,119)"/>
<path d="M0,0 L1,0 L1,2 L0,2 Z " fill="#575757" transform="translate(285,119)"/>
<path d="M0,0 L1,0 L1,1 L0,1 Z M1,1 L2,1 L2,2 L1,2 Z " fill="#0D0D0D" transform="translate(1036,119)"/>
<path d="M0,0 L1,0 L1,1 L0,1 Z M-1,1 L0,1 L0,2 L-1,2 Z " fill="#0D0D0D" transform="translate(648,119)"/>
<path d="M0,0 L2,0 L2,1 L0,1 Z " fill="#232323" transform="translate(429,119)"/>
<path d="M0,0 L2,0 L2,1 L0,1 Z " fill="#232323" transform="translate(341,119)"/>
<path d="M0,0 L2,0 L2,1 L0,1 Z " fill="#232323" transform="translate(217,119)"/>
<path d="M0,0 L2,0 L2,1 L0,1 Z " fill="#7F7F7F" transform="translate(1036,105)"/>
<path d="M0,0 L2,0 L2,1 L0,1 Z " fill="#7F7F7F" transform="translate(909,105)"/>
<path d="M0,0 L2,0 L2,1 L0,1 Z " fill="#7F7F7F" transform="translate(732,105)"/>
<path d="M0,0 L2,0 L2,1 L0,1 Z " fill="#7F7F7F" transform="translate(461,105)"/>
<path d="M0,0 L2,0 L2,1 L0,1 Z " fill="#7F7F7F" transform="translate(217,93)"/>
<path d="M0,0 L1,0 L1,2 L0,2 Z " fill="#F3F3F3" transform="translate(894,78)"/>
<path d="M0,0 L1,0 L1,2 L0,2 Z " fill="#E3E3E3" transform="translate(878,78)"/>
<path d="M0,0 L1,0 L1,2 L0,2 Z " fill="#7F7F7F" transform="translate(851,78)"/>
<path d="M0,0 L1,0 L1,2 L0,2 Z " fill="#ABABAB" transform="translate(592,78)"/>
<path d="M0,0 L1,0 L1,2 L0,2 Z " fill="#C3C3C3" transform="translate(474,78)"/>
<path d="M0,0 L1,0 L1,2 L0,2 Z " fill="#A3A3A3" transform="translate(215,78)"/>
<path d="M0,0 L2,0 L2,1 L0,1 Z " fill="#575757" transform="translate(809,78)"/>
<path d="M0,0 L1,0 L1,1 L0,1 Z " fill="#4E4E4E" transform="translate(733,201)"/>
<path d="M0,0 L1,0 L1,1 L0,1 Z " fill="#525252" transform="translate(691,201)"/>
<path d="M0,0 L1,0 L1,1 L0,1 Z " fill="#FFFFFF" transform="translate(734,189)"/>
<path d="M0,0 L1,0 L1,1 L0,1 Z " fill="#D5D5D5" transform="translate(747,188)"/>
<path d="M0,0 L1,0 L1,1 L0,1 Z " fill="#252525" transform="translate(733,188)"/>
<path d="M0,0 L1,0 L1,1 L0,1 Z " fill="#272727" transform="translate(691,188)"/>
<path d="M0,0 L1,0 L1,1 L0,1 Z " fill="#D5D5D5" transform="translate(677,188)"/>
<path d="M0,0 L1,0 L1,1 L0,1 Z " fill="#373737" transform="translate(732,186)"/>
<path d="M0,0 L1,0 L1,1 L0,1 Z " fill="#333333" transform="translate(692,186)"/>
<path d="M0,0 L1,0 L1,1 L0,1 Z " fill="#727272" transform="translate(1078,174)"/>
<path d="M0,0 L1,0 L1,1 L0,1 Z " fill="#828282" transform="translate(1036,174)"/>
<path d="M0,0 L1,0 L1,1 L0,1 Z " fill="#E5E5E5" transform="translate(1006,174)"/>
<path d="M0,0 L1,0 L1,1 L0,1 Z " fill="#4C4C4C" transform="translate(991,174)"/>
<path d="M0,0 L1,0 L1,1 L0,1 Z " fill="#DBDBDB" transform="translate(965,174)"/>
<path d="M0,0 L1,0 L1,1 L0,1 Z " fill="#565656" transform="translate(950,174)"/>
<path d="M0,0 L1,0 L1,1 L0,1 Z " fill="#B2B2B2" transform="translate(924,174)"/>
<path d="M0,0 L1,0 L1,1 L0,1 Z " fill="#5F5F5F" transform="translate(909,174)"/>
<path d="M0,0 L1,0 L1,1 L0,1 Z " fill="#F5F5F5" transform="translate(894,174)"/>
<path d="M0,0 L1,0 L1,1 L0,1 Z " fill="#E8E8E8" transform="translate(878,174)"/>
<path d="M0,0 L1,0 L1,1 L0,1 Z " fill="#C2C2C2" transform="translate(822,174)"/>
<path d="M0,0 L1,0 L1,1 L0,1 Z " fill="#828282" transform="translate(648,174)"/>
<path d="M0,0 L1,0 L1,1 L0,1 Z " fill="#727272" transform="translate(606,174)"/>
<path d="M0,0 L1,0 L1,1 L0,1 Z " fill="#4C4C4C" transform="translate(530,174)"/>
<path d="M0,0 L1,0 L1,1 L0,1 Z " fill="#696969" transform="translate(488,174)"/>
<path d="M0,0 L1,0 L1,1 L0,1 Z " fill="#B2B2B2" transform="translate(388,174)"/>
<path d="M0,0 L1,0 L1,1 L0,1 Z " fill="#626262" transform="translate(373,174)"/>
<path d="M0,0 L1,0 L1,1 L0,1 Z " fill="#C2C2C2" transform="translate(341,174)"/>
<path d="M0,0 L1,0 L1,1 L0,1 Z " fill="#3F3F3F" transform="translate(257,174)"/>
<path d="M0,0 L1,0 L1,1 L0,1 Z " fill="#B5B5B5" transform="translate(215,174)"/>
<path d="M0,0 L1,0 L1,1 L0,1 Z " fill="#8E8E8E" transform="translate(692,173)"/>
<path d="M0,0 L1,0 L1,1 L0,1 Z " fill="#C9C9C9" transform="translate(677,173)"/>
<path d="M0,0 L1,0 L1,1 L0,1 Z " fill="#FFFFFF" transform="translate(1079,162)"/>
<path d="M0,0 L1,0 L1,1 L0,1 Z " fill="#FFFFFF" transform="translate(649,162)"/>
<path d="M0,0 L1,0 L1,1 L0,1 Z " fill="#FFFFFF" transform="translate(531,162)"/>
<path d="M0,0 L1,0 L1,1 L0,1 Z " fill="#FFFFFF" transform="translate(342,162)"/>
<path d="M0,0 L1,0 L1,1 L0,1 Z " fill="#FFFFFF" transform="translate(258,162)"/>
<path d="M0,0 L1,0 L1,1 L0,1 Z " fill="#EDEDED" transform="translate(1092,161)"/>
<path d="M0,0 L1,0 L1,1 L0,1 Z " fill="#434343" transform="translate(1078,161)"/>
<path d="M0,0 L1,0 L1,1 L0,1 Z " fill="#454545" transform="translate(1036,161)"/>
<path d="M0,0 L1,0 L1,1 L0,1 Z " fill="#ECECEC" transform="translate(1022,161)"/>
<path d="M0,0 L1,0 L1,1 L0,1 Z " fill="#292929" transform="translate(732,161)"/>
<path d="M0,0 L1,0 L1,1 L0,1 Z " fill="#C8C8C8" transform="translate(691,161)"/>
<path d="M0,0 L1,0 L1,1 L0,1 Z " fill="#DEDEDE" transform="translate(662,161)"/>
<path d="M0,0 L1,0 L1,1 L0,1 Z " fill="#454545" transform="translate(648,161)"/>
<path d="M0,0 L1,0 L1,1 L0,1 Z " fill="#373737" transform="translate(606,161)"/>
<path d="M0,0 L1,0 L1,1 L0,1 Z " fill="#E6E6E6" transform="translate(592,161)"/>
<path d="M0,0 L1,0 L1,1 L0,1 Z " fill="#D7D7D7" transform="translate(544,161)"/>
<path d="M0,0 L1,0 L1,1 L0,1 Z " fill="#151515" transform="translate(530,161)"/>
<path d="M0,0 L1,0 L1,1 L0,1 Z " fill="#2E2E2E" transform="translate(488,161)"/>
<path d="M0,0 L1,0 L1,1 L0,1 Z " fill="#EDEDED" transform="translate(474,161)"/>
<path d="M0,0 L1,0 L1,1 L0,1 Z " fill="#F7F7F7" transform="translate(355,161)"/>
<path d="M0,0 L1,0 L1,1 L0,1 Z " fill="#7D7D7D" transform="translate(341,161)"/>
<path d="M0,0 L1,0 L1,1 L0,1 Z " fill="#CDCDCD" transform="translate(285,161)"/>
<path d="M0,0 L1,0 L1,1 L0,1 Z " fill="#C6C6C6" transform="translate(271,161)"/>
<path d="M0,0 L1,0 L1,1 L0,1 Z " fill="#0A0A0A" transform="translate(257,161)"/>
<path d="M0,0 L1,0 L1,1 L0,1 Z " fill="#727272" transform="translate(215,161)"/>
<path d="M0,0 L1,0 L1,1 L0,1 Z " fill="#252525" transform="translate(1077,159)"/>
<path d="M0,0 L1,0 L1,1 L0,1 Z " fill="#151515" transform="translate(1037,159)"/>
<path d="M0,0 L1,0 L1,1 L0,1 Z " fill="#151515" transform="translate(647,159)"/>
<path d="M0,0 L1,0 L1,1 L0,1 Z " fill="#252525" transform="translate(607,159)"/>
<path d="M0,0 L1,0 L1,1 L0,1 Z " fill="#4B4B4B" transform="translate(529,159)"/>
<path d="M0,0 L1,0 L1,1 L0,1 Z " fill="#2E2E2E" transform="translate(489,159)"/>
<path d="M0,0 L1,0 L1,1 L0,1 Z " fill="#A1A1A1" transform="translate(339,159)"/>
<path d="M0,0 L1,0 L1,1 L0,1 Z " fill="#656565" transform="translate(300,159)"/>
<path d="M0,0 L1,0 L1,1 L0,1 Z " fill="#585858" transform="translate(256,159)"/>
<path d="M0,0 L1,0 L1,1 L0,1 Z " fill="#AEAEAE" transform="translate(217,159)"/>
<path d="M0,0 L1,0 L1,1 L0,1 Z " fill="#FFFFFF" transform="translate(1038,148)"/>
<path d="M0,0 L1,0 L1,1 L0,1 Z " fill="#E0E0E0" transform="translate(1065,147)"/>
<path d="M0,0 L1,0 L1,1 L0,1 Z " fill="#090909" transform="translate(1037,147)"/>
<path d="M0,0 L1,0 L1,1 L0,1 Z " fill="#181818" transform="translate(691,147)"/>
<path d="M0,0 L1,0 L1,1 L0,1 Z " fill="#C1C1C1" transform="translate(677,147)"/>
<path d="M0,0 L1,0 L1,1 L0,1 Z " fill="#070707" transform="translate(732,146)"/>
<path d="M0,0 L1,0 L1,1 L0,1 Z " fill="#060606" transform="translate(692,146)"/>
<path d="M0,0 L1,0 L1,1 L0,1 Z " fill="#8D8D8D" transform="translate(544,146)"/>
<path d="M0,0 L1,0 L1,1 L0,1 Z " fill="#757575" transform="translate(529,146)"/>
<path d="M0,0 L1,0 L1,1 L0,1 Z " fill="#E0E0E0" transform="translate(217,146)"/>
<path d="M0,0 L1,0 L1,1 L0,1 Z " fill="#E7E7E7" transform="translate(1065,132)"/>
<path d="M0,0 L1,0 L1,1 L0,1 Z " fill="#0D0D0D" transform="translate(1037,132)"/>
<path d="M0,0 L1,0 L1,1 L0,1 Z " fill="#9F9F9F" transform="translate(271,132)"/>
<path d="M0,0 L1,0 L1,1 L0,1 Z " fill="#070707" transform="translate(257,132)"/>
<path d="M0,0 L1,0 L1,1 L0,1 Z " fill="#FFFFFF" transform="translate(1038,121)"/>
<path d="M0,0 L1,0 L1,1 L0,1 Z " fill="#FFFFFF" transform="translate(966,121)"/>
<path d="M0,0 L1,0 L1,1 L0,1 Z " fill="#FFFFFF" transform="translate(925,121)"/>
<path d="M0,0 L1,0 L1,1 L0,1 Z " fill="#FFFFFF" transform="translate(490,121)"/>
<path d="M0,0 L1,0 L1,1 L0,1 Z " fill="#FFFFFF" transform="translate(389,121)"/>
<path d="M0,0 L1,0 L1,1 L0,1 Z " fill="#171717" transform="translate(1077,120)"/>
<path d="M0,0 L1,0 L1,1 L0,1 Z " fill="#0F0F0F" transform="translate(991,120)"/>
<path d="M0,0 L1,0 L1,1 L0,1 Z " fill="#696969" transform="translate(965,120)"/>
<path d="M0,0 L1,0 L1,1 L0,1 Z " fill="#151515" transform="translate(950,120)"/>
<path d="M0,0 L1,0 L1,1 L0,1 Z " fill="#4F4F4F" transform="translate(924,120)"/>
<path d="M0,0 L1,0 L1,1 L0,1 Z " fill="#171717" transform="translate(607,120)"/>
<path d="M0,0 L1,0 L1,1 L0,1 Z " fill="#8F8F8F" transform="translate(530,120)"/>
<path d="M0,0 L1,0 L1,1 L0,1 Z " fill="#1D1D1D" transform="translate(489,120)"/>
<path d="M0,0 L1,0 L1,1 L0,1 Z " fill="#616161" transform="translate(474,120)"/>
<path d="M0,0 L1,0 L1,1 L0,1 Z " fill="#8F8F8F" transform="translate(461,120)"/>
<path d="M0,0 L1,0 L1,1 L0,1 Z " fill="#575757" transform="translate(427,120)"/>
<path d="M0,0 L1,0 L1,1 L0,1 Z " fill="#4F4F4F" transform="translate(388,120)"/>
<path d="M0,0 L1,0 L1,1 L0,1 Z " fill="#656565" transform="translate(339,120)"/>
<path d="M0,0 L1,0 L1,1 L0,1 Z " fill="#3F3F3F" transform="translate(300,120)"/>
<path d="M0,0 L1,0 L1,1 L0,1 Z " fill="#515151" transform="translate(215,120)"/>
<path d="M0,0 L1,0 L1,1 L0,1 Z " fill="#919191" transform="translate(1092,119)"/>
<path d="M0,0 L1,0 L1,1 L0,1 Z " fill="#0A0A0A" transform="translate(1078,119)"/>
<path d="M0,0 L1,0 L1,1 L0,1 Z " fill="#C8C8C8" transform="translate(1022,119)"/>
<path d="M0,0 L1,0 L1,1 L0,1 Z " fill="#E3E3E3" transform="translate(1006,119)"/>
<path d="M0,0 L1,0 L1,1 L0,1 Z " fill="#0C0C0C" transform="translate(992,119)"/>
<path d="M0,0 L1,0 L1,1 L0,1 Z " fill="#171717" transform="translate(963,119)"/>
<path d="M0,0 L1,0 L1,1 L0,1 Z " fill="#0A0A0A" transform="translate(951,119)"/>
<path d="M0,0 L1,0 L1,1 L0,1 Z " fill="#A2A2A2" transform="translate(662,119)"/>
<path d="M0,0 L1,0 L1,1 L0,1 Z " fill="#262626" transform="translate(442,119)"/>
<path d="M0,0 L1,0 L1,1 L0,1 Z " fill="#1C1C1C" transform="translate(429,119)"/>
<path d="M0,0 L1,0 L1,1 L0,1 Z " fill="#1E1E1E" transform="translate(386,119)"/>
<path d="M0,0 L1,0 L1,1 L0,1 Z " fill="#565656" transform="translate(373,119)"/>
<path d="M0,0 L1,0 L1,1 L0,1 Z " fill="#EAEAEA" transform="translate(355,119)"/>
<path d="M0,0 L1,0 L1,1 L0,1 Z " fill="#181818" transform="translate(341,119)"/>
<path d="M0,0 L1,0 L1,1 L0,1 Z " fill="#6E6E6E" transform="translate(285,119)"/>
<path d="M0,0 L1,0 L1,1 L0,1 Z " fill="#303030" transform="translate(257,119)"/>
<path d="M0,0 L1,0 L1,1 L0,1 Z " fill="#1D1D1D" transform="translate(217,119)"/>
<path d="M0,0 L1,0 L1,1 L0,1 Z " fill="#A7A7A7" transform="translate(1078,105)"/>
<path d="M0,0 L1,0 L1,1 L0,1 Z " fill="#B1B1B1" transform="translate(1036,105)"/>
<path d="M0,0 L1,0 L1,1 L0,1 Z " fill="#AFAFAF" transform="translate(992,105)"/>
<path d="M0,0 L1,0 L1,1 L0,1 Z " fill="#D5D5D5" transform="translate(963,105)"/>
<path d="M0,0 L1,0 L1,1 L0,1 Z " fill="#A9A9A9" transform="translate(951,105)"/>
<path d="M0,0 L1,0 L1,1 L0,1 Z " fill="#9B9B9B" transform="translate(909,105)"/>
<path d="M0,0 L1,0 L1,1 L0,1 Z " fill="#F9F9F9" transform="translate(894,105)"/>
<path d="M0,0 L1,0 L1,1 L0,1 Z " fill="#F1F1F1" transform="translate(878,105)"/>
<path d="M0,0 L1,0 L1,1 L0,1 Z " fill="#CFCFCF" transform="translate(747,105)"/>
<path d="M0,0 L1,0 L1,1 L0,1 Z " fill="#9D9D9D" transform="translate(732,105)"/>
<path d="M0,0 L1,0 L1,1 L0,1 Z " fill="#9B9B9B" transform="translate(692,105)"/>
<path d="M0,0 L1,0 L1,1 L0,1 Z " fill="#CFCFCF" transform="translate(677,105)"/>
<path d="M0,0 L1,0 L1,1 L0,1 Z " fill="#B1B1B1" transform="translate(648,105)"/>
<path d="M0,0 L1,0 L1,1 L0,1 Z " fill="#171717" transform="translate(607,105)"/>
<path d="M0,0 L1,0 L1,1 L0,1 Z " fill="#8F8F8F" transform="translate(530,105)"/>
<path d="M0,0 L1,0 L1,1 L0,1 Z " fill="#1D1D1D" transform="translate(489,105)"/>
<path d="M0,0 L1,0 L1,1 L0,1 Z " fill="#616161" transform="translate(474,105)"/>
<path d="M0,0 L1,0 L1,1 L0,1 Z " fill="#8F8F8F" transform="translate(461,105)"/>
<path d="M0,0 L1,0 L1,1 L0,1 Z " fill="#E7E7E7" transform="translate(429,105)"/>
<path d="M0,0 L1,0 L1,1 L0,1 Z " fill="#EFEFEF" transform="translate(386,105)"/>
<path d="M0,0 L1,0 L1,1 L0,1 Z " fill="#D9D9D9" transform="translate(341,105)"/>
<path d="M0,0 L1,0 L1,1 L0,1 Z " fill="#FFFFFF" transform="translate(838,94)"/>
<path d="M0,0 L1,0 L1,1 L0,1 Z " fill="#FFFFFF" transform="translate(811,94)"/>
<path d="M0,0 L1,0 L1,1 L0,1 Z " fill="#FFFFFF" transform="translate(218,94)"/>
<path d="M0,0 L1,0 L1,1 L0,1 Z " fill="#F9F9F9" transform="translate(894,93)"/>
<path d="M0,0 L1,0 L1,1 L0,1 Z " fill="#F1F1F1" transform="translate(878,93)"/>
<path d="M0,0 L1,0 L1,1 L0,1 Z " fill="#595959" transform="translate(822,93)"/>
<path d="M0,0 L1,0 L1,1 L0,1 Z " fill="#252525" transform="translate(810,93)"/>
<path d="M0,0 L1,0 L1,1 L0,1 Z " fill="#373737" transform="translate(256,93)"/>
<path d="M0,0 L1,0 L1,1 L0,1 Z " fill="#6D6D6D" transform="translate(217,93)"/>
<path d="M0,0 L1,0 L1,1 L0,1 Z " fill="#F7F7F7" transform="translate(894,78)"/>
<path d="M0,0 L1,0 L1,1 L0,1 Z " fill="#ECECEC" transform="translate(878,78)"/>
<path d="M0,0 L1,0 L1,1 L0,1 Z " fill="#ABABAB" transform="translate(851,78)"/>
<path d="M0,0 L1,0 L1,1 L0,1 Z " fill="#797979" transform="translate(809,78)"/>
<path d="M0,0 L1,0 L1,1 L0,1 Z " fill="#767676" transform="translate(607,78)"/>
<path d="M0,0 L1,0 L1,1 L0,1 Z " fill="#C7C7C7" transform="translate(592,78)"/>
<path d="M0,0 L1,0 L1,1 L0,1 Z " fill="#7E7E7E" transform="translate(489,78)"/>
<path d="M0,0 L1,0 L1,1 L0,1 Z " fill="#D7D7D7" transform="translate(474,78)"/>
<path d="M0,0 L1,0 L1,1 L0,1 Z " fill="#616161" transform="translate(257,78)"/>
<path d="M0,0 L1,0 L1,1 L0,1 Z " fill="#C2C2C2" transform="translate(215,78)"/>
</svg>
