<?xml version="1.0" encoding="UTF-8"?>
<!-- Generator: visioncortex VTracer 0.6.4 -->
<svg version="1.1" xmlns="http://www.w3.org/2000/svg" width="200" height="100">
<path d="M0,0 L72,0 L72,72 L0,72 Z " fill="#D9D9D9" transform="translate(17,14)"/>
<path d="M0,0 L200,0 L200,100 L0,100 Z M7,7 L7,91 L192,91 L192,7 Z " fill="#CBCBCB" transform="translate(0,0)"/>
<path d="M0,0 L16,0 L16,1 L19,1 L19,2 L22,2 L22,3 L24,3 L24,4 L26,4 L26,5 L27,5 L27,6 L29,6 L29,7 L30,7 L30,8 L31,8 L31,9 L32,9 L32,10 L33,10 L33,11 L34,11 L34,12 L35,12 L35,13 L36,13 L36,14 L37,14 L37,16 L38,16 L38,17 L39,17 L39,19 L40,19 L40,21 L41,21 L41,24 L42,24 L42,27 L43,27 L43,43 L42,43 L42,46 L41,46 L41,49 L40,49 L40,51 L39,51 L39,53 L38,53 L38,54 L37,54 L37,56 L36,56 L36,57 L35,57 L35,58 L34,58 L34,59 L33,59 L33,60 L32,60 L32,61 L31,61 L31,62 L30,62 L30,63 L29,63 L29,64 L27,64 L27,65 L26,65 L26,66 L24,66 L24,67 L22,67 L22,68 L19,68 L19,69 L16,69 L16,70 L0,70 L0,69 L-3,69 L-3,68 L-6,68 L-6,67 L-8,67 L-8,66 L-10,66 L-10,65 L-11,65 L-11,64 L-13,64 L-13,63 L-14,63 L-14,62 L-15,62 L-15,61 L-16,61 L-16,60 L-17,60 L-17,59 L-18,59 L-18,58 L-19,58 L-19,57 L-20,57 L-20,56 L-21,56 L-21,54 L-22,54 L-22,53 L-23,53 L-23,51 L-24,51 L-24,49 L-25,49 L-25,46 L-26,46 L-26,43 L-27,43 L-27,27 L-26,27 L-26,24 L-25,24 L-25,21 L-24,21 L-24,19 L-23,19 L-23,17 L-22,17 L-22,16 L-21,16 L-21,14 L-20,14 L-20,13 L-19,13 L-19,12 L-18,12 L-18,11 L-17,11 L-17,10 L-16,10 L-16,9 L-15,9 L-15,8 L-14,8 L-14,7 L-13,7 L-13,6 L-11,6 L-11,5 L-10,5 L-10,4 L-8,4 L-8,3 L-6,3 L-6,2 L-3,2 L-3,1 L0,1 Z M0,9 L0,10 L-2,10 L-2,11 L-4,11 L-4,12 L-6,12 L-6,13 L-8,13 L-8,14 L-9,14 L-9,15 L-10,15 L-10,16 L-11,16 L-11,17 L-12,17 L-12,18 L-13,18 L-13,19 L-14,19 L-14,21 L-15,21 L-15,23 L-16,23 L-16,25 L-17,25 L-17,27 L-18,27 L-18,43 L-17,43 L-17,45 L-16,45 L-16,47 L-15,47 L-15,49 L-14,49 L-14,51 L-13,51 L-13,52 L-12,52 L-12,53 L-11,53 L-11,54 L-10,54 L-10,55 L-9,55 L-9,56 L-8,56 L-8,57 L-6,57 L-6,58 L-4,58 L-4,59 L-2,59 L-2,60 L1,60 L1,61 L15,61 L15,60 L18,60 L18,59 L20,59 L20,58 L22,58 L22,57 L24,57 L24,56 L25,56 L25,55 L26,55 L26,54 L27,54 L27,53 L28,53 L28,52 L29,52 L29,51 L30,51 L30,49 L31,49 L31,47 L32,47 L32,45 L33,45 L33,42 L34,42 L34,28 L33,28 L33,25 L32,25 L32,23 L31,23 L31,21 L30,21 L30,19 L29,19 L29,18 L28,18 L28,17 L27,17 L27,16 L26,16 L26,15 L25,15 L25,14 L24,14 L24,13 L22,13 L22,12 L20,12 L20,11 L18,11 L18,10 L16,10 L16,9 Z " fill="#5F5F5F" transform="translate(135,14)"/>
<path d="M0,0 L1,0 L1,1 L0,1 Z M12,4 L13,4 L13,5 L12,5 Z M27,4 L28,4 L28,5 L27,5 Z M-10,10 L-9,10 L-9,11 L-10,11 Z " fill="#5E5E5E" opacity="0.99607843" transform="translate(123,19)"/>
<path d="M0,0 L1,0 L1,1 L0,1 Z " fill="#5E5E5E" opacity="0.9882353" transform="translate(109,60)"/>
<path d="M0,0 L1,0 L1,1 L0,1 Z " fill="#5E5E5E" opacity="0.9843137" transform="translate(158,70)"/>
<path d="M0,0 L1,0 L1,1 L0,1 Z M-1,1 L0,1 L0,2 L-1,2 Z M-2,2 L-1,2 L-1,3 L-2,3 Z M-3,3 L-2,3 L-2,4 L-3,4 Z M-4,4 L-3,4 L-3,5 L-4,5 Z M-5,5 L-4,5 L-4,6 L-5,6 Z M-6,6 L-5,6 L-5,7 L-6,7 Z M-7,7 L-6,7 L-6,8 L-7,8 Z M-8,8 L-7,8 L-7,9 L-8,9 Z " fill="#5F5F5F" transform="translate(122,20)"/>
<path d="M0,0 L1,0 L1,2 L0,2 Z " fill="#5E5E5E" opacity="0.9764706" transform="translate(107,48)"/>
<path d="M0,0 L1,0 L1,1 L0,1 Z " fill="#606060" opacity="0.1254902" transform="translate(145,74)"/>
<path d="M0,0 L1,0 L1,1 L0,1 Z " fill="#5F5F5F" opacity="0.07450981" transform="translate(168,50)"/>
<path d="M0,0 L1,0 L1,1 L0,1 Z " fill="#5F5F5F" opacity="0.019607844" transform="translate(117,48)"/>
<path d="M0,0 L1,0 L1,1 L0,1 Z " fill="#5F5F5F" opacity="0.019607844" transform="translate(142,23)"/>
<path d="M0,0 L1,0 L1,1 L0,1 Z " fill="#5E5E5E" opacity="0.9764706" transform="translate(119,22)"/>
<path d="M0,0 L2,0 L2,1 L0,1 Z " fill="#5E5E5E" opacity="0.9764706" transform="translate(142,13)"/>
<path d="M0,0 L1,0 L1,1 L0,1 Z " fill="#5E5E5E" opacity="0.972549" transform="translate(142,84)"/>
<path d="M0,0 L1,0 L1,1 L0,1 Z " fill="#5E5E5E" opacity="0.972549" transform="translate(178,48)"/>
<path d="M0,0 L1,0 L1,1 L0,1 Z " fill="#5E5E5E" opacity="0.9254902" transform="translate(107,47)"/>
<path d="M0,0 L1,0 L1,1 L0,1 Z " fill="#5E5E5E" opacity="0.92156863" transform="translate(134,14)"/>
<path d="M0,0 L1,0 L1,1 L0,1 Z " fill="#5E5E5E" opacity="0.85882354" transform="translate(145,84)"/>
<path d="M0,0 L1,0 L1,1 L0,1 Z M1,1 L2,1 L2,2 L1,2 Z " fill="#5E5E5E" opacity="0.9882353" transform="translate(117,73)"/>
<path d="M0,0 L1,0 L1,1 L0,1 Z " fill="#5E5E5E" opacity="0.85882354" transform="translate(178,51)"/>
<path d="M0,0 L1,0 L1,1 L0,1 Z M1,1 L2,1 L2,2 L1,2 Z " fill="#5E5E5E" opacity="0.9882353" transform="translate(167,23)"/>
<path d="M0,0 L1,0 L1,1 L0,1 Z " fill="#5E5E5E" opacity="0.84705883" transform="translate(160,68)"/>
<path d="M0,0 L1,0 L1,1 L0,1 Z " fill="#5F5F5F" opacity="0.99215686" transform="translate(109,37)"/>
<path d="M0,0 L1,0 L1,1 L0,1 Z " fill="#5E5E5E" opacity="0.6666667" transform="translate(138,84)"/>
<path d="M0,0 L1,0 L1,1 L0,1 Z " fill="#5E5E5E" opacity="0.9137255" transform="translate(134,83)"/>
<path d="M0,0 L1,0 L1,1 L0,1 Z " fill="#5D5D5D" opacity="0.40784314" transform="translate(125,80)"/>
<path d="M0,0 L1,0 L1,1 L0,1 Z " fill="#5A5A5A" opacity="0.12156863" transform="translate(140,74)"/>
<path d="M0,0 L1,0 L1,1 L0,1 Z M-1,1 L0,1 L0,2 L-1,2 Z " fill="#5E5E5E" opacity="0.9882353" transform="translate(168,73)"/>
<path d="M0,0 L1,0 L1,1 L0,1 Z " fill="#5E5E5E" opacity="0.8039216" transform="translate(154,72)"/>
<path d="M0,0 L1,0 L1,1 L0,1 Z " fill="#5F5F5F" opacity="0.4117647" transform="translate(121,63)"/>
<path d="M0,0 L1,0 L1,1 L0,1 Z " fill="#5E5E5E" opacity="0.34901962" transform="translate(165,61)"/>
<path d="M0,0 L1,0 L1,1 L0,1 Z " fill="#5A5A5A" opacity="0.12156863" transform="translate(168,46)"/>
<path d="M0,0 L1,0 L1,1 L0,1 Z " fill="#5B5B5B" opacity="0.10980392" transform="translate(117,46)"/>
<path d="M0,0 L1,0 L1,1 L0,1 Z " fill="#5F5F5F" opacity="0.6627451" transform="translate(178,44)"/>
<path d="M0,0 L1,0 L1,1 L0,1 Z " fill="#5E5E5E" opacity="0.52156866" transform="translate(107,43)"/>
<path d="M0,0 L1,0 L1,1 L0,1 Z " fill="#5E5E5E" opacity="0.9098039" transform="translate(177,40)"/>
<path d="M0,0 L1,0 L1,1 L0,1 Z " fill="#5F5F5F" opacity="0.4" transform="translate(174,31)"/>
<path d="M0,0 L1,0 L1,1 L0,1 Z " fill="#5F5F5F" opacity="0.44313726" transform="translate(111,31)"/>
<path d="M0,0 L1,0 L1,1 L0,1 Z " fill="#5D5D5D" opacity="0.42745098" transform="translate(157,27)"/>
<path d="M0,0 L1,0 L1,1 L0,1 Z " fill="#5F5F5F" opacity="0.7921569" transform="translate(114,27)"/>
<path d="M0,0 L1,0 L1,1 L0,1 Z " fill="#5B5B5B" opacity="0.10980392" transform="translate(140,23)"/>
<path d="M0,0 L1,0 L1,1 L0,1 Z " fill="#5F5F5F" opacity="0.7921569" transform="translate(121,20)"/>
<path d="M0,0 L1,0 L1,1 L0,1 Z " fill="#5E5E5E" opacity="0.81960785" transform="translate(124,18)"/>
<path d="M0,0 L1,0 L1,1 L0,1 Z " fill="#5E5E5E" opacity="0.9254902" transform="translate(141,13)"/>
<path d="M0,0 L1,0 L1,1 L0,1 Z " fill="#5E5E5E" opacity="0.52156866" transform="translate(137,13)"/>
<path d="M0,0 L1,0 L1,1 L0,1 Z " fill="#5E5E5E" opacity="0.38431373" transform="translate(153,83)"/>
<path d="M0,0 L1,0 L1,1 L0,1 Z " fill="#5E5E5E" opacity="0.9254902" transform="translate(120,76)"/>
<path d="M0,0 L1,0 L1,1 L0,1 Z " fill="#5F5F5F" opacity="0.023529412" transform="translate(142,74)"/>
<path d="M0,0 L1,0 L1,1 L0,1 Z " fill="#5F5F5F" opacity="0.96862745" transform="translate(116,72)"/>
<path d="M0,0 L1,0 L1,1 L0,1 Z " fill="#5E5E5E" opacity="0.7647059" transform="translate(114,70)"/>
<path d="M0,0 L1,0 L1,1 L0,1 Z " fill="#5E5E5E" opacity="0.92156863" transform="translate(126,69)"/>
<path d="M0,0 L1,0 L1,1 L0,1 Z " fill="#5F5F5F" opacity="0.7254902" transform="translate(124,67)"/>
<path d="M0,0 L1,0 L1,1 L0,1 Z " fill="#5F5F5F" opacity="0.9372549" transform="translate(163,65)"/>
<path d="M0,0 L1,0 L1,1 L0,1 Z " fill="#5F5F5F" opacity="0.84313726" transform="translate(122,65)"/>
<path d="M0,0 L1,0 L1,1 L0,1 Z " fill="#5E5E5E" opacity="0.38431373" transform="translate(177,59)"/>
<path d="M0,0 L1,0 L1,1 L0,1 Z " fill="#5F5F5F" opacity="0.4117647" transform="translate(108,59)"/>
<path d="M0,0 L1,0 L1,1 L0,1 Z " fill="#5D5D5D" opacity="0.17254902" transform="translate(107,56)"/>
<path d="M0,0 L1,0 L1,1 L0,1 Z " fill="#5F5F5F" opacity="0.4" transform="translate(168,53)"/>
<path d="M0,0 L1,0 L1,1 L0,1 Z " fill="#5E5E5E" opacity="0.84705883" transform="translate(163,32)"/>
<path d="M0,0 L1,0 L1,1 L0,1 Z " fill="#5F5F5F" opacity="0.7254902" transform="translate(161,30)"/>
<path d="M0,0 L1,0 L1,1 L0,1 Z " fill="#5E5E5E" opacity="0.92156863" transform="translate(159,28)"/>
<path d="M0,0 L1,0 L1,1 L0,1 Z " fill="#5E5E5E" opacity="0.9254902" transform="translate(170,26)"/>
<path d="M0,0 L1,0 L1,1 L0,1 Z " fill="#5E5E5E" opacity="0.9764706" transform="translate(116,25)"/>
<path d="M0,0 L1,0 L1,1 L0,1 Z " fill="#5F5F5F" opacity="0.96862745" transform="translate(166,22)"/>
<path d="M0,0 L1,0 L1,1 L0,1 Z " fill="#5E5E5E" opacity="0.77254903" transform="translate(164,20)"/>
<path d="M0,0 L1,0 L1,1 L0,1 Z " fill="#5E5E5E" opacity="0.41568628" transform="translate(153,14)"/>
<path d="M0,0 L1,0 L1,1 L0,1 Z " fill="#606060" opacity="0.1764706" transform="translate(150,13)"/>
<path d="M0,0 L1,0 L1,1 L0,1 Z " fill="#5D5D5D" opacity="0.16078432" transform="translate(150,84)"/>
<path d="M0,0 L1,0 L1,1 L0,1 Z " fill="#5E5E5E" opacity="0.5019608" transform="translate(148,84)"/>
<path d="M0,0 L1,0 L1,1 L0,1 Z " fill="#5F5F5F" opacity="0.8627451" transform="translate(140,84)"/>
<path d="M0,0 L1,0 L1,1 L0,1 Z " fill="#5D5D5D" opacity="0.3529412" transform="translate(136,84)"/>
<path d="M0,0 L1,0 L1,1 L0,1 Z " fill="#5F5F5F" opacity="0.4" transform="translate(132,83)"/>
<path d="M0,0 L1,0 L1,1 L0,1 Z " fill="#5E5E5E" opacity="0.019607844" transform="translate(157,82)"/>
<path d="M0,0 L1,0 L1,1 L0,1 Z " fill="#606060" opacity="0.34509805" transform="translate(129,82)"/>
<path d="M0,0 L1,0 L1,1 L0,1 Z " fill="#5E5E5E" opacity="0.02745098" transform="translate(159,81)"/>
<path d="M0,0 L1,0 L1,1 L0,1 Z " fill="#5E5E5E" opacity="0.43529412" transform="translate(127,81)"/>
<path d="M0,0 L1,0 L1,1 L0,1 Z " fill="#5F5F5F" opacity="0.003921569" transform="translate(161,80)"/>
<path d="M0,0 L1,0 L1,1 L0,1 Z " fill="#5F5F5F" opacity="0.7921569" transform="translate(124,79)"/>
<path d="M0,0 L1,0 L1,1 L0,1 Z " fill="#5F5F5F" opacity="0.5254902" transform="translate(122,78)"/>
<path d="M0,0 L1,0 L1,1 L0,1 Z " fill="#5F5F5F" opacity="0.5803922" transform="translate(148,74)"/>
<path d="M0,0 L1,0 L1,1 L0,1 Z " fill="#5D5D5D" opacity="0.39607844" transform="translate(138,74)"/>
<path d="M0,0 L1,0 L1,1 L0,1 Z " fill="#5E5E5E" opacity="0.45882353" transform="translate(151,73)"/>
<path d="M0,0 L1,0 L1,1 L0,1 Z " fill="#5E5E5E" opacity="0.105882354" transform="translate(135,73)"/>
<path d="M0,0 L1,0 L1,1 L0,1 Z " fill="#5E5E5E" opacity="0.34901962" transform="translate(155,71)"/>
<path d="M0,0 L1,0 L1,1 L0,1 Z " fill="#5F5F5F" opacity="0.003921569" transform="translate(131,71)"/>
<path d="M0,0 L1,0 L1,1 L0,1 Z " fill="#5E5E5E" opacity="0.45882353" transform="translate(157,70)"/>
<path d="M0,0 L1,0 L1,1 L0,1 Z " fill="#5D5D5D" opacity="0.015686275" transform="translate(129,70)"/>
<path d="M0,0 L1,0 L1,1 L0,1 Z " fill="#5E5E5E" opacity="0.93333334" transform="translate(159,69)"/>
<path d="M0,0 L1,0 L1,1 L0,1 Z " fill="#5E5E5E" opacity="0.003921569" transform="translate(174,67)"/>
<path d="M0,0 L1,0 L1,1 L0,1 Z " fill="#5F5F5F" opacity="0.007843138" transform="translate(111,67)"/>
<path d="M0,0 L1,0 L1,1 L0,1 Z M-1,1 L0,1 L0,2 L-1,2 Z " fill="#5E5E5E" opacity="0.0627451" transform="translate(161,66)"/>
<path d="M0,0 L1,0 L1,1 L0,1 Z " fill="#5D5D5D" opacity="0.02745098" transform="translate(175,65)"/>
<path d="M0,0 L1,0 L1,1 L0,1 Z " fill="#5E5E5E" opacity="0.039215688" transform="translate(110,65)"/>
<path d="M0,0 L1,0 L1,1 L0,1 Z " fill="#5D5D5D" opacity="0.019607844" transform="translate(176,63)"/>
<path d="M0,0 L1,0 L1,1 L0,1 Z " fill="#5E5E5E" opacity="0.45882353" transform="translate(164,63)"/>
<path d="M0,0 L1,0 L1,1 L0,1 Z " fill="#5F5F5F" opacity="0.02745098" transform="translate(109,63)"/>
<path d="M0,0 L1,0 L1,1 L0,1 Z " fill="#5E5E5E" opacity="0.8392157" transform="translate(120,62)"/>
<path d="M0,0 L1,0 L1,1 L0,1 Z " fill="#5E5E5E" opacity="0.8039216" transform="translate(166,60)"/>
<path d="M0,0 L1,0 L1,1 L0,1 Z " fill="#5E5E5E" opacity="0.77254903" transform="translate(119,60)"/>
<path d="M0,0 L1,0 L1,1 L0,1 Z " fill="#5E5E5E" opacity="0.45882353" transform="translate(167,57)"/>
<path d="M0,0 L1,0 L1,1 L0,1 Z " fill="#5E5E5E" opacity="0.42352942" transform="translate(118,57)"/>
<path d="M0,0 L1,0 L1,1 L0,1 Z " fill="#5D5D5D" opacity="0.16078432" transform="translate(178,56)"/>
<path d="M0,0 L1,0 L1,1 L0,1 Z " fill="#5E5E5E" opacity="0.8156863" transform="translate(117,55)"/>
<path d="M0,0 L1,0 L1,1 L0,1 Z " fill="#5E5E5E" opacity="0.5019608" transform="translate(178,54)"/>
<path d="M0,0 L1,0 L1,1 L0,1 Z " fill="#5F5F5F" opacity="0.5176471" transform="translate(107,54)"/>
<path d="M0,0 L1,0 L1,1 L0,1 Z " fill="#5E5E5E" opacity="0.38431373" transform="translate(117,53)"/>
<path d="M0,0 L1,0 L1,1 L0,1 Z " fill="#5E5E5E" opacity="0.80784315" transform="translate(107,52)"/>
<path d="M0,0 L1,0 L1,1 L0,1 Z " fill="#5F5F5F" opacity="0.023529412" transform="translate(168,48)"/>
<path d="M0,0 L1,0 L1,1 L0,1 Z " fill="#5F5F5F" opacity="0.8627451" transform="translate(178,46)"/>
<path d="M0,0 L1,0 L1,1 L0,1 Z " fill="#5F5F5F" opacity="0.8117647" transform="translate(107,45)"/>
<path d="M0,0 L1,0 L1,1 L0,1 Z " fill="#5D5D5D" opacity="0.39607844" transform="translate(168,44)"/>
<path d="M0,0 L1,0 L1,1 L0,1 Z " fill="#5F5F5F" opacity="0.38039216" transform="translate(117,44)"/>
<path d="M0,0 L1,0 L1,1 L0,1 Z " fill="#5E5E5E" opacity="0.34901962" transform="translate(178,42)"/>
<path d="M0,0 L1,0 L1,1 L0,1 Z " fill="#626262" opacity="0.101960786" transform="translate(167,41)"/>
<path d="M0,0 L1,0 L1,1 L0,1 Z " fill="#616161" opacity="0.08235294" transform="translate(118,41)"/>
<path d="M0,0 L1,0 L1,1 L0,1 Z " fill="#5E5E5E" opacity="0.18039216" transform="translate(107,41)"/>
<path d="M0,0 L1,0 L1,1 L0,1 Z " fill="#5F5F5F" opacity="0.92941177" transform="translate(108,40)"/>
<path d="M0,0 L1,0 L1,1 L0,1 Z " fill="#5E5E5E" opacity="0.39215687" transform="translate(177,38)"/>
<path d="M0,0 L1,0 L1,1 L0,1 Z " fill="#5E5E5E" opacity="0.42352942" transform="translate(108,38)"/>
<path d="M0,0 L1,0 L1,1 L0,1 Z " fill="#5E5E5E" opacity="0.32941177" transform="translate(176,35)"/>
<path d="M0,0 L1,0 L1,1 L0,1 Z " fill="#5E5E5E" opacity="0.015686275" transform="translate(164,35)"/>
<path d="M0,0 L1,0 L1,1 L0,1 Z " fill="#5D5D5D" opacity="0.007843138" transform="translate(121,35)"/>
<path d="M0,0 L1,0 L1,1 L0,1 Z " fill="#5D5D5D" opacity="0.3764706" transform="translate(109,35)"/>
<path d="M0,0 L1,0 L1,1 L0,1 Z " fill="#5E5E5E" opacity="0.42352942" transform="translate(175,33)"/>
<path d="M0,0 L1,0 L1,1 L0,1 Z " fill="#5E5E5E" opacity="0.46666667" transform="translate(110,33)"/>
<path d="M0,0 L1,0 L1,1 L0,1 Z " fill="#5E5E5E" opacity="0.78431374" transform="translate(173,30)"/>
<path d="M0,0 L1,0 L1,1 L0,1 Z M-1,1 L0,1 L0,2 L-1,2 Z " fill="#5F5F5F" opacity="0.03529412" transform="translate(125,30)"/>
<path d="M0,0 L1,0 L1,1 L0,1 Z " fill="#5E5E5E" opacity="0.8156863" transform="translate(112,30)"/>
<path d="M0,0 L1,0 L1,1 L0,1 Z " fill="#5F5F5F" opacity="0.5176471" transform="translate(172,28)"/>
<path d="M0,0 L1,0 L1,1 L0,1 Z " fill="#5F5F5F" opacity="0.007843138" transform="translate(129,27)"/>
<path d="M0,0 L1,0 L1,1 L0,1 Z " fill="#5F5F5F" opacity="0.84313726" transform="translate(156,26)"/>
<path d="M0,0 L1,0 L1,1 L0,1 Z " fill="#5E5E5E" opacity="0.7764706" transform="translate(154,25)"/>
<path d="M0,0 L1,0 L1,1 L0,1 Z " fill="#5F5F5F" opacity="0.43137255" transform="translate(151,24)"/>
<path d="M0,0 L1,0 L1,1 L0,1 Z " fill="#595959" opacity="0.078431375" transform="translate(135,24)"/>
<path d="M0,0 L1,0 L1,1 L0,1 Z " fill="#5E5E5E" opacity="0.81960785" transform="translate(149,23)"/>
<path d="M0,0 L1,0 L1,1 L0,1 Z " fill="#5E5E5E" opacity="0.38431373" transform="translate(147,23)"/>
<path d="M0,0 L1,0 L1,1 L0,1 Z " fill="#5F5F5F" opacity="0.38039216" transform="translate(138,23)"/>
<path d="M0,0 L1,0 L1,1 L0,1 Z " fill="#5E5E5E" opacity="0.99607843" transform="translate(118,23)"/>
<path d="M0,0 L1,0 L1,1 L0,1 Z " fill="#5E5E5E" opacity="0.9411765" transform="translate(120,21)"/>
<path d="M0,0 L1,0 L1,1 L0,1 Z " fill="#5F5F5F" opacity="0.5568628" transform="translate(122,19)"/>
<path d="M0,0 L1,0 L1,1 L0,1 Z " fill="#5E5E5E" opacity="0.007843138" transform="translate(161,17)"/>
<path d="M0,0 L1,0 L1,1 L0,1 Z " fill="#5F5F5F" opacity="0.44313726" transform="translate(125,17)"/>
<path d="M0,0 L1,0 L1,1 L0,1 Z " fill="#5F5F5F" opacity="0.043137256" transform="translate(159,16)"/>
<path d="M0,0 L1,0 L1,1 L0,1 Z " fill="#5F5F5F" opacity="0.4627451" transform="translate(127,16)"/>
<path d="M0,0 L1,0 L1,1 L0,1 Z " fill="#5E5E5E" opacity="0.03137255" transform="translate(157,15)"/>
<path d="M0,0 L1,0 L1,1 L0,1 Z " fill="#5D5D5D" opacity="0.3647059" transform="translate(129,15)"/>
<path d="M0,0 L1,0 L1,1 L0,1 Z " fill="#5F5F5F" opacity="0.41960785" transform="translate(132,14)"/>
<path d="M0,0 L1,0 L1,1 L0,1 Z " fill="#5F5F5F" opacity="0.5176471" transform="translate(148,13)"/>
<path d="M0,0 L1,0 L1,1 L0,1 Z " fill="#5E5E5E" opacity="0.80784315" transform="translate(146,13)"/>
<path d="M0,0 L1,0 L1,1 L0,1 Z " fill="#5F5F5F" opacity="0.8117647" transform="translate(139,13)"/>
<path d="M0,0 L1,0 L1,1 L0,1 Z " fill="#606060" opacity="0.1764706" transform="translate(135,13)"/>
<path d="M0,0 L1,0 L1,1 L0,1 Z " fill="#606060" opacity="0.34509805" transform="translate(149,84)"/>
<path d="M0,0 L1,0 L1,1 L0,1 Z " fill="#5E5E5E" opacity="0.65882355" transform="translate(147,84)"/>
<path d="M0,0 L1,0 L1,1 L0,1 Z " fill="#5E5E5E" opacity="0.79607844" transform="translate(146,84)"/>
<path d="M0,0 L1,0 L1,1 L0,1 Z " fill="#5F5F5F" opacity="0.91764706" transform="translate(144,84)"/>
<path d="M0,0 L1,0 L1,1 L0,1 Z " fill="#5E5E5E" opacity="0.972549" transform="translate(143,84)"/>
<path d="M0,0 L1,0 L1,1 L0,1 Z " fill="#5F5F5F" opacity="0.91764706" transform="translate(141,84)"/>
<path d="M0,0 L1,0 L1,1 L0,1 Z " fill="#5F5F5F" opacity="0.8" transform="translate(139,84)"/>
<path d="M0,0 L1,0 L1,1 L0,1 Z " fill="#5E5E5E" opacity="0.50980395" transform="translate(137,84)"/>
<path d="M0,0 L1,0 L1,1 L0,1 Z " fill="#5F5F5F" opacity="0.16862746" transform="translate(135,84)"/>
<path d="M0,0 L1,0 L1,1 L0,1 Z " fill="#5E5E5E" opacity="0.07058824" transform="translate(154,83)"/>
<path d="M0,0 L1,0 L1,1 L0,1 Z " fill="#5E5E5E" opacity="0.64705884" transform="translate(152,83)"/>
<path d="M0,0 L1,0 L1,1 L0,1 Z " fill="#5E5E5E" opacity="0.9019608" transform="translate(151,83)"/>
<path d="M0,0 L1,0 L1,1 L0,1 Z " fill="#5E5E5E" opacity="0.65882355" transform="translate(133,83)"/>
<path d="M0,0 L1,0 L1,1 L0,1 Z " fill="#5D5D5D" opacity="0.08627451" transform="translate(131,83)"/>
<path d="M0,0 L1,0 L1,1 L0,1 Z " fill="#5D5D5D" opacity="0.32156864" transform="translate(156,82)"/>
<path d="M0,0 L1,0 L1,1 L0,1 Z " fill="#5F5F5F" opacity="0.6862745" transform="translate(155,82)"/>
<path d="M0,0 L1,0 L1,1 L0,1 Z " fill="#5E5E5E" opacity="0.9764706" transform="translate(154,82)"/>
<path d="M0,0 L1,0 L1,1 L0,1 Z " fill="#5E5E5E" opacity="0.9843137" transform="translate(131,82)"/>
<path d="M0,0 L1,0 L1,1 L0,1 Z " fill="#5E5E5E" opacity="0.70980394" transform="translate(130,82)"/>
<path d="M0,0 L1,0 L1,1 L0,1 Z " fill="#5F5F5F" opacity="0.02745098" transform="translate(128,82)"/>
<path d="M0,0 L1,0 L1,1 L0,1 Z " fill="#5D5D5D" opacity="0.40784314" transform="translate(158,81)"/>
<path d="M0,0 L1,0 L1,1 L0,1 Z " fill="#5E5E5E" opacity="0.8784314" transform="translate(157,81)"/>
<path d="M0,0 L1,0 L1,1 L0,1 Z " fill="#5F5F5F" opacity="0.8980392" transform="translate(128,81)"/>
<path d="M0,0 L1,0 L1,1 L0,1 Z " fill="#5E5E5E" opacity="0.03529412" transform="translate(126,81)"/>
<path d="M0,0 L1,0 L1,1 L0,1 Z " fill="#5E5E5E" opacity="0.38431373" transform="translate(160,80)"/>
<path d="M0,0 L1,0 L1,1 L0,1 Z " fill="#5E5E5E" opacity="0.89411765" transform="translate(159,80)"/>
<path d="M0,0 L1,0 L1,1 L0,1 Z " fill="#5E5E5E" opacity="0.9098039" transform="translate(126,80)"/>
<path d="M0,0 L1,0 L1,1 L0,1 Z " fill="#5F5F5F" opacity="0.007843138" transform="translate(124,80)"/>
<path d="M0,0 L1,0 L1,1 L0,1 Z " fill="#5E5E5E" opacity="0.18039216" transform="translate(162,79)"/>
<path d="M0,0 L1,0 L1,1 L0,1 Z " fill="#5F5F5F" opacity="0.76862746" transform="translate(161,79)"/>
<path d="M0,0 L1,0 L1,1 L0,1 Z " fill="#5C5C5C" opacity="0.19607843" transform="translate(123,79)"/>
<path d="M0,0 L1,0 L1,1 L0,1 Z " fill="#5F5F5F" opacity="0.007843138" transform="translate(164,78)"/>
<path d="M0,0 L1,0 L1,1 L0,1 Z " fill="#5E5E5E" opacity="0.5019608" transform="translate(163,78)"/>
<path d="M0,0 L1,0 L1,1 L0,1 Z " fill="#5E5E5E" opacity="0.9843137" transform="translate(162,78)"/>
<path d="M0,0 L1,0 L1,1 L0,1 Z " fill="#5F5F5F" opacity="0.99215686" transform="translate(123,78)"/>
<path d="M0,0 L1,0 L1,1 L0,1 Z " fill="#5E5E5E" opacity="0.015686275" transform="translate(121,78)"/>
<path d="M0,0 L1,0 L1,1 L0,1 Z " fill="#5C5C5C" opacity="0.09803922" transform="translate(165,77)"/>
<path d="M0,0 L1,0 L1,1 L0,1 Z " fill="#5F5F5F" opacity="0.7490196" transform="translate(164,77)"/>
<path d="M0,0 L1,0 L1,1 L0,1 Z " fill="#5E5E5E" opacity="0.7647059" transform="translate(121,77)"/>
<path d="M0,0 L1,0 L1,1 L0,1 Z " fill="#5B5B5B" opacity="0.10980392" transform="translate(120,77)"/>
<path d="M0,0 L1,0 L1,1 L0,1 Z " fill="#606060" opacity="0.21960784" transform="translate(166,76)"/>
<path d="M0,0 L1,0 L1,1 L0,1 Z " fill="#5F5F5F" opacity="0.91764706" transform="translate(165,76)"/>
<path d="M0,0 L1,0 L1,1 L0,1 Z " fill="#5D5D5D" opacity="0.23529412" transform="translate(119,76)"/>
<path d="M0,0 L1,0 L1,1 L0,1 Z " fill="#5D5D5D" opacity="0.3019608" transform="translate(167,75)"/>
<path d="M0,0 L1,0 L1,1 L0,1 Z " fill="#5F5F5F" opacity="0.9607843" transform="translate(166,75)"/>
<path d="M0,0 L1,0 L1,1 L0,1 Z " fill="#5F5F5F" opacity="0.96862745" transform="translate(119,75)"/>
<path d="M0,0 L1,0 L1,1 L0,1 Z " fill="#5D5D5D" opacity="0.30980393" transform="translate(118,75)"/>
<path d="M0,0 L1,0 L1,1 L0,1 Z " fill="#5E5E5E" opacity="0.37254903" transform="translate(168,74)"/>
<path d="M0,0 L1,0 L1,1 L0,1 Z " fill="#5F5F5F" opacity="0.84313726" transform="translate(149,74)"/>
<path d="M0,0 L1,0 L1,1 L0,1 Z " fill="#5F5F5F" opacity="0.4" transform="translate(147,74)"/>
<path d="M0,0 L1,0 L1,1 L0,1 Z " fill="#606060" opacity="0.2509804" transform="translate(146,74)"/>
<path d="M0,0 L1,0 L1,1 L0,1 Z " fill="#606060" opacity="0.07450981" transform="translate(144,74)"/>
<path d="M0,0 L1,0 L1,1 L0,1 Z " fill="#5F5F5F" opacity="0.023529412" transform="translate(143,74)"/>
<path d="M0,0 L1,0 L1,1 L0,1 Z " fill="#5A5A5A" opacity="0.07450981" transform="translate(141,74)"/>
<path d="M0,0 L1,0 L1,1 L0,1 Z " fill="#606060" opacity="0.2509804" transform="translate(139,74)"/>
<path d="M0,0 L1,0 L1,1 L0,1 Z " fill="#5E5E5E" opacity="0.5764706" transform="translate(137,74)"/>
<path d="M0,0 L1,0 L1,1 L0,1 Z " fill="#5E5E5E" opacity="0.8392157" transform="translate(136,74)"/>
<path d="M0,0 L1,0 L1,1 L0,1 Z " fill="#5D5D5D" opacity="0.3764706" transform="translate(117,74)"/>
<path d="M0,0 L1,0 L1,1 L0,1 Z " fill="#5D5D5D" opacity="0.3019608" transform="translate(169,73)"/>
<path d="M0,0 L1,0 L1,1 L0,1 Z " fill="#5F5F5F" opacity="0.83137256" transform="translate(152,73)"/>
<path d="M0,0 L1,0 L1,1 L0,1 Z " fill="#5B5B5B" opacity="0.10980392" transform="translate(150,73)"/>
<path d="M0,0 L1,0 L1,1 L0,1 Z " fill="#5E5E5E" opacity="0.45882353" transform="translate(134,73)"/>
<path d="M0,0 L1,0 L1,1 L0,1 Z " fill="#5F5F5F" opacity="0.83137256" transform="translate(133,73)"/>
<path d="M0,0 L1,0 L1,1 L0,1 Z " fill="#5D5D5D" opacity="0.30980393" transform="translate(116,73)"/>
<path d="M0,0 L1,0 L1,1 L0,1 Z " fill="#606060" opacity="0.21960784" transform="translate(170,72)"/>
<path d="M0,0 L1,0 L1,1 L0,1 Z " fill="#5F5F5F" opacity="0.9607843" transform="translate(169,72)"/>
<path d="M0,0 L1,0 L1,1 L0,1 Z " fill="#5E5E5E" opacity="0.26666668" transform="translate(153,72)"/>
<path d="M0,0 L1,0 L1,1 L0,1 Z " fill="#5E5E5E" opacity="0.26666668" transform="translate(132,72)"/>
<path d="M0,0 L1,0 L1,1 L0,1 Z " fill="#5E5E5E" opacity="0.79607844" transform="translate(131,72)"/>
<path d="M0,0 L1,0 L1,1 L0,1 Z " fill="#5D5D5D" opacity="0.23529412" transform="translate(115,72)"/>
<path d="M0,0 L1,0 L1,1 L0,1 Z " fill="#5C5C5C" opacity="0.09803922" transform="translate(171,71)"/>
<path d="M0,0 L1,0 L1,1 L0,1 Z " fill="#5F5F5F" opacity="0.91764706" transform="translate(170,71)"/>
<path d="M0,0 L1,0 L1,1 L0,1 Z " fill="#5E5E5E" opacity="0.8666667" transform="translate(156,71)"/>
<path d="M0,0 L1,0 L1,1 L0,1 Z " fill="#5E5E5E" opacity="0.003921569" transform="translate(154,71)"/>
<path d="M0,0 L1,0 L1,1 L0,1 Z " fill="#5F5F5F" opacity="0.3372549" transform="translate(130,71)"/>
<path d="M0,0 L1,0 L1,1 L0,1 Z " fill="#5F5F5F" opacity="0.85490197" transform="translate(129,71)"/>
<path d="M0,0 L1,0 L1,1 L0,1 Z " fill="#5E5E5E" opacity="0.9254902" transform="translate(115,71)"/>
<path d="M0,0 L1,0 L1,1 L0,1 Z " fill="#5B5B5B" opacity="0.10980392" transform="translate(114,71)"/>
<path d="M0,0 L1,0 L1,1 L0,1 Z " fill="#5E5E5E" opacity="0.007843138" transform="translate(172,70)"/>
<path d="M0,0 L1,0 L1,1 L0,1 Z " fill="#5F5F5F" opacity="0.7490196" transform="translate(171,70)"/>
<path d="M0,0 L1,0 L1,1 L0,1 Z " fill="#5E5E5E" opacity="0.019607844" transform="translate(156,70)"/>
<path d="M0,0 L1,0 L1,1 L0,1 Z " fill="#5D5D5D" opacity="0.4392157" transform="translate(128,70)"/>
<path d="M0,0 L1,0 L1,1 L0,1 Z " fill="#5F5F5F" opacity="0.98039216" transform="translate(127,70)"/>
<path d="M0,0 L1,0 L1,1 L0,1 Z " fill="#5F5F5F" opacity="0.015686275" transform="translate(113,70)"/>
<path d="M0,0 L1,0 L1,1 L0,1 Z " fill="#5E5E5E" opacity="0.5019608" transform="translate(172,69)"/>
<path d="M0,0 L1,0 L1,1 L0,1 Z " fill="#5E5E5E" opacity="0.26666668" transform="translate(158,69)"/>
<path d="M0,0 L1,0 L1,1 L0,1 Z " fill="#5E5E5E" opacity="0.24313726" transform="translate(127,69)"/>
<path d="M0,0 L1,0 L1,1 L0,1 Z " fill="#5F5F5F" opacity="0.5254902" transform="translate(113,69)"/>
<path d="M0,0 L1,0 L1,1 L0,1 Z " fill="#5E5E5E" opacity="0.18039216" transform="translate(173,68)"/>
<path d="M0,0 L1,0 L1,1 L0,1 Z " fill="#5E5E5E" opacity="0.9843137" transform="translate(172,68)"/>
<path d="M0,0 L1,0 L1,1 L0,1 Z " fill="#606060" opacity="0.14509805" transform="translate(159,68)"/>
<path d="M0,0 L1,0 L1,1 L0,1 Z " fill="#5A5A5A" opacity="0.13333334" transform="translate(126,68)"/>
<path d="M0,0 L1,0 L1,1 L0,1 Z " fill="#5F5F5F" opacity="0.83137256" transform="translate(125,68)"/>
<path d="M0,0 L1,0 L1,1 L0,1 Z " fill="#5F5F5F" opacity="0.99215686" transform="translate(113,68)"/>
<path d="M0,0 L1,0 L1,1 L0,1 Z " fill="#5D5D5D" opacity="0.20392157" transform="translate(112,68)"/>
<path d="M0,0 L1,0 L1,1 L0,1 Z " fill="#5F5F5F" opacity="0.76862746" transform="translate(173,67)"/>
<path d="M0,0 L1,0 L1,1 L0,1 Z " fill="#5E5E5E" opacity="0.75686276" transform="translate(161,67)"/>
<path d="M0,0 L1,0 L1,1 L0,1 Z " fill="#5F5F5F" opacity="0.050980393" transform="translate(125,67)"/>
<path d="M0,0 L1,0 L1,1 L0,1 Z " fill="#5E5E5E" opacity="0.79607844" transform="translate(112,67)"/>
<path d="M0,0 L1,0 L1,1 L0,1 Z " fill="#5E5E5E" opacity="0.38431373" transform="translate(174,66)"/>
<path d="M0,0 L1,0 L1,1 L0,1 Z " fill="#5E5E5E" opacity="0.8509804" transform="translate(162,66)"/>
<path d="M0,0 L1,0 L1,1 L0,1 Z " fill="#5F5F5F" opacity="0.03529412" transform="translate(124,66)"/>
<path d="M0,0 L1,0 L1,1 L0,1 Z " fill="#5F5F5F" opacity="0.76862746" transform="translate(123,66)"/>
<path d="M0,0 L1,0 L1,1 L0,1 Z " fill="#5F5F5F" opacity="0.41960785" transform="translate(111,66)"/>
<path d="M0,0 L1,0 L1,1 L0,1 Z " fill="#5E5E5E" opacity="0.89411765" transform="translate(174,65)"/>
<path d="M0,0 L1,0 L1,1 L0,1 Z " fill="#5E5E5E" opacity="0.14901961" transform="translate(162,65)"/>
<path d="M0,0 L1,0 L1,1 L0,1 Z " fill="#5F5F5F" opacity="0.0627451" transform="translate(123,65)"/>
<path d="M0,0 L1,0 L1,1 L0,1 Z " fill="#5F5F5F" opacity="0.91764706" transform="translate(111,65)"/>
<path d="M0,0 L1,0 L1,1 L0,1 Z " fill="#5D5D5D" opacity="0.40784314" transform="translate(175,64)"/>
<path d="M0,0 L1,0 L1,1 L0,1 Z " fill="#5E5E5E" opacity="0.9843137" transform="translate(164,64)"/>
<path d="M0,0 L1,0 L1,1 L0,1 Z " fill="#5E5E5E" opacity="0.26666668" transform="translate(163,64)"/>
<path d="M0,0 L1,0 L1,1 L0,1 Z " fill="#5D5D5D" opacity="0.17254902" transform="translate(122,64)"/>
<path d="M0,0 L1,0 L1,1 L0,1 Z " fill="#5F5F5F" opacity="0.9607843" transform="translate(121,64)"/>
<path d="M0,0 L1,0 L1,1 L0,1 Z " fill="#5E5E5E" opacity="0.44705883" transform="translate(110,64)"/>
<path d="M0,0 L1,0 L1,1 L0,1 Z " fill="#5E5E5E" opacity="0.8784314" transform="translate(175,63)"/>
<path d="M0,0 L1,0 L1,1 L0,1 Z " fill="#5E5E5E" opacity="0.9019608" transform="translate(110,63)"/>
<path d="M0,0 L1,0 L1,1 L0,1 Z " fill="#5D5D5D" opacity="0.32156864" transform="translate(176,62)"/>
<path d="M0,0 L1,0 L1,1 L0,1 Z " fill="#5E5E5E" opacity="0.8666667" transform="translate(165,62)"/>
<path d="M0,0 L1,0 L1,1 L0,1 Z " fill="#5E5E5E" opacity="0.023529412" transform="translate(164,62)"/>
<path d="M0,0 L1,0 L1,1 L0,1 Z " fill="#5E5E5E" opacity="0.011764706" transform="translate(121,62)"/>
<path d="M0,0 L1,0 L1,1 L0,1 Z " fill="#5F5F5F" opacity="0.35686275" transform="translate(109,62)"/>
<path d="M0,0 L1,0 L1,1 L0,1 Z " fill="#5F5F5F" opacity="0.6862745" transform="translate(176,61)"/>
<path d="M0,0 L1,0 L1,1 L0,1 Z " fill="#5D5D5D" opacity="0.30980393" transform="translate(120,61)"/>
<path d="M0,0 L1,0 L1,1 L0,1 Z " fill="#5F5F5F" opacity="0.7176471" transform="translate(109,61)"/>
<path d="M0,0 L1,0 L1,1 L0,1 Z " fill="#5E5E5E" opacity="0.07058824" transform="translate(177,60)"/>
<path d="M0,0 L1,0 L1,1 L0,1 Z " fill="#5E5E5E" opacity="0.9764706" transform="translate(176,60)"/>
<path d="M0,0 L1,0 L1,1 L0,1 Z " fill="#5E5E5E" opacity="0.003921569" transform="translate(165,60)"/>
<path d="M0,0 L1,0 L1,1 L0,1 Z " fill="#595959" opacity="0.09019608" transform="translate(108,60)"/>
<path d="M0,0 L1,0 L1,1 L0,1 Z " fill="#5E5E5E" opacity="0.26666668" transform="translate(166,59)"/>
<path d="M0,0 L1,0 L1,1 L0,1 Z " fill="#5F5F5F" opacity="0.23137255" transform="translate(119,59)"/>
<path d="M0,0 L1,0 L1,1 L0,1 Z " fill="#5E5E5E" opacity="0.64705884" transform="translate(177,58)"/>
<path d="M0,0 L1,0 L1,1 L0,1 Z " fill="#5F5F5F" opacity="0.83137256" transform="translate(167,58)"/>
<path d="M0,0 L1,0 L1,1 L0,1 Z " fill="#5E5E5E" opacity="0.79607844" transform="translate(118,58)"/>
<path d="M0,0 L1,0 L1,1 L0,1 Z " fill="#5E5E5E" opacity="0.67058825" transform="translate(108,58)"/>
<path d="M0,0 L1,0 L1,1 L0,1 Z " fill="#5E5E5E" opacity="0.9019608" transform="translate(177,57)"/>
<path d="M0,0 L1,0 L1,1 L0,1 Z " fill="#5F5F5F" opacity="0.91764706" transform="translate(108,57)"/>
<path d="M0,0 L1,0 L1,1 L0,1 Z " fill="#5D5D5D" opacity="0.003921569" transform="translate(107,57)"/>
<path d="M0,0 L1,0 L1,1 L0,1 Z " fill="#5B5B5B" opacity="0.10980392" transform="translate(167,56)"/>
<path d="M0,0 L1,0 L1,1 L0,1 Z " fill="#616161" opacity="0.08235294" transform="translate(118,56)"/>
<path d="M0,0 L1,0 L1,1 L0,1 Z " fill="#5E5E5E" opacity="0.99607843" transform="translate(117,56)"/>
<path d="M0,0 L1,0 L1,1 L0,1 Z " fill="#606060" opacity="0.34509805" transform="translate(178,55)"/>
<path d="M0,0 L1,0 L1,1 L0,1 Z " fill="#5F5F5F" opacity="0.84313726" transform="translate(168,55)"/>
<path d="M0,0 L1,0 L1,1 L0,1 Z " fill="#5E5E5E" opacity="0.36078432" transform="translate(107,55)"/>
<path d="M0,0 L1,0 L1,1 L0,1 Z " fill="#5F5F5F" opacity="0.5803922" transform="translate(168,54)"/>
<path d="M0,0 L1,0 L1,1 L0,1 Z " fill="#5E5E5E" opacity="0.5647059" transform="translate(117,54)"/>
<path d="M0,0 L1,0 L1,1 L0,1 Z " fill="#5E5E5E" opacity="0.65882355" transform="translate(178,53)"/>
<path d="M0,0 L1,0 L1,1 L0,1 Z " fill="#5F5F5F" opacity="0.6745098" transform="translate(107,53)"/>
<path d="M0,0 L1,0 L1,1 L0,1 Z " fill="#5E5E5E" opacity="0.79607844" transform="translate(178,52)"/>
<path d="M0,0 L1,0 L1,1 L0,1 Z " fill="#606060" opacity="0.2509804" transform="translate(168,52)"/>
<path d="M0,0 L1,0 L1,1 L0,1 Z " fill="#5D5D5D" opacity="0.23529412" transform="translate(117,52)"/>
<path d="M0,0 L1,0 L1,1 L0,1 Z " fill="#606060" opacity="0.1254902" transform="translate(168,51)"/>
<path d="M0,0 L1,0 L1,1 L0,1 Z " fill="#5B5B5B" opacity="0.10980392" transform="translate(117,51)"/>
<path d="M0,0 L1,0 L1,1 L0,1 Z " fill="#5E5E5E" opacity="0.87058824" transform="translate(107,51)"/>
<path d="M0,0 L1,0 L1,1 L0,1 Z " fill="#5F5F5F" opacity="0.91764706" transform="translate(178,50)"/>
<path d="M0,0 L1,0 L1,1 L0,1 Z " fill="#5F5F5F" opacity="0.0627451" transform="translate(117,50)"/>
<path d="M0,0 L1,0 L1,1 L0,1 Z " fill="#5E5E5E" opacity="0.9254902" transform="translate(107,50)"/>
<path d="M0,0 L1,0 L1,1 L0,1 Z " fill="#5E5E5E" opacity="0.972549" transform="translate(178,49)"/>
<path d="M0,0 L1,0 L1,1 L0,1 Z " fill="#5F5F5F" opacity="0.023529412" transform="translate(168,49)"/>
<path d="M0,0 L1,0 L1,1 L0,1 Z " fill="#5F5F5F" opacity="0.019607844" transform="translate(117,49)"/>
<path d="M0,0 L1,0 L1,1 L0,1 Z " fill="#5F5F5F" opacity="0.91764706" transform="translate(178,47)"/>
<path d="M0,0 L1,0 L1,1 L0,1 Z " fill="#5A5A5A" opacity="0.07450981" transform="translate(168,47)"/>
<path d="M0,0 L1,0 L1,1 L0,1 Z " fill="#5B5B5B" opacity="0.0627451" transform="translate(117,47)"/>
<path d="M0,0 L1,0 L1,1 L0,1 Z " fill="#5F5F5F" opacity="0.8745098" transform="translate(107,46)"/>
<path d="M0,0 L1,0 L1,1 L0,1 Z " fill="#5F5F5F" opacity="0.8" transform="translate(178,45)"/>
<path d="M0,0 L1,0 L1,1 L0,1 Z " fill="#606060" opacity="0.2509804" transform="translate(168,45)"/>
<path d="M0,0 L1,0 L1,1 L0,1 Z " fill="#5F5F5F" opacity="0.23137255" transform="translate(117,45)"/>
<path d="M0,0 L1,0 L1,1 L0,1 Z " fill="#5E5E5E" opacity="0.6784314" transform="translate(107,44)"/>
<path d="M0,0 L1,0 L1,1 L0,1 Z " fill="#5F5F5F" opacity="0.5058824" transform="translate(178,43)"/>
<path d="M0,0 L1,0 L1,1 L0,1 Z " fill="#5E5E5E" opacity="0.5764706" transform="translate(168,43)"/>
<path d="M0,0 L1,0 L1,1 L0,1 Z " fill="#5E5E5E" opacity="0.56078434" transform="translate(117,43)"/>
<path d="M0,0 L1,0 L1,1 L0,1 Z " fill="#5E5E5E" opacity="0.8392157" transform="translate(168,42)"/>
<path d="M0,0 L1,0 L1,1 L0,1 Z " fill="#5E5E5E" opacity="0.8156863" transform="translate(117,42)"/>
<path d="M0,0 L1,0 L1,1 L0,1 Z " fill="#5D5D5D" opacity="0.3647059" transform="translate(107,42)"/>
<path d="M0,0 L1,0 L1,1 L0,1 Z " fill="#5B5B5B" opacity="0.16470589" transform="translate(178,41)"/>
<path d="M0,0 L1,0 L1,1 L0,1 Z " fill="#5E5E5E" opacity="0.99607843" transform="translate(117,41)"/>
<path d="M0,0 L1,0 L1,1 L0,1 Z " fill="#5E5E5E" opacity="0.44705883" transform="translate(167,40)"/>
<path d="M0,0 L1,0 L1,1 L0,1 Z " fill="#5F5F5F" opacity="0.41960785" transform="translate(118,40)"/>
<path d="M0,0 L1,0 L1,1 L0,1 Z " fill="#5F5F5F" opacity="0.003921569" transform="translate(107,40)"/>
<path d="M0,0 L1,0 L1,1 L0,1 Z " fill="#5F5F5F" opacity="0.654902" transform="translate(177,39)"/>
<path d="M0,0 L1,0 L1,1 L0,1 Z " fill="#5E5E5E" opacity="0.81960785" transform="translate(167,39)"/>
<path d="M0,0 L1,0 L1,1 L0,1 Z " fill="#5F5F5F" opacity="0.7921569" transform="translate(118,39)"/>
<path d="M0,0 L1,0 L1,1 L0,1 Z " fill="#5E5E5E" opacity="0.68235296" transform="translate(108,39)"/>
<path d="M0,0 L1,0 L1,1 L0,1 Z " fill="#606060" opacity="0.2509804" transform="translate(166,38)"/>
<path d="M0,0 L1,0 L1,1 L0,1 Z " fill="#5E5E5E" opacity="0.22352941" transform="translate(119,38)"/>
<path d="M0,0 L1,0 L1,1 L0,1 Z " fill="#595959" opacity="0.078431375" transform="translate(177,37)"/>
<path d="M0,0 L1,0 L1,1 L0,1 Z " fill="#5F5F5F" opacity="0.98039216" transform="translate(176,37)"/>
<path d="M0,0 L1,0 L1,1 L0,1 Z " fill="#5E5E5E" opacity="0.78431374" transform="translate(166,37)"/>
<path d="M0,0 L1,0 L1,1 L0,1 Z " fill="#5F5F5F" opacity="0.7607843" transform="translate(119,37)"/>
<path d="M0,0 L1,0 L1,1 L0,1 Z " fill="#626262" opacity="0.101960786" transform="translate(108,37)"/>
<path d="M0,0 L1,0 L1,1 L0,1 Z " fill="#5E5E5E" opacity="0.69803923" transform="translate(176,36)"/>
<path d="M0,0 L1,0 L1,1 L0,1 Z " fill="#5E5E5E" opacity="0.32941177" transform="translate(165,36)"/>
<path d="M0,0 L1,0 L1,1 L0,1 Z " fill="#5E5E5E" opacity="0.29803923" transform="translate(120,36)"/>
<path d="M0,0 L1,0 L1,1 L0,1 Z " fill="#5F5F5F" opacity="0.7372549" transform="translate(109,36)"/>
<path d="M0,0 L1,0 L1,1 L0,1 Z " fill="#5E5E5E" opacity="0.8509804" transform="translate(165,35)"/>
<path d="M0,0 L1,0 L1,1 L0,1 Z " fill="#5E5E5E" opacity="0.827451" transform="translate(120,35)"/>
<path d="M0,0 L1,0 L1,1 L0,1 Z " fill="#5F5F5F" opacity="0.023529412" transform="translate(176,34)"/>
<path d="M0,0 L1,0 L1,1 L0,1 Z " fill="#5F5F5F" opacity="0.8862745" transform="translate(175,34)"/>
<path d="M0,0 L1,0 L1,1 L0,1 Z " fill="#5E5E5E" opacity="0.42352942" transform="translate(164,34)"/>
<path d="M0,0 L1,0 L1,1 L0,1 Z " fill="#5D5D5D" opacity="0.39607844" transform="translate(121,34)"/>
<path d="M0,0 L1,0 L1,1 L0,1 Z " fill="#5E5E5E" opacity="0.9137255" transform="translate(110,34)"/>
<path d="M0,0 L1,0 L1,1 L0,1 Z " fill="#5E5E5E" opacity="0.039215688" transform="translate(109,34)"/>
<path d="M0,0 L1,0 L1,1 L0,1 Z " fill="#5E5E5E" opacity="0.9647059" transform="translate(164,33)"/>
<path d="M0,0 L1,0 L1,1 L0,1 Z " fill="#606060" opacity="0.1764706" transform="translate(163,33)"/>
<path d="M0,0 L1,0 L1,1 L0,1 Z " fill="#5D5D5D" opacity="0.16078432" transform="translate(122,33)"/>
<path d="M0,0 L1,0 L1,1 L0,1 Z " fill="#5E5E5E" opacity="0.95686275" transform="translate(121,33)"/>
<path d="M0,0 L1,0 L1,1 L0,1 Z " fill="#5F5F5F" opacity="0.03137255" transform="translate(175,32)"/>
<path d="M0,0 L1,0 L1,1 L0,1 Z " fill="#5F5F5F" opacity="0.90588236" transform="translate(174,32)"/>
<path d="M0,0 L1,0 L1,1 L0,1 Z " fill="#5F5F5F" opacity="0.0627451" transform="translate(162,32)"/>
<path d="M0,0 L1,0 L1,1 L0,1 Z " fill="#5F5F5F" opacity="0.05882353" transform="translate(123,32)"/>
<path d="M0,0 L1,0 L1,1 L0,1 Z " fill="#5F5F5F" opacity="0.83137256" transform="translate(122,32)"/>
<path d="M0,0 L1,0 L1,1 L0,1 Z " fill="#5F5F5F" opacity="0.92941177" transform="translate(111,32)"/>
<path d="M0,0 L1,0 L1,1 L0,1 Z " fill="#5F5F5F" opacity="0.047058824" transform="translate(110,32)"/>
<path d="M0,0 L1,0 L1,1 L0,1 Z " fill="#5F5F5F" opacity="0.76862746" transform="translate(162,31)"/>
<path d="M0,0 L1,0 L1,1 L0,1 Z " fill="#5F5F5F" opacity="0.03529412" transform="translate(161,31)"/>
<path d="M0,0 L1,0 L1,1 L0,1 Z " fill="#5F5F5F" opacity="0.7607843" transform="translate(123,31)"/>
<path d="M0,0 L1,0 L1,1 L0,1 Z " fill="#5E5E5E" opacity="0.003921569" transform="translate(174,30)"/>
<path d="M0,0 L1,0 L1,1 L0,1 Z " fill="#5F5F5F" opacity="0.050980393" transform="translate(160,30)"/>
<path d="M0,0 L1,0 L1,1 L0,1 Z " fill="#5F5F5F" opacity="0.7176471" transform="translate(124,30)"/>
<path d="M0,0 L1,0 L1,1 L0,1 Z " fill="#5E5E5E" opacity="0.011764706" transform="translate(111,30)"/>
<path d="M0,0 L1,0 L1,1 L0,1 Z " fill="#5E5E5E" opacity="0.19215687" transform="translate(173,29)"/>
<path d="M0,0 L1,0 L1,1 L0,1 Z " fill="#5E5E5E" opacity="0.9882353" transform="translate(172,29)"/>
<path d="M0,0 L1,0 L1,1 L0,1 Z " fill="#5F5F5F" opacity="0.83137256" transform="translate(160,29)"/>
<path d="M0,0 L1,0 L1,1 L0,1 Z " fill="#5D5D5D" opacity="0.12941177" transform="translate(159,29)"/>
<path d="M0,0 L1,0 L1,1 L0,1 Z " fill="#5E5E5E" opacity="0.05882353" transform="translate(126,29)"/>
<path d="M0,0 L1,0 L1,1 L0,1 Z " fill="#5F5F5F" opacity="0.7607843" transform="translate(125,29)"/>
<path d="M0,0 L1,0 L1,1 L0,1 Z " fill="#5E5E5E" opacity="0.22352941" transform="translate(112,29)"/>
<path d="M0,0 L1,0 L1,1 L0,1 Z " fill="#5E5E5E" opacity="0.24313726" transform="translate(158,28)"/>
<path d="M0,0 L1,0 L1,1 L0,1 Z " fill="#5D5D5D" opacity="0.16078432" transform="translate(127,28)"/>
<path d="M0,0 L1,0 L1,1 L0,1 Z " fill="#5E5E5E" opacity="0.8352941" transform="translate(126,28)"/>
<path d="M0,0 L1,0 L1,1 L0,1 Z " fill="#5F5F5F" opacity="0.5568628" transform="translate(113,28)"/>
<path d="M0,0 L1,0 L1,1 L0,1 Z " fill="#5F5F5F" opacity="0.011764706" transform="translate(172,27)"/>
<path d="M0,0 L1,0 L1,1 L0,1 Z " fill="#5F5F5F" opacity="0.7607843" transform="translate(171,27)"/>
<path d="M0,0 L1,0 L1,1 L0,1 Z " fill="#5F5F5F" opacity="0.98039216" transform="translate(158,27)"/>
<path d="M0,0 L1,0 L1,1 L0,1 Z " fill="#5F5F5F" opacity="0.011764706" transform="translate(156,27)"/>
<path d="M0,0 L1,0 L1,1 L0,1 Z " fill="#5D5D5D" opacity="0.39607844" transform="translate(128,27)"/>
<path d="M0,0 L1,0 L1,1 L0,1 Z " fill="#5E5E5E" opacity="0.95686275" transform="translate(127,27)"/>
<path d="M0,0 L1,0 L1,1 L0,1 Z " fill="#5F5F5F" opacity="0.019607844" transform="translate(113,27)"/>
<path d="M0,0 L1,0 L1,1 L0,1 Z " fill="#5B5B5B" opacity="0.10980392" transform="translate(171,26)"/>
<path d="M0,0 L1,0 L1,1 L0,1 Z " fill="#5E5E5E" opacity="0.31764707" transform="translate(155,26)"/>
<path d="M0,0 L1,0 L1,1 L0,1 Z " fill="#5F5F5F" opacity="0.29411766" transform="translate(130,26)"/>
<path d="M0,0 L1,0 L1,1 L0,1 Z " fill="#5F5F5F" opacity="0.8235294" transform="translate(129,26)"/>
<path d="M0,0 L1,0 L1,1 L0,1 Z " fill="#5E5E5E" opacity="0.9411765" transform="translate(115,26)"/>
<path d="M0,0 L1,0 L1,1 L0,1 Z " fill="#5D5D5D" opacity="0.12941177" transform="translate(114,26)"/>
<path d="M0,0 L1,0 L1,1 L0,1 Z " fill="#5F5F5F" opacity="0.23137255" transform="translate(170,25)"/>
<path d="M0,0 L1,0 L1,1 L0,1 Z " fill="#5E5E5E" opacity="0.9647059" transform="translate(169,25)"/>
<path d="M0,0 L1,0 L1,1 L0,1 Z " fill="#606060" opacity="0.23921569" transform="translate(153,25)"/>
<path d="M0,0 L1,0 L1,1 L0,1 Z " fill="#606060" opacity="0.21960784" transform="translate(132,25)"/>
<path d="M0,0 L1,0 L1,1 L0,1 Z " fill="#5E5E5E" opacity="0.75686276" transform="translate(131,25)"/>
<path d="M0,0 L1,0 L1,1 L0,1 Z " fill="#5F5F5F" opacity="0.2627451" transform="translate(115,25)"/>
<path d="M0,0 L1,0 L1,1 L0,1 Z " fill="#5D5D5D" opacity="0.30980393" transform="translate(169,24)"/>
<path d="M0,0 L1,0 L1,1 L0,1 Z " fill="#5E5E5E" opacity="0.8039216" transform="translate(152,24)"/>
<path d="M0,0 L1,0 L1,1 L0,1 Z " fill="#5D5D5D" opacity="0.08627451" transform="translate(150,24)"/>
<path d="M0,0 L1,0 L1,1 L0,1 Z " fill="#5F5F5F" opacity="0.4117647" transform="translate(134,24)"/>
<path d="M0,0 L1,0 L1,1 L0,1 Z " fill="#5E5E5E" opacity="0.78431374" transform="translate(133,24)"/>
<path d="M0,0 L1,0 L1,1 L0,1 Z " fill="#5F5F5F" opacity="0.99215686" transform="translate(117,24)"/>
<path d="M0,0 L1,0 L1,1 L0,1 Z " fill="#5F5F5F" opacity="0.3372549" transform="translate(116,24)"/>
<path d="M0,0 L1,0 L1,1 L0,1 Z " fill="#5D5D5D" opacity="0.3764706" transform="translate(168,23)"/>
<path d="M0,0 L1,0 L1,1 L0,1 Z " fill="#5E5E5E" opacity="0.5647059" transform="translate(148,23)"/>
<path d="M0,0 L1,0 L1,1 L0,1 Z " fill="#5D5D5D" opacity="0.23529412" transform="translate(146,23)"/>
<path d="M0,0 L1,0 L1,1 L0,1 Z " fill="#5B5B5B" opacity="0.10980392" transform="translate(145,23)"/>
<path d="M0,0 L1,0 L1,1 L0,1 Z " fill="#5F5F5F" opacity="0.0627451" transform="translate(144,23)"/>
<path d="M0,0 L1,0 L1,1 L0,1 Z " fill="#5F5F5F" opacity="0.019607844" transform="translate(143,23)"/>
<path d="M0,0 L1,0 L1,1 L0,1 Z " fill="#5F5F5F" opacity="0.0627451" transform="translate(141,23)"/>
<path d="M0,0 L1,0 L1,1 L0,1 Z " fill="#5F5F5F" opacity="0.23137255" transform="translate(139,23)"/>
<path d="M0,0 L1,0 L1,1 L0,1 Z " fill="#5F5F5F" opacity="0.5568628" transform="translate(137,23)"/>
<path d="M0,0 L1,0 L1,1 L0,1 Z " fill="#5F5F5F" opacity="0.8117647" transform="translate(136,23)"/>
<path d="M0,0 L1,0 L1,1 L0,1 Z " fill="#5E5E5E" opacity="0.40392157" transform="translate(117,23)"/>
<path d="M0,0 L1,0 L1,1 L0,1 Z " fill="#5D5D5D" opacity="0.30980393" transform="translate(167,22)"/>
<path d="M0,0 L1,0 L1,1 L0,1 Z " fill="#5E5E5E" opacity="0.34117648" transform="translate(118,22)"/>
<path d="M0,0 L1,0 L1,1 L0,1 Z " fill="#5D5D5D" opacity="0.23529412" transform="translate(166,21)"/>
<path d="M0,0 L1,0 L1,1 L0,1 Z " fill="#5F5F5F" opacity="0.92941177" transform="translate(165,21)"/>
<path d="M0,0 L1,0 L1,1 L0,1 Z " fill="#5F5F5F" opacity="0.2627451" transform="translate(119,21)"/>
<path d="M0,0 L1,0 L1,1 L0,1 Z " fill="#616161" opacity="0.11372549" transform="translate(165,20)"/>
<path d="M0,0 L1,0 L1,1 L0,1 Z " fill="#5A5A5A" opacity="0.13333334" transform="translate(120,20)"/>
<path d="M0,0 L1,0 L1,1 L0,1 Z " fill="#5E5E5E" opacity="0.015686275" transform="translate(164,19)"/>
<path d="M0,0 L1,0 L1,1 L0,1 Z " fill="#5E5E5E" opacity="0.5294118" transform="translate(163,19)"/>
<path d="M0,0 L1,0 L1,1 L0,1 Z " fill="#5F5F5F" opacity="0.99215686" transform="translate(162,19)"/>
<path d="M0,0 L1,0 L1,1 L0,1 Z " fill="#5F5F5F" opacity="0.023529412" transform="translate(121,19)"/>
<path d="M0,0 L1,0 L1,1 L0,1 Z " fill="#5D5D5D" opacity="0.20392157" transform="translate(162,18)"/>
<path d="M0,0 L1,0 L1,1 L0,1 Z " fill="#5F5F5F" opacity="0.8" transform="translate(161,18)"/>
<path d="M0,0 L1,0 L1,1 L0,1 Z " fill="#5E5E5E" opacity="0.22352941" transform="translate(123,18)"/>
<path d="M0,0 L1,0 L1,1 L0,1 Z " fill="#5E5E5E" opacity="0.42352942" transform="translate(160,17)"/>
<path d="M0,0 L1,0 L1,1 L0,1 Z " fill="#5E5E5E" opacity="0.92156863" transform="translate(159,17)"/>
<path d="M0,0 L1,0 L1,1 L0,1 Z " fill="#5F5F5F" opacity="0.92941177" transform="translate(126,17)"/>
<path d="M0,0 L1,0 L1,1 L0,1 Z " fill="#5F5F5F" opacity="0.011764706" transform="translate(124,17)"/>
<path d="M0,0 L1,0 L1,1 L0,1 Z " fill="#5F5F5F" opacity="0.4509804" transform="translate(158,16)"/>
<path d="M0,0 L1,0 L1,1 L0,1 Z " fill="#5F5F5F" opacity="0.90588236" transform="translate(157,16)"/>
<path d="M0,0 L1,0 L1,1 L0,1 Z " fill="#5E5E5E" opacity="0.9098039" transform="translate(128,16)"/>
<path d="M0,0 L1,0 L1,1 L0,1 Z " fill="#5F5F5F" opacity="0.047058824" transform="translate(126,16)"/>
<path d="M0,0 L1,0 L1,1 L0,1 Z " fill="#5E5E5E" opacity="0.36078432" transform="translate(156,15)"/>
<path d="M0,0 L1,0 L1,1 L0,1 Z " fill="#5F5F5F" opacity="0.7254902" transform="translate(155,15)"/>
<path d="M0,0 L1,0 L1,1 L0,1 Z " fill="#5E5E5E" opacity="0.9882353" transform="translate(154,15)"/>
<path d="M0,0 L1,0 L1,1 L0,1 Z " fill="#5F5F5F" opacity="0.99215686" transform="translate(131,15)"/>
<path d="M0,0 L1,0 L1,1 L0,1 Z " fill="#5E5E5E" opacity="0.7294118" transform="translate(130,15)"/>
<path d="M0,0 L1,0 L1,1 L0,1 Z " fill="#5D5D5D" opacity="0.03529412" transform="translate(128,15)"/>
<path d="M0,0 L1,0 L1,1 L0,1 Z " fill="#606060" opacity="0.09411765" transform="translate(154,14)"/>
<path d="M0,0 L1,0 L1,1 L0,1 Z " fill="#5F5F5F" opacity="0.6745098" transform="translate(152,14)"/>
<path d="M0,0 L1,0 L1,1 L0,1 Z " fill="#5E5E5E" opacity="0.92156863" transform="translate(151,14)"/>
<path d="M0,0 L1,0 L1,1 L0,1 Z " fill="#5E5E5E" opacity="0.6784314" transform="translate(133,14)"/>
<path d="M0,0 L1,0 L1,1 L0,1 Z " fill="#5C5C5C" opacity="0.09803922" transform="translate(131,14)"/>
<path d="M0,0 L1,0 L1,1 L0,1 Z " fill="#606060" opacity="0.003921569" transform="translate(151,13)"/>
<path d="M0,0 L1,0 L1,1 L0,1 Z " fill="#5D5D5D" opacity="0.3647059" transform="translate(149,13)"/>
<path d="M0,0 L1,0 L1,1 L0,1 Z " fill="#5F5F5F" opacity="0.6745098" transform="translate(147,13)"/>
<path d="M0,0 L1,0 L1,1 L0,1 Z " fill="#5E5E5E" opacity="0.87058824" transform="translate(145,13)"/>
<path d="M0,0 L1,0 L1,1 L0,1 Z " fill="#5E5E5E" opacity="0.9254902" transform="translate(144,13)"/>
<path d="M0,0 L1,0 L1,1 L0,1 Z " fill="#5F5F5F" opacity="0.8745098" transform="translate(140,13)"/>
<path d="M0,0 L1,0 L1,1 L0,1 Z " fill="#5E5E5E" opacity="0.6784314" transform="translate(138,13)"/>
<path d="M0,0 L1,0 L1,1 L0,1 Z " fill="#5D5D5D" opacity="0.3647059" transform="translate(136,13)"/>
<path d="M0,0 L1,0 L1,1 L0,1 Z " fill="#606060" opacity="0.003921569" transform="translate(134,13)"/>
</svg>
