<?xml version="1.0" encoding="UTF-8"?>
<!-- Generator: visioncortex VTracer 0.6.4 -->
<svg version="1.1" xmlns="http://www.w3.org/2000/svg" width="600" height="250">
<path d="M0,0 L600,0 L600,250 L0,250 Z " fill="#FFFFFF" transform="translate(0,0)"/>
<path d="M0,0 L43,0 L43,14 L57,14 L57,83 L43,83 L43,97 L30,97 L30,109 L43,109 L43,124 L28,124 L28,110 L14,110 L14,97 L1,97 L1,83 L-13,83 L-13,14 L0,14 Z " fill="#000000" transform="translate(160,78)"/>
<path d="M0,0 L15,0 L15,82 L54,82 L54,0 L70,0 L70,83 L56,83 L56,97 L14,97 L14,83 L0,83 Z " fill="#000000" transform="translate(235,78)"/>
<path d="M0,0 L39,0 L39,1 L40,1 L40,67 L0,67 Z " fill="#FFFFFF" transform="translate(162,93)"/>
<path d="M0,0 L43,0 L43,14 L56,14 L56,29 L41,29 L41,15 L29,15 L29,97 L13,97 L13,16 L2,16 L2,29 L-14,29 L-14,14 L0,14 Z " fill="#000000" transform="translate(397,78)"/>
<path d="M0,0 L42,0 L42,15 L28,15 L28,82 L42,82 L42,97 L0,97 L0,82 L13,82 L13,15 L0,15 Z " fill="#000000" transform="translate(323,78)"/>
<path d="M0,0 L39,0 L39,1 L40,1 L40,67 L0,67 Z M1,1 L1,66 L39,66 L39,1 Z " fill="#DBDBDB" transform="translate(162,93)"/>
<path d="M0,0 L12,0 L12,81 L26,81 L26,1 L27,1 L27,82 L11,82 L11,1 L0,1 Z " fill="#1F1F1F" transform="translate(399,93)"/>
<path d="M0,0 L16,0 L16,83 L15,83 L15,1 L1,1 L1,82 L0,82 Z " fill="#5B5B5B" transform="translate(289,78)"/>
<path d="M0,0 L1,0 L1,81 L39,81 L39,82 L0,82 Z " fill="#F7F7F7" transform="translate(250,78)"/>
<path d="M0,0 L12,0 L12,82 L11,82 L11,1 L0,1 Z " fill="#8F8F8F" transform="translate(399,93)"/>
<path d="M0,0 L1,0 L1,83 L0,83 Z " fill="#E3E3E3" transform="translate(234,78)"/>
<path d="M0,0 L1,0 L1,81 L0,81 Z " fill="#535353" transform="translate(289,79)"/>
<path d="M0,0 L14,0 L14,1 L1,1 L1,67 L0,67 Z " fill="#939393" transform="translate(351,93)"/>
<path d="M0,0 L1,0 L1,69 L0,69 Z " fill="#3F3F3F" transform="translate(216,92)"/>
<path d="M0,0 L1,0 L1,66 L0,66 Z " fill="#6B6B6B" transform="translate(336,94)"/>
<path d="M0,0 L1,0 L1,66 L0,66 Z " fill="#6F6F6F" transform="translate(201,94)"/>
<path d="M0,0 L43,0 L43,14 L42,14 L42,1 L0,1 Z " fill="#575757" transform="translate(397,78)"/>
<path d="M0,0 L43,0 L43,1 L1,1 L1,14 L0,14 Z " fill="#575757" transform="translate(160,78)"/>
<path d="M0,0 L1,0 L1,14 L-41,14 L-41,13 L0,13 Z " fill="#333333" transform="translate(290,161)"/>
<path d="M0,0 L42,0 L42,1 L0,1 Z " fill="#333333" transform="translate(323,174)"/>
<path d="M0,0 L42,0 L42,1 L0,1 Z " fill="#575757" transform="translate(323,78)"/>
<path d="M0,0 L39,0 L39,1 L0,1 Z " fill="#CBCBCB" transform="translate(250,159)"/>
<path d="M0,0 L39,0 L39,1 L0,1 Z " fill="#CBCBCB" transform="translate(162,159)"/>
<path d="M0,0 L39,0 L39,1 L0,1 Z " fill="#7F7F7F" transform="translate(162,93)"/>
<path d="M0,0 L14,0 L14,14 L13,14 L13,1 L0,1 Z " fill="#878787" transform="translate(235,161)"/>
<path d="M0,0 L14,0 L14,14 L13,14 L13,1 L0,1 Z " fill="#A3A3A3" transform="translate(147,161)"/>
<path d="M0,0 L14,0 L14,1 L1,1 L1,13 L0,13 Z " fill="#333333" transform="translate(189,174)"/>
<path d="M0,0 L12,0 L12,14 L11,14 L11,1 L0,1 Z " fill="#DFDFDF" transform="translate(426,93)"/>
<path d="M0,0 L15,0 L15,1 L0,1 Z " fill="#333333" transform="translate(188,201)"/>
<path d="M0,0 L15,0 L15,1 L0,1 Z " fill="#333333" transform="translate(411,174)"/>
<path d="M0,0 L1,0 L1,15 L0,15 Z " fill="#C7C7C7" transform="translate(365,160)"/>
<path d="M0,0 L1,0 L1,15 L0,15 Z " fill="#C3C3C3" transform="translate(322,160)"/>
<path d="M0,0 L1,0 L1,15 L0,15 Z " fill="#D3D3D3" transform="translate(453,92)"/>
<path d="M0,0 L1,0 L1,15 L0,15 Z " fill="#6B6B6B" transform="translate(383,92)"/>
<path d="M0,0 L1,0 L1,15 L0,15 Z " fill="#C7C7C7" transform="translate(365,78)"/>
<path d="M0,0 L1,0 L1,15 L0,15 Z " fill="#C3C3C3" transform="translate(322,78)"/>
<path d="M0,0 L15,0 L15,1 L0,1 Z " fill="#575757" transform="translate(289,78)"/>
<path d="M0,0 L15,0 L15,1 L0,1 Z " fill="#575757" transform="translate(235,78)"/>
<path d="M0,0 L1,0 L1,14 L0,14 Z " fill="#0F0F0F" transform="translate(202,187)"/>
<path d="M0,0 L14,0 L14,1 L0,1 Z " fill="#8F8F8F" transform="translate(174,188)"/>
<path d="M0,0 L14,0 L14,1 L0,1 Z " fill="#B3B3B3" transform="translate(291,161)"/>
<path d="M0,0 L14,0 L14,1 L0,1 Z " fill="#B3B3B3" transform="translate(203,161)"/>
<path d="M0,0 L14,0 L14,1 L0,1 Z " fill="#7F7F7F" transform="translate(351,93)"/>
<path d="M0,0 L1,0 L1,14 L0,14 Z " fill="#9F9F9F" transform="translate(439,78)"/>
<path d="M0,0 L1,0 L1,14 L0,14 Z " fill="#A3A3A3" transform="translate(160,78)"/>
<path d="M0,0 L1,0 L1,13 L0,13 Z " fill="#EFEFEF" transform="translate(187,189)"/>
<path d="M0,0 L13,0 L13,1 L0,1 Z " fill="#EFEFEF" transform="translate(190,186)"/>
<path d="M0,0 L1,0 L1,13 L0,13 Z " fill="#232323" transform="translate(174,175)"/>
<path d="M0,0 L13,0 L13,1 L0,1 Z " fill="#333333" transform="translate(161,174)"/>
<path d="M0,0 L1,0 L1,13 L0,13 Z " fill="#2B2B2B" transform="translate(290,161)"/>
<path d="M0,0 L1,0 L1,13 L0,13 Z " fill="#0F0F0F" transform="translate(202,161)"/>
<path d="M0,0 L13,0 L13,1 L0,1 Z " fill="#B3B3B3" transform="translate(235,161)"/>
<path d="M0,0 L13,0 L13,1 L0,1 Z " fill="#B3B3B3" transform="translate(147,161)"/>
<path d="M0,0 L13,0 L13,1 L0,1 Z " fill="#CBCBCB" transform="translate(352,159)"/>
<path d="M0,0 L13,0 L13,1 L0,1 Z " fill="#CBCBCB" transform="translate(323,159)"/>
<path d="M0,0 L1,0 L1,13 L0,13 Z " fill="#6F6F6F" transform="translate(398,94)"/>
<path d="M0,0 L13,0 L13,1 L0,1 Z " fill="#7F7F7F" transform="translate(323,93)"/>
<path d="M0,0 L1,0 L1,13 L0,13 Z " fill="#0F0F0F" transform="translate(397,79)"/>
<path d="M0,0 L1,0 L1,13 L0,13 Z " fill="#0F0F0F" transform="translate(202,79)"/>
<path d="M0,0 L1,0 L1,12 L0,12 Z " fill="#8F8F8F" transform="translate(189,175)"/>
<path d="M0,0 L12,0 L12,1 L0,1 Z " fill="#7F7F7F" transform="translate(426,93)"/>
<path d="M0,0 L12,0 L12,1 L0,1 Z " fill="#7F7F7F" transform="translate(399,93)"/>
<path d="M0,0 L2,0 L2,1 L0,1 Z " fill="#8F8F8F" transform="translate(174,188)"/>
<path d="M0,0 L2,0 L2,1 L0,1 Z " fill="#333333" transform="translate(189,174)"/>
<path d="M0,0 L1,0 L1,2 L0,2 Z " fill="#2B2B2B" transform="translate(290,161)"/>
<path d="M0,0 L1,0 L1,2 L0,2 Z " fill="#878787" transform="translate(248,161)"/>
<path d="M0,0 L1,0 L1,2 L0,2 Z " fill="#0F0F0F" transform="translate(202,161)"/>
<path d="M0,0 L1,0 L1,2 L0,2 Z " fill="#A3A3A3" transform="translate(160,161)"/>
<path d="M0,0 L2,0 L2,1 L0,1 Z " fill="#CBCBCB" transform="translate(250,159)"/>
<path d="M0,0 L2,0 L2,1 L0,1 Z " fill="#CBCBCB" transform="translate(162,159)"/>
<path d="M0,0 L2,0 L2,1 L0,1 Z " fill="#7F7F7F" transform="translate(351,93)"/>
<path d="M0,0 L2,0 L2,1 L0,1 Z " fill="#7F7F7F" transform="translate(162,93)"/>
<path d="M0,0 L1,0 L1,2 L0,2 Z " fill="#9F9F9F" transform="translate(439,78)"/>
<path d="M0,0 L1,0 L1,2 L0,2 Z " fill="#C7C7C7" transform="translate(365,78)"/>
<path d="M0,0 L1,0 L1,2 L0,2 Z " fill="#C3C3C3" transform="translate(322,78)"/>
<path d="M0,0 L1,0 L1,2 L0,2 Z " fill="#5B5B5B" transform="translate(304,78)"/>
<path d="M0,0 L1,0 L1,2 L0,2 Z " fill="#F7F7F7" transform="translate(250,78)"/>
<path d="M0,0 L1,0 L1,2 L0,2 Z " fill="#E3E3E3" transform="translate(234,78)"/>
<path d="M0,0 L1,0 L1,2 L0,2 Z " fill="#A3A3A3" transform="translate(160,78)"/>
<path d="M0,0 L2,0 L2,1 L0,1 Z " fill="#575757" transform="translate(397,78)"/>
<path d="M0,0 L2,0 L2,1 L0,1 Z " fill="#575757" transform="translate(289,78)"/>
<path d="M0,0 L1,0 L1,1 L0,1 Z " fill="#3F3F3F" transform="translate(202,201)"/>
<path d="M0,0 L1,0 L1,1 L0,1 Z " fill="#F2F2F2" transform="translate(187,201)"/>
<path d="M0,0 L1,0 L1,1 L0,1 Z " fill="#868686" transform="translate(187,188)"/>
<path d="M0,0 L1,0 L1,1 L0,1 Z " fill="#9E9E9E" transform="translate(174,188)"/>
<path d="M0,0 L1,0 L1,1 L0,1 Z " fill="#F0F0F0" transform="translate(202,186)"/>
<path d="M0,0 L1,0 L1,1 L0,1 Z " fill="#868686" transform="translate(189,186)"/>
<path d="M0,0 L1,0 L1,1 L0,1 Z " fill="#FFFFFF" transform="translate(190,175)"/>
<path d="M0,0 L1,0 L1,1 L0,1 Z " fill="#4C4C4C" transform="translate(425,174)"/>
<path d="M0,0 L1,0 L1,1 L0,1 Z " fill="#A5A5A5" transform="translate(410,174)"/>
<path d="M0,0 L1,0 L1,1 L0,1 Z " fill="#D2D2D2" transform="translate(365,174)"/>
<path d="M0,0 L1,0 L1,1 L0,1 Z " fill="#CFCFCF" transform="translate(322,174)"/>
<path d="M0,0 L1,0 L1,1 L0,1 Z " fill="#565656" transform="translate(290,174)"/>
<path d="M0,0 L1,0 L1,1 L0,1 Z " fill="#9F9F9F" transform="translate(248,174)"/>
<path d="M0,0 L1,0 L1,1 L0,1 Z " fill="#3F3F3F" transform="translate(202,174)"/>
<path d="M0,0 L1,0 L1,1 L0,1 Z " fill="#1C1C1C" transform="translate(189,174)"/>
<path d="M0,0 L1,0 L1,1 L0,1 Z " fill="#060606" transform="translate(174,174)"/>
<path d="M0,0 L1,0 L1,1 L0,1 Z " fill="#B5B5B5" transform="translate(160,174)"/>
<path d="M0,0 L1,0 L1,1 L0,1 Z " fill="#FFFFFF" transform="translate(291,162)"/>
<path d="M0,0 L1,0 L1,1 L0,1 Z " fill="#FFFFFF" transform="translate(203,162)"/>
<path d="M0,0 L1,0 L1,1 L0,1 Z " fill="#CECECE" transform="translate(304,161)"/>
<path d="M0,0 L1,0 L1,1 L0,1 Z " fill="#1D1D1D" transform="translate(290,161)"/>
<path d="M0,0 L1,0 L1,1 L0,1 Z " fill="#5E5E5E" transform="translate(248,161)"/>
<path d="M0,0 L1,0 L1,1 L0,1 Z " fill="#F6F6F6" transform="translate(234,161)"/>
<path d="M0,0 L1,0 L1,1 L0,1 Z " fill="#C6C6C6" transform="translate(216,161)"/>
<path d="M0,0 L1,0 L1,1 L0,1 Z " fill="#0A0A0A" transform="translate(202,161)"/>
<path d="M0,0 L1,0 L1,1 L0,1 Z " fill="#727272" transform="translate(160,161)"/>
<path d="M0,0 L1,0 L1,1 L0,1 Z " fill="#F3F3F3" transform="translate(365,159)"/>
<path d="M0,0 L1,0 L1,1 L0,1 Z " fill="#747474" transform="translate(351,159)"/>
<path d="M0,0 L1,0 L1,1 L0,1 Z " fill="#555555" transform="translate(336,159)"/>
<path d="M0,0 L1,0 L1,1 L0,1 Z " fill="#F2F2F2" transform="translate(322,159)"/>
<path d="M0,0 L1,0 L1,1 L0,1 Z " fill="#414141" transform="translate(289,159)"/>
<path d="M0,0 L1,0 L1,1 L0,1 Z " fill="#C4C4C4" transform="translate(250,159)"/>
<path d="M0,0 L1,0 L1,1 L0,1 Z " fill="#585858" transform="translate(201,159)"/>
<path d="M0,0 L1,0 L1,1 L0,1 Z " fill="#AEAEAE" transform="translate(162,159)"/>
<path d="M0,0 L1,0 L1,1 L0,1 Z " fill="#FFFFFF" transform="translate(426,94)"/>
<path d="M0,0 L1,0 L1,1 L0,1 Z " fill="#FFFFFF" transform="translate(399,94)"/>
<path d="M0,0 L1,0 L1,1 L0,1 Z " fill="#FFFFFF" transform="translate(352,94)"/>
<path d="M0,0 L1,0 L1,1 L0,1 Z " fill="#6F6F6F" transform="translate(437,93)"/>
<path d="M0,0 L1,0 L1,1 L0,1 Z " fill="#0F0F0F" transform="translate(425,93)"/>
<path d="M0,0 L1,0 L1,1 L0,1 Z " fill="#474747" transform="translate(410,93)"/>
<path d="M0,0 L1,0 L1,1 L0,1 Z " fill="#373737" transform="translate(398,93)"/>
<path d="M0,0 L1,0 L1,1 L0,1 Z " fill="#E3E3E3" transform="translate(365,93)"/>
<path d="M0,0 L1,0 L1,1 L0,1 Z " fill="#494949" transform="translate(351,93)"/>
<path d="M0,0 L1,0 L1,1 L0,1 Z " fill="#353535" transform="translate(336,93)"/>
<path d="M0,0 L1,0 L1,1 L0,1 Z " fill="#E1E1E1" transform="translate(322,93)"/>
<path d="M0,0 L1,0 L1,1 L0,1 Z " fill="#373737" transform="translate(201,93)"/>
<path d="M0,0 L1,0 L1,1 L0,1 Z " fill="#6D6D6D" transform="translate(162,93)"/>
<path d="M0,0 L1,0 L1,1 L0,1 Z " fill="#C0C0C0" transform="translate(439,78)"/>
<path d="M0,0 L1,0 L1,1 L0,1 Z " fill="#616161" transform="translate(397,78)"/>
<path d="M0,0 L1,0 L1,1 L0,1 Z " fill="#DADADA" transform="translate(365,78)"/>
<path d="M0,0 L1,0 L1,1 L0,1 Z " fill="#D7D7D7" transform="translate(322,78)"/>
<path d="M0,0 L1,0 L1,1 L0,1 Z " fill="#939393" transform="translate(304,78)"/>
<path d="M0,0 L1,0 L1,1 L0,1 Z " fill="#8E8E8E" transform="translate(289,78)"/>
<path d="M0,0 L1,0 L1,1 L0,1 Z " fill="#F9F9F9" transform="translate(250,78)"/>
<path d="M0,0 L1,0 L1,1 L0,1 Z " fill="#ECECEC" transform="translate(234,78)"/>
<path d="M0,0 L1,0 L1,1 L0,1 Z " fill="#616161" transform="translate(202,78)"/>
<path d="M0,0 L1,0 L1,1 L0,1 Z " fill="#C2C2C2" transform="translate(160,78)"/>
</svg>
