<?xml version="1.0" encoding="UTF-8"?>
<!-- Generator: visioncortex VTracer 0.6.4 -->
<svg version="1.1" xmlns="http://www.w3.org/2000/svg" width="600" height="250">
<path d="M0,0 L600,0 L600,250 L0,250 Z " fill="#3D3D3D" transform="translate(0,0)"/>
<path d="M0,0 L43,0 L43,14 L57,14 L57,84 L43,84 L43,97 L0,97 L0,84 L-13,84 L-13,14 L0,14 Z " fill="#FFFFFF" transform="translate(278,78)"/>
<path d="M0,0 L43,0 L43,14 L56,14 L56,56 L43,56 L43,70 L36,70 L36,82 L50,82 L50,97 L35,97 L35,83 L21,83 L21,70 L2,70 L2,97 L-13,97 L-13,14 L0,14 Z " fill="#FFFFFF" transform="translate(366,78)"/>
<path d="M0,0 L43,0 L43,14 L57,14 L57,29 L41,29 L41,16 L2,16 L2,41 L43,41 L43,54 L57,54 L57,83 L43,83 L43,97 L1,97 L1,83 L-13,83 L-13,68 L2,68 L2,82 L42,82 L42,56 L1,56 L1,42 L-13,42 L-13,14 L0,14 Z " fill="#FFFFFF" transform="translate(102,78)"/>
<path d="M0,0 L43,0 L43,14 L57,14 L57,43 L41,43 L41,15 L2,15 L2,82 L41,82 L41,54 L57,54 L57,83 L43,83 L43,97 L1,97 L1,83 L-13,83 L-13,14 L0,14 Z " fill="#FFFFFF" transform="translate(190,78)"/>
<path d="M0,0 L43,0 L43,14 L56,14 L56,29 L41,29 L41,16 L2,16 L2,41 L29,41 L29,56 L2,56 L2,82 L41,82 L41,68 L56,68 L56,84 L43,84 L43,97 L0,97 L0,83 L-13,83 L-13,14 L0,14 Z " fill="#FFFFFF" transform="translate(454,78)"/>
<path d="M0,0 L39,0 L39,66 L0,66 Z " fill="#3D3D3D" transform="translate(280,94)"/>
<path d="M0,0 L39,0 L39,38 L0,38 Z " fill="#3D3D3D" transform="translate(368,94)"/>
<path d="M0,0 L1,0 L1,70 L-13,70 L-13,83 L-56,83 L-56,70 L-69,70 L-69,69 L-55,69 L-55,82 L-14,82 L-14,69 L0,69 Z " fill="#A1A1A1" transform="translate(334,92)"/>
<path d="M0,0 L39,0 L39,1 L1,1 L1,66 L39,66 L39,67 L0,67 Z " fill="#434343" transform="translate(192,93)"/>
<path d="M0,0 L1,0 L1,83 L0,83 Z " fill="#7C7C7C" transform="translate(352,92)"/>
<path d="M0,0 L1,0 L1,13 L42,13 L42,0 L56,0 L56,1 L43,1 L43,14 L0,14 Z " fill="#D8D8D8" transform="translate(454,161)"/>
<path d="M0,0 L14,0 L14,13 L55,13 L55,0 L56,0 L56,14 L13,14 L13,1 L0,1 Z " fill="#D8D8D8" transform="translate(265,161)"/>
<path d="M0,0 L1,0 L1,26 L-39,26 L-39,12 L-38,12 L-38,25 L0,25 Z " fill="#646464" transform="translate(143,134)"/>
<path d="M0,0 L16,0 L16,29 L15,29 L15,1 L1,1 L1,28 L0,28 Z " fill="#B9B9B9" transform="translate(231,132)"/>
<path d="M0,0 L1,0 L1,29 L-15,29 L-15,2 L-14,2 L-14,28 L0,28 Z " fill="#B9B9B9" transform="translate(246,92)"/>
<path d="M0,0 L1,0 L1,69 L0,69 Z " fill="#929292" transform="translate(440,92)"/>
<path d="M0,0 L1,0 L1,69 L0,69 Z " fill="#6A6A6A" transform="translate(264,92)"/>
<path d="M0,0 L1,0 L1,69 L0,69 Z " fill="#525252" transform="translate(176,92)"/>
<path d="M0,0 L43,0 L43,14 L42,14 L42,1 L1,1 L1,14 L0,14 Z " fill="#BCBCBC" transform="translate(454,78)"/>
<path d="M0,0 L43,0 L43,14 L42,14 L42,1 L1,1 L1,14 L0,14 Z " fill="#BCBCBC" transform="translate(366,78)"/>
<path d="M0,0 L43,0 L43,14 L42,14 L42,1 L1,1 L1,14 L0,14 Z " fill="#BCBCBC" transform="translate(278,78)"/>
<path d="M0,0 L1,0 L1,66 L0,66 Z " fill="#D5D5D5" transform="translate(319,94)"/>
<path d="M0,0 L1,0 L1,66 L0,66 Z " fill="#F0F0F0" transform="translate(279,94)"/>
<path d="M0,0 L43,0 L43,1 L1,1 L1,14 L0,14 Z " fill="#BCBCBC" transform="translate(190,78)"/>
<path d="M0,0 L43,0 L43,1 L1,1 L1,14 L0,14 Z " fill="#BCBCBC" transform="translate(102,78)"/>
<path d="M0,0 L1,0 L1,14 L-41,14 L-41,13 L0,13 Z " fill="#D8D8D8" transform="translate(232,161)"/>
<path d="M0,0 L42,0 L42,1 L0,1 Z " fill="#D8D8D8" transform="translate(103,174)"/>
<path d="M0,0 L14,0 L14,29 L13,29 L13,1 L0,1 Z " fill="#CFCFCF" transform="translate(145,132)"/>
<path d="M0,0 L1,0 L1,42 L0,42 Z " fill="#8F8F8F" transform="translate(422,92)"/>
<path d="M0,0 L1,0 L1,27 L-14,27 L-14,26 L0,26 Z " fill="#DBDBDB" transform="translate(367,148)"/>
<path d="M0,0 L41,0 L41,1 L0,1 Z " fill="#E4E4E4" transform="translate(104,119)"/>
<path d="M0,0 L39,0 L39,1 L0,1 Z " fill="#646464" transform="translate(456,159)"/>
<path d="M0,0 L39,0 L39,1 L0,1 Z " fill="#646464" transform="translate(280,159)"/>
<path d="M0,0 L39,0 L39,1 L0,1 Z " fill="#646464" transform="translate(192,159)"/>
<path d="M0,0 L39,0 L39,1 L0,1 Z " fill="#9E9E9E" transform="translate(368,132)"/>
<path d="M0,0 L39,0 L39,1 L0,1 Z " fill="#9E9E9E" transform="translate(456,93)"/>
<path d="M0,0 L39,0 L39,1 L0,1 Z " fill="#9E9E9E" transform="translate(368,93)"/>
<path d="M0,0 L39,0 L39,1 L0,1 Z " fill="#9E9E9E" transform="translate(280,93)"/>
<path d="M0,0 L39,0 L39,1 L0,1 Z " fill="#9E9E9E" transform="translate(192,93)"/>
<path d="M0,0 L39,0 L39,1 L0,1 Z " fill="#9E9E9E" transform="translate(104,93)"/>
<path d="M0,0 L1,0 L1,38 L0,38 Z " fill="#EAEAEA" transform="translate(407,94)"/>
<path d="M0,0 L1,0 L1,38 L0,38 Z " fill="#DBDBDB" transform="translate(367,94)"/>
<path d="M0,0 L14,0 L14,1 L1,1 L1,14 L0,14 Z " fill="#9E9E9E" transform="translate(496,161)"/>
<path d="M0,0 L14,0 L14,14 L13,14 L13,1 L0,1 Z " fill="#9B9B9B" transform="translate(387,161)"/>
<path d="M0,0 L14,0 L14,14 L13,14 L13,1 L0,1 Z " fill="#ADADAD" transform="translate(265,161)"/>
<path d="M0,0 L14,0 L14,14 L13,14 L13,1 L0,1 Z " fill="#989898" transform="translate(177,161)"/>
<path d="M0,0 L14,0 L14,14 L13,14 L13,1 L0,1 Z " fill="#838383" transform="translate(89,161)"/>
<path d="M0,0 L1,0 L1,27 L0,27 Z " fill="#C0C0C0" transform="translate(231,133)"/>
<path d="M0,0 L14,0 L14,14 L13,14 L13,1 L0,1 Z " fill="#9E9E9E" transform="translate(89,120)"/>
<path d="M0,0 L27,0 L27,1 L0,1 Z " fill="#E4E4E4" transform="translate(456,119)"/>
<path d="M0,0 L1,0 L1,26 L0,26 Z " fill="#C6C6C6" transform="translate(455,134)"/>
<path d="M0,0 L1,0 L1,26 L0,26 Z " fill="#AAAAAA" transform="translate(143,134)"/>
<path d="M0,0 L1,0 L1,26 L0,26 Z " fill="#C0C0C0" transform="translate(231,94)"/>
<path d="M0,0 L1,0 L1,25 L0,25 Z " fill="#C6C6C6" transform="translate(455,94)"/>
<path d="M0,0 L1,0 L1,25 L0,25 Z " fill="#585858" transform="translate(104,94)"/>
<path d="M0,0 L1,0 L1,14 L-6,14 L-6,13 L0,13 Z " fill="#B3B3B3" transform="translate(408,134)"/>
<path d="M0,0 L19,0 L19,1 L0,1 Z " fill="#B9B9B9" transform="translate(368,147)"/>
<path d="M0,0 L16,0 L16,1 L0,1 Z " fill="#9E9E9E" transform="translate(231,132)"/>
<path d="M0,0 L16,0 L16,1 L0,1 Z " fill="#9E9E9E" transform="translate(231,120)"/>
<path d="M0,0 L15,0 L15,1 L0,1 Z " fill="#D8D8D8" transform="translate(353,174)"/>
<path d="M0,0 L1,0 L1,15 L0,15 Z " fill="#A1A1A1" transform="translate(415,160)"/>
<path d="M0,0 L1,0 L1,15 L0,15 Z " fill="#797979" transform="translate(510,146)"/>
<path d="M0,0 L15,0 L15,1 L0,1 Z " fill="#E4E4E4" transform="translate(495,146)"/>
<path d="M0,0 L15,0 L15,1 L0,1 Z " fill="#E4E4E4" transform="translate(89,146)"/>
<path d="M0,0 L1,0 L1,15 L0,15 Z " fill="#797979" transform="translate(510,92)"/>
<path d="M0,0 L1,0 L1,15 L0,15 Z " fill="#CFCFCF" transform="translate(158,92)"/>
<path d="M0,0 L14,0 L14,1 L0,1 Z " fill="#D8D8D8" transform="translate(401,174)"/>
<path d="M0,0 L1,0 L1,14 L0,14 Z " fill="#C9C9C9" transform="translate(320,161)"/>
<path d="M0,0 L14,0 L14,1 L0,1 Z " fill="#767676" transform="translate(321,161)"/>
<path d="M0,0 L14,0 L14,1 L0,1 Z " fill="#767676" transform="translate(233,161)"/>
<path d="M0,0 L14,0 L14,1 L0,1 Z " fill="#767676" transform="translate(145,161)"/>
<path d="M0,0 L14,0 L14,1 L0,1 Z " fill="#646464" transform="translate(402,159)"/>
<path d="M0,0 L14,0 L14,1 L0,1 Z " fill="#9E9E9E" transform="translate(145,132)"/>
<path d="M0,0 L1,0 L1,14 L0,14 Z " fill="#9E9E9E" transform="translate(496,78)"/>
<path d="M0,0 L1,0 L1,14 L0,14 Z " fill="#B3B3B3" transform="translate(408,78)"/>
<path d="M0,0 L1,0 L1,14 L0,14 Z " fill="#ADADAD" transform="translate(278,78)"/>
<path d="M0,0 L1,0 L1,14 L0,14 Z " fill="#989898" transform="translate(190,78)"/>
<path d="M0,0 L1,0 L1,14 L0,14 Z " fill="#838383" transform="translate(102,78)"/>
<path d="M0,0 L1,0 L1,13 L0,13 Z " fill="#DEDEDE" transform="translate(232,161)"/>
<path d="M0,0 L1,0 L1,13 L0,13 Z " fill="#F3F3F3" transform="translate(144,161)"/>
<path d="M0,0 L13,0 L13,1 L0,1 Z " fill="#767676" transform="translate(497,161)"/>
<path d="M0,0 L13,0 L13,1 L0,1 Z " fill="#767676" transform="translate(441,161)"/>
<path d="M0,0 L13,0 L13,1 L0,1 Z " fill="#767676" transform="translate(387,161)"/>
<path d="M0,0 L13,0 L13,1 L0,1 Z " fill="#767676" transform="translate(265,161)"/>
<path d="M0,0 L13,0 L13,1 L0,1 Z " fill="#767676" transform="translate(177,161)"/>
<path d="M0,0 L13,0 L13,1 L0,1 Z " fill="#767676" transform="translate(89,161)"/>
<path d="M0,0 L1,0 L1,13 L0,13 Z " fill="#737373" transform="translate(386,148)"/>
<path d="M0,0 L1,0 L1,13 L0,13 Z " fill="#585858" transform="translate(104,146)"/>
<path d="M0,0 L1,0 L1,13 L0,13 Z " fill="#838383" transform="translate(102,121)"/>
<path d="M0,0 L1,0 L1,13 L0,13 Z " fill="#AAAAAA" transform="translate(143,94)"/>
<path d="M0,0 L1,0 L1,13 L0,13 Z " fill="#D8D8D8" transform="translate(454,79)"/>
<path d="M0,0 L1,0 L1,13 L0,13 Z " fill="#C3C3C3" transform="translate(366,79)"/>
<path d="M0,0 L1,0 L1,13 L0,13 Z " fill="#C9C9C9" transform="translate(320,79)"/>
<path d="M0,0 L1,0 L1,13 L0,13 Z " fill="#DEDEDE" transform="translate(232,79)"/>
<path d="M0,0 L1,0 L1,13 L0,13 Z " fill="#F3F3F3" transform="translate(144,79)"/>
<path d="M0,0 L1,0 L1,12 L0,12 Z " fill="#D8D8D8" transform="translate(454,161)"/>
<path d="M0,0 L1,0 L1,12 L0,12 Z " fill="#F3F3F3" transform="translate(144,120)"/>
<path d="M0,0 L1,0 L1,11 L0,11 Z " fill="#404040" transform="translate(402,148)"/>
<path d="M0,0 L6,0 L6,1 L0,1 Z " fill="#B9B9B9" transform="translate(402,147)"/>
<path d="M0,0 L1,0 L1,1 L2,1 L2,2 L0,2 Z " fill="#D8D8D8" transform="translate(454,173)"/>
<path d="M0,0 L1,0 L1,2 L0,2 Z " fill="#9E9E9E" transform="translate(496,161)"/>
<path d="M0,0 L1,0 L1,2 L0,2 Z " fill="#D8D8D8" transform="translate(454,161)"/>
<path d="M0,0 L1,0 L1,2 L0,2 Z " fill="#9B9B9B" transform="translate(400,161)"/>
<path d="M0,0 L1,0 L1,2 L0,2 Z " fill="#C9C9C9" transform="translate(320,161)"/>
<path d="M0,0 L1,0 L1,2 L0,2 Z " fill="#ADADAD" transform="translate(278,161)"/>
<path d="M0,0 L1,0 L1,2 L0,2 Z " fill="#DEDEDE" transform="translate(232,161)"/>
<path d="M0,0 L1,0 L1,2 L0,2 Z " fill="#989898" transform="translate(190,161)"/>
<path d="M0,0 L1,0 L1,2 L0,2 Z " fill="#F3F3F3" transform="translate(144,161)"/>
<path d="M0,0 L1,0 L1,2 L0,2 Z " fill="#838383" transform="translate(102,161)"/>
<path d="M0,0 L2,0 L2,1 L0,1 Z " fill="#646464" transform="translate(402,159)"/>
<path d="M0,0 L2,0 L2,1 L0,1 Z " fill="#646464" transform="translate(192,159)"/>
<path d="M0,0 L2,0 L2,1 L0,1 Z " fill="#646464" transform="translate(104,159)"/>
<path d="M0,0 L1,0 L1,2 L0,2 Z " fill="#797979" transform="translate(510,146)"/>
<path d="M0,0 L2,0 L2,1 L0,1 Z " fill="#B9B9B9" transform="translate(402,147)"/>
<path d="M0,0 L1,0 L1,2 L0,2 Z " fill="#585858" transform="translate(104,146)"/>
<path d="M0,0 L2,0 L2,1 L0,1 Z " fill="#9E9E9E" transform="translate(231,132)"/>
<path d="M0,0 L2,0 L2,1 L0,1 Z " fill="#9E9E9E" transform="translate(231,120)"/>
<path d="M0,0 L2,0 L2,1 L0,1 Z " fill="#E4E4E4" transform="translate(104,119)"/>
<path d="M0,0 L2,0 L2,1 L0,1 Z " fill="#9E9E9E" transform="translate(192,93)"/>
<path d="M0,0 L2,0 L2,1 L0,1 Z " fill="#9E9E9E" transform="translate(104,93)"/>
<path d="M0,0 L1,0 L1,2 L0,2 Z " fill="#9E9E9E" transform="translate(496,78)"/>
<path d="M0,0 L1,0 L1,2 L0,2 Z " fill="#B3B3B3" transform="translate(408,78)"/>
<path d="M0,0 L1,0 L1,2 L0,2 Z " fill="#ADADAD" transform="translate(278,78)"/>
<path d="M0,0 L1,0 L1,2 L0,2 Z " fill="#989898" transform="translate(190,78)"/>
<path d="M0,0 L1,0 L1,2 L0,2 Z " fill="#838383" transform="translate(102,78)"/>
<path d="M0,0 L2,0 L2,1 L0,1 Z " fill="#BCBCBC" transform="translate(454,78)"/>
<path d="M0,0 L2,0 L2,1 L0,1 Z " fill="#BCBCBC" transform="translate(366,78)"/>
<path d="M0,0 L1,0 L1,1 L0,1 Z " fill="#8A8A8A" transform="translate(496,174)"/>
<path d="M0,0 L1,0 L1,1 L0,1 Z " fill="#B9B9B9" transform="translate(454,174)"/>
<path d="M0,0 L1,0 L1,1 L0,1 Z " fill="#8D8D8D" transform="translate(415,174)"/>
<path d="M0,0 L1,0 L1,1 L0,1 Z " fill="#888888" transform="translate(400,174)"/>
<path d="M0,0 L1,0 L1,1 L0,1 Z " fill="#BBBBBB" transform="translate(367,174)"/>
<path d="M0,0 L1,0 L1,1 L0,1 Z " fill="#707070" transform="translate(352,174)"/>
<path d="M0,0 L1,0 L1,1 L0,1 Z " fill="#ACACAC" transform="translate(320,174)"/>
<path d="M0,0 L1,0 L1,1 L0,1 Z " fill="#969696" transform="translate(278,174)"/>
<path d="M0,0 L1,0 L1,1 L0,1 Z " fill="#BDBDBD" transform="translate(232,174)"/>
<path d="M0,0 L1,0 L1,1 L0,1 Z " fill="#868686" transform="translate(190,174)"/>
<path d="M0,0 L1,0 L1,1 L0,1 Z " fill="#CFCFCF" transform="translate(144,174)"/>
<path d="M0,0 L1,0 L1,1 L0,1 Z " fill="#757575" transform="translate(102,174)"/>
<path d="M0,0 L1,0 L1,1 L0,1 Z " fill="#4F4F4F" transform="translate(510,161)"/>
<path d="M0,0 L1,0 L1,1 L0,1 Z " fill="#BBBBBB" transform="translate(496,161)"/>
<path d="M0,0 L1,0 L1,1 L0,1 Z " fill="#E4E4E4" transform="translate(454,161)"/>
<path d="M0,0 L1,0 L1,1 L0,1 Z " fill="#565656" transform="translate(440,161)"/>
<path d="M0,0 L1,0 L1,1 L0,1 Z " fill="#B9B9B9" transform="translate(400,161)"/>
<path d="M0,0 L1,0 L1,1 L0,1 Z " fill="#4D4D4D" transform="translate(386,161)"/>
<path d="M0,0 L1,0 L1,1 L0,1 Z " fill="#5B5B5B" transform="translate(334,161)"/>
<path d="M0,0 L1,0 L1,1 L0,1 Z " fill="#D9D9D9" transform="translate(320,161)"/>
<path d="M0,0 L1,0 L1,1 L0,1 Z " fill="#C6C6C6" transform="translate(278,161)"/>
<path d="M0,0 L1,0 L1,1 L0,1 Z " fill="#4A4A4A" transform="translate(264,161)"/>
<path d="M0,0 L1,0 L1,1 L0,1 Z " fill="#626262" transform="translate(246,161)"/>
<path d="M0,0 L1,0 L1,1 L0,1 Z " fill="#E9E9E9" transform="translate(232,161)"/>
<path d="M0,0 L1,0 L1,1 L0,1 Z " fill="#B7B7B7" transform="translate(190,161)"/>
<path d="M0,0 L1,0 L1,1 L0,1 Z " fill="#434343" transform="translate(176,161)"/>
<path d="M0,0 L1,0 L1,1 L0,1 Z " fill="#686868" transform="translate(158,161)"/>
<path d="M0,0 L1,0 L1,1 L0,1 Z " fill="#F7F7F7" transform="translate(144,161)"/>
<path d="M0,0 L1,0 L1,1 L0,1 Z " fill="#A8A8A8" transform="translate(102,161)"/>
<path d="M0,0 L1,0 L1,1 L0,1 Z " fill="#D2D2D2" transform="translate(455,159)"/>
<path d="M0,0 L1,0 L1,1 L0,1 Z " fill="#515151" transform="translate(415,159)"/>
<path d="M0,0 L1,0 L1,1 L0,1 Z " fill="#676767" transform="translate(402,159)"/>
<path d="M0,0 L1,0 L1,1 L0,1 Z " fill="#DEDEDE" transform="translate(319,159)"/>
<path d="M0,0 L1,0 L1,1 L0,1 Z " fill="#F4F4F4" transform="translate(279,159)"/>
<path d="M0,0 L1,0 L1,1 L0,1 Z " fill="#CDCDCD" transform="translate(231,159)"/>
<path d="M0,0 L1,0 L1,1 L0,1 Z " fill="#696969" transform="translate(192,159)"/>
<path d="M0,0 L1,0 L1,1 L0,1 Z " fill="#BCBCBC" transform="translate(143,159)"/>
<path d="M0,0 L1,0 L1,1 L0,1 Z " fill="#7A7A7A" transform="translate(104,159)"/>
<path d="M0,0 L1,0 L1,1 L0,1 Z " fill="#FFFFFF" transform="translate(495,147)"/>
<path d="M0,0 L1,0 L1,1 L0,1 Z " fill="#898989" transform="translate(408,147)"/>
<path d="M0,0 L1,0 L1,1 L0,1 Z " fill="#BBBBBB" transform="translate(402,147)"/>
<path d="M0,0 L1,0 L1,1 L0,1 Z " fill="#CDCDCD" transform="translate(386,147)"/>
<path d="M0,0 L1,0 L1,1 L0,1 Z " fill="#F3F3F3" transform="translate(367,147)"/>
<path d="M0,0 L1,0 L1,1 L0,1 Z " fill="#FFFFFF" transform="translate(89,147)"/>
<path d="M0,0 L1,0 L1,1 L0,1 Z " fill="#717171" transform="translate(510,146)"/>
<path d="M0,0 L1,0 L1,1 L0,1 Z " fill="#545454" transform="translate(104,146)"/>
<path d="M0,0 L1,0 L1,1 L0,1 Z " fill="#FFFFFF" transform="translate(232,133)"/>
<path d="M0,0 L1,0 L1,1 L0,1 Z " fill="#F5F5F5" transform="translate(407,132)"/>
<path d="M0,0 L1,0 L1,1 L0,1 Z " fill="#EDEDED" transform="translate(367,132)"/>
<path d="M0,0 L1,0 L1,1 L0,1 Z " fill="#7B7B7B" transform="translate(246,132)"/>
<path d="M0,0 L1,0 L1,1 L0,1 Z " fill="#7E7E7E" transform="translate(231,132)"/>
<path d="M0,0 L1,0 L1,1 L0,1 Z " fill="#868686" transform="translate(158,132)"/>
<path d="M0,0 L1,0 L1,1 L0,1 Z " fill="#F9F9F9" transform="translate(144,132)"/>
<path d="M0,0 L1,0 L1,1 L0,1 Z " fill="#7B7B7B" transform="translate(246,120)"/>
<path d="M0,0 L1,0 L1,1 L0,1 Z " fill="#7E7E7E" transform="translate(231,120)"/>
<path d="M0,0 L1,0 L1,1 L0,1 Z " fill="#C1C1C1" transform="translate(102,120)"/>
<path d="M0,0 L1,0 L1,1 L0,1 Z " fill="#F8F8F8" transform="translate(455,119)"/>
<path d="M0,0 L1,0 L1,1 L0,1 Z " fill="#DADADA" transform="translate(144,119)"/>
<path d="M0,0 L1,0 L1,1 L0,1 Z " fill="#E9E9E9" transform="translate(104,119)"/>
<path d="M0,0 L1,0 L1,1 L0,1 Z " fill="#E3E3E3" transform="translate(455,93)"/>
<path d="M0,0 L1,0 L1,1 L0,1 Z " fill="#F5F5F5" transform="translate(407,93)"/>
<path d="M0,0 L1,0 L1,1 L0,1 Z " fill="#EDEDED" transform="translate(367,93)"/>
<path d="M0,0 L1,0 L1,1 L0,1 Z " fill="#EAEAEA" transform="translate(319,93)"/>
<path d="M0,0 L1,0 L1,1 L0,1 Z " fill="#F8F8F8" transform="translate(279,93)"/>
<path d="M0,0 L1,0 L1,1 L0,1 Z " fill="#E0E0E0" transform="translate(231,93)"/>
<path d="M0,0 L1,0 L1,1 L0,1 Z " fill="#A1A1A1" transform="translate(192,93)"/>
<path d="M0,0 L1,0 L1,1 L0,1 Z " fill="#D5D5D5" transform="translate(143,93)"/>
<path d="M0,0 L1,0 L1,1 L0,1 Z " fill="#ACACAC" transform="translate(104,93)"/>
<path d="M0,0 L1,0 L1,1 L0,1 Z " fill="#7C7C7C" transform="translate(496,78)"/>
<path d="M0,0 L1,0 L1,1 L0,1 Z " fill="#A3A3A3" transform="translate(454,78)"/>
<path d="M0,0 L1,0 L1,1 L0,1 Z " fill="#8B8B8B" transform="translate(408,78)"/>
<path d="M0,0 L1,0 L1,1 L0,1 Z " fill="#959595" transform="translate(366,78)"/>
<path d="M0,0 L1,0 L1,1 L0,1 Z " fill="#999999" transform="translate(320,78)"/>
<path d="M0,0 L1,0 L1,1 L0,1 Z " fill="#878787" transform="translate(278,78)"/>
<path d="M0,0 L1,0 L1,1 L0,1 Z " fill="#A7A7A7" transform="translate(232,78)"/>
<path d="M0,0 L1,0 L1,1 L0,1 Z " fill="#797979" transform="translate(190,78)"/>
<path d="M0,0 L1,0 L1,1 L0,1 Z " fill="#B5B5B5" transform="translate(144,78)"/>
<path d="M0,0 L1,0 L1,1 L0,1 Z " fill="#6B6B6B" transform="translate(102,78)"/>
</svg>
