<?xml version="1.0" encoding="UTF-8"?>
<!-- Generator: visioncortex VTracer 0.6.4 -->
<svg version="1.1" xmlns="http://www.w3.org/2000/svg" width="600" height="250">
<path d="M0,0 L600,0 L600,250 L0,250 Z " fill="#FFFFFF" transform="translate(0,0)"/>
<path d="M0,0 L43,0 L43,14 L56,14 L56,56 L43,56 L43,70 L36,70 L36,82 L50,82 L50,97 L35,97 L35,83 L21,83 L21,70 L2,70 L2,97 L-13,97 L-13,14 L0,14 Z " fill="#000000" transform="translate(362,78)"/>
<path d="M0,0 L15,0 L15,14 L29,14 L29,27 L43,27 L43,97 L27,97 L27,70 L-12,70 L-12,97 L-27,97 L-27,28 L-14,28 L-14,14 L0,14 Z " fill="#000000" transform="translate(288,78)"/>
<path d="M0,0 L43,0 L43,14 L57,14 L57,29 L41,29 L41,16 L2,16 L2,41 L43,41 L43,54 L57,54 L57,83 L43,83 L43,97 L1,97 L1,83 L-13,83 L-13,68 L2,68 L2,82 L42,82 L42,56 L1,56 L1,42 L-13,42 L-13,14 L0,14 Z " fill="#000000" transform="translate(107,78)"/>
<path d="M0,0 L43,0 L43,14 L57,14 L57,29 L41,29 L41,15 L29,15 L29,97 L14,97 L14,15 L2,15 L2,29 L-13,29 L-13,14 L0,14 Z " fill="#000000" transform="translate(192,78)"/>
<path d="M0,0 L43,0 L43,14 L56,14 L56,29 L41,29 L41,15 L29,15 L29,97 L14,97 L14,15 L2,15 L2,29 L-13,29 L-13,14 L0,14 Z " fill="#000000" transform="translate(450,78)"/>
<path d="M0,0 L39,0 L39,38 L0,38 Z " fill="#FFFFFF" transform="translate(364,94)"/>
<path d="M0,0 L12,0 L12,13 L25,13 L25,38 L-14,38 L-14,13 L0,13 Z " fill="#FFFFFF" transform="translate(290,94)"/>
<path d="M0,0 L14,0 L14,70 L-2,70 L-2,43 L-1,43 L-1,69 L13,69 L13,1 L0,1 Z " fill="#676767" transform="translate(317,105)"/>
<path d="M0,0 L1,0 L1,80 L15,80 L15,81 L0,81 Z " fill="#1B1B1B" transform="translate(206,94)"/>
<path d="M0,0 L12,0 L12,1 L1,1 L1,82 L0,82 Z " fill="#EFEFEF" transform="translate(479,93)"/>
<path d="M0,0 L12,0 L12,82 L11,82 L11,1 L0,1 Z " fill="#C3C3C3" transform="translate(452,93)"/>
<path d="M0,0 L12,0 L12,1 L1,1 L1,82 L0,82 Z " fill="#979797" transform="translate(221,93)"/>
<path d="M0,0 L1,0 L1,83 L0,83 Z " fill="#BBBBBB" transform="translate(348,92)"/>
<path d="M0,0 L1,0 L1,26 L-39,26 L-39,12 L-38,12 L-38,25 L0,25 Z " fill="#CBCBCB" transform="translate(148,134)"/>
<path d="M0,0 L1,0 L1,69 L0,69 Z " fill="#D7D7D7" transform="translate(260,106)"/>
<path d="M0,0 L43,0 L43,14 L42,14 L42,1 L1,1 L1,14 L0,14 Z " fill="#575757" transform="translate(450,78)"/>
<path d="M0,0 L43,0 L43,14 L42,14 L42,1 L1,1 L1,14 L0,14 Z " fill="#575757" transform="translate(362,78)"/>
<path d="M0,0 L43,0 L43,1 L1,1 L1,14 L0,14 Z " fill="#575757" transform="translate(192,78)"/>
<path d="M0,0 L43,0 L43,1 L1,1 L1,14 L0,14 Z " fill="#575757" transform="translate(107,78)"/>
<path d="M0,0 L42,0 L42,1 L0,1 Z " fill="#333333" transform="translate(108,174)"/>
<path d="M0,0 L14,0 L14,29 L13,29 L13,1 L0,1 Z " fill="#3F3F3F" transform="translate(150,132)"/>
<path d="M0,0 L1,0 L1,42 L0,42 Z " fill="#838383" transform="translate(418,92)"/>
<path d="M0,0 L1,0 L1,27 L-14,27 L-14,26 L0,26 Z " fill="#1F1F1F" transform="translate(363,148)"/>
<path d="M0,0 L1,0 L1,26 L15,26 L15,27 L0,27 Z " fill="#474747" transform="translate(315,148)"/>
<path d="M0,0 L1,0 L1,27 L-14,27 L-14,26 L0,26 Z " fill="#030303" transform="translate(275,148)"/>
<path d="M0,0 L41,0 L41,1 L0,1 Z " fill="#232323" transform="translate(109,119)"/>
<path d="M0,0 L39,0 L39,1 L0,1 Z " fill="#5B5B5B" transform="translate(276,147)"/>
<path d="M0,0 L39,0 L39,1 L0,1 Z " fill="#7F7F7F" transform="translate(364,132)"/>
<path d="M0,0 L39,0 L39,1 L0,1 Z " fill="#7F7F7F" transform="translate(276,132)"/>
<path d="M0,0 L39,0 L39,1 L0,1 Z " fill="#7F7F7F" transform="translate(364,93)"/>
<path d="M0,0 L39,0 L39,1 L0,1 Z " fill="#7F7F7F" transform="translate(109,93)"/>
<path d="M0,0 L1,0 L1,38 L0,38 Z " fill="#2B2B2B" transform="translate(403,94)"/>
<path d="M0,0 L1,0 L1,38 L0,38 Z " fill="#1F1F1F" transform="translate(363,94)"/>
<path d="M0,0 L14,0 L14,14 L13,14 L13,1 L0,1 Z " fill="#939393" transform="translate(383,161)"/>
<path d="M0,0 L14,0 L14,14 L13,14 L13,1 L0,1 Z " fill="#A3A3A3" transform="translate(94,161)"/>
<path d="M0,0 L14,0 L14,14 L13,14 L13,1 L0,1 Z " fill="#7F7F7F" transform="translate(94,120)"/>
<path d="M0,0 L1,0 L1,26 L0,26 Z " fill="#6F6F6F" transform="translate(148,134)"/>
<path d="M0,0 L13,0 L13,1 L1,1 L1,14 L0,14 Z " fill="#838383" transform="translate(289,93)"/>
<path d="M0,0 L1,0 L1,25 L0,25 Z " fill="#474747" transform="translate(315,107)"/>
<path d="M0,0 L1,0 L1,25 L0,25 Z " fill="#030303" transform="translate(275,107)"/>
<path d="M0,0 L12,0 L12,1 L1,1 L1,14 L0,14 Z " fill="#E3E3E3" transform="translate(194,93)"/>
<path d="M0,0 L1,0 L1,25 L0,25 Z " fill="#DBDBDB" transform="translate(109,94)"/>
<path d="M0,0 L1,0 L1,14 L-6,14 L-6,13 L0,13 Z " fill="#535353" transform="translate(404,134)"/>
<path d="M0,0 L19,0 L19,1 L0,1 Z " fill="#5B5B5B" transform="translate(364,147)"/>
<path d="M0,0 L15,0 L15,1 L0,1 Z " fill="#333333" transform="translate(464,174)"/>
<path d="M0,0 L15,0 L15,1 L0,1 Z " fill="#333333" transform="translate(349,174)"/>
<path d="M0,0 L15,0 L15,1 L0,1 Z " fill="#333333" transform="translate(261,174)"/>
<path d="M0,0 L15,0 L15,1 L0,1 Z " fill="#333333" transform="translate(206,174)"/>
<path d="M0,0 L1,0 L1,15 L0,15 Z " fill="#6B6B6B" transform="translate(411,160)"/>
<path d="M0,0 L15,0 L15,1 L0,1 Z " fill="#232323" transform="translate(94,146)"/>
<path d="M0,0 L1,0 L1,15 L0,15 Z " fill="#9F9F9F" transform="translate(506,92)"/>
<path d="M0,0 L1,0 L1,15 L0,15 Z " fill="#9F9F9F" transform="translate(436,92)"/>
<path d="M0,0 L1,0 L1,15 L0,15 Z " fill="#4B4B4B" transform="translate(248,92)"/>
<path d="M0,0 L1,0 L1,15 L0,15 Z " fill="#F3F3F3" transform="translate(178,92)"/>
<path d="M0,0 L1,0 L1,15 L0,15 Z " fill="#3F3F3F" transform="translate(163,92)"/>
<path d="M0,0 L15,0 L15,1 L0,1 Z " fill="#575757" transform="translate(288,78)"/>
<path d="M0,0 L14,0 L14,1 L0,1 Z " fill="#333333" transform="translate(397,174)"/>
<path d="M0,0 L14,0 L14,1 L0,1 Z " fill="#333333" transform="translate(316,174)"/>
<path d="M0,0 L14,0 L14,1 L0,1 Z " fill="#B3B3B3" transform="translate(150,161)"/>
<path d="M0,0 L14,0 L14,1 L0,1 Z " fill="#CBCBCB" transform="translate(398,159)"/>
<path d="M0,0 L14,0 L14,1 L0,1 Z " fill="#7F7F7F" transform="translate(150,132)"/>
<path d="M0,0 L14,0 L14,1 L0,1 Z " fill="#7F7F7F" transform="translate(317,105)"/>
<path d="M0,0 L1,0 L1,14 L0,14 Z " fill="#6F6F6F" transform="translate(492,78)"/>
<path d="M0,0 L1,0 L1,14 L0,14 Z " fill="#5F5F5F" transform="translate(362,78)"/>
<path d="M0,0 L1,0 L1,14 L0,14 Z " fill="#B7B7B7" transform="translate(303,78)"/>
<path d="M0,0 L1,0 L1,14 L0,14 Z " fill="#9B9B9B" transform="translate(192,78)"/>
<path d="M0,0 L1,0 L1,14 L0,14 Z " fill="#A3A3A3" transform="translate(107,78)"/>
<path d="M0,0 L1,0 L1,14 L0,14 Z " fill="#FBFBFB" transform="translate(287,78)"/>
<path d="M0,0 L1,0 L1,13 L0,13 Z " fill="#0F0F0F" transform="translate(149,161)"/>
<path d="M0,0 L13,0 L13,1 L0,1 Z " fill="#B3B3B3" transform="translate(383,161)"/>
<path d="M0,0 L13,0 L13,1 L0,1 Z " fill="#B3B3B3" transform="translate(94,161)"/>
<path d="M0,0 L1,0 L1,13 L0,13 Z " fill="#C7C7C7" transform="translate(382,148)"/>
<path d="M0,0 L1,0 L1,13 L0,13 Z " fill="#DBDBDB" transform="translate(109,146)"/>
<path d="M0,0 L1,0 L1,13 L0,13 Z " fill="#A3A3A3" transform="translate(107,121)"/>
<path d="M0,0 L13,0 L13,1 L0,1 Z " fill="#7F7F7F" transform="translate(261,105)"/>
<path d="M0,0 L1,0 L1,13 L0,13 Z " fill="#0F0F0F" transform="translate(491,94)"/>
<path d="M0,0 L1,0 L1,13 L0,13 Z " fill="#3B3B3B" transform="translate(451,94)"/>
<path d="M0,0 L1,0 L1,13 L0,13 Z " fill="#C7C7C7" transform="translate(301,94)"/>
<path d="M0,0 L1,0 L1,13 L0,13 Z " fill="#676767" transform="translate(233,94)"/>
<path d="M0,0 L1,0 L1,13 L0,13 Z " fill="#6F6F6F" transform="translate(148,94)"/>
<path d="M0,0 L1,0 L1,13 L0,13 Z " fill="#373737" transform="translate(316,92)"/>
<path d="M0,0 L13,0 L13,1 L0,1 Z " fill="#7F7F7F" transform="translate(289,93)"/>
<path d="M0,0 L1,0 L1,13 L0,13 Z " fill="#7B7B7B" transform="translate(274,92)"/>
<path d="M0,0 L1,0 L1,13 L0,13 Z " fill="#434343" transform="translate(450,79)"/>
<path d="M0,0 L1,0 L1,13 L0,13 Z " fill="#535353" transform="translate(404,79)"/>
<path d="M0,0 L1,0 L1,13 L0,13 Z " fill="#171717" transform="translate(234,79)"/>
<path d="M0,0 L1,0 L1,13 L0,13 Z " fill="#0F0F0F" transform="translate(149,79)"/>
<path d="M0,0 L1,0 L1,12 L0,12 Z " fill="#0F0F0F" transform="translate(149,120)"/>
<path d="M0,0 L12,0 L12,1 L0,1 Z " fill="#7F7F7F" transform="translate(479,93)"/>
<path d="M0,0 L12,0 L12,1 L0,1 Z " fill="#7F7F7F" transform="translate(452,93)"/>
<path d="M0,0 L12,0 L12,1 L0,1 Z " fill="#7F7F7F" transform="translate(221,93)"/>
<path d="M0,0 L12,0 L12,1 L0,1 Z " fill="#7F7F7F" transform="translate(194,93)"/>
<path d="M0,0 L1,0 L1,11 L0,11 Z " fill="#EBEBEB" transform="translate(398,148)"/>
<path d="M0,0 L7,0 L7,1 L0,1 Z " fill="#5B5B5B" transform="translate(398,147)"/>
<path d="M0,0 L2,0 L2,1 L0,1 Z " fill="#333333" transform="translate(206,174)"/>
<path d="M0,0 L1,0 L1,2 L0,2 Z " fill="#939393" transform="translate(396,161)"/>
<path d="M0,0 L1,0 L1,2 L0,2 Z " fill="#0F0F0F" transform="translate(149,161)"/>
<path d="M0,0 L1,0 L1,2 L0,2 Z " fill="#A3A3A3" transform="translate(107,161)"/>
<path d="M0,0 L2,0 L2,1 L0,1 Z " fill="#CBCBCB" transform="translate(398,159)"/>
<path d="M0,0 L2,0 L2,1 L0,1 Z " fill="#CBCBCB" transform="translate(109,159)"/>
<path d="M0,0 L2,0 L2,1 L0,1 Z " fill="#5B5B5B" transform="translate(398,147)"/>
<path d="M0,0 L1,0 L1,2 L0,2 Z " fill="#DBDBDB" transform="translate(109,146)"/>
<path d="M0,0 L2,0 L2,1 L0,1 Z " fill="#232323" transform="translate(109,119)"/>
<path d="M0,0 L2,0 L2,1 L0,1 Z " fill="#7F7F7F" transform="translate(479,93)"/>
<path d="M0,0 L2,0 L2,1 L0,1 Z " fill="#7F7F7F" transform="translate(289,93)"/>
<path d="M0,0 L2,0 L2,1 L0,1 Z " fill="#7F7F7F" transform="translate(221,93)"/>
<path d="M0,0 L2,0 L2,1 L0,1 Z " fill="#7F7F7F" transform="translate(194,93)"/>
<path d="M0,0 L2,0 L2,1 L0,1 Z " fill="#7F7F7F" transform="translate(109,93)"/>
<path d="M0,0 L1,0 L1,2 L0,2 Z " fill="#6F6F6F" transform="translate(492,78)"/>
<path d="M0,0 L1,0 L1,2 L0,2 Z " fill="#5F5F5F" transform="translate(362,78)"/>
<path d="M0,0 L1,0 L1,2 L0,2 Z " fill="#B7B7B7" transform="translate(303,78)"/>
<path d="M0,0 L1,0 L1,2 L0,2 Z " fill="#9B9B9B" transform="translate(192,78)"/>
<path d="M0,0 L1,0 L1,2 L0,2 Z " fill="#A3A3A3" transform="translate(107,78)"/>
<path d="M0,0 L2,0 L2,1 L0,1 Z " fill="#575757" transform="translate(450,78)"/>
<path d="M0,0 L1,0 L1,1 L0,1 Z " fill="#F2F2F2" transform="translate(479,174)"/>
<path d="M0,0 L1,0 L1,1 L0,1 Z " fill="#CFCFCF" transform="translate(463,174)"/>
<path d="M0,0 L1,0 L1,1 L0,1 Z " fill="#898989" transform="translate(411,174)"/>
<path d="M0,0 L1,0 L1,1 L0,1 Z " fill="#A8A8A8" transform="translate(396,174)"/>
<path d="M0,0 L1,0 L1,1 L0,1 Z " fill="#4C4C4C" transform="translate(363,174)"/>
<path d="M0,0 L1,0 L1,1 L0,1 Z " fill="#C8C8C8" transform="translate(348,174)"/>
<path d="M0,0 L1,0 L1,1 L0,1 Z " fill="#858585" transform="translate(330,174)"/>
<path d="M0,0 L1,0 L1,1 L0,1 Z " fill="#6C6C6C" transform="translate(315,174)"/>
<path d="M0,0 L1,0 L1,1 L0,1 Z " fill="#363636" transform="translate(275,174)"/>
<path d="M0,0 L1,0 L1,1 L0,1 Z " fill="#DFDFDF" transform="translate(260,174)"/>
<path d="M0,0 L1,0 L1,1 L0,1 Z " fill="#ACACAC" transform="translate(221,174)"/>
<path d="M0,0 L1,0 L1,1 L0,1 Z " fill="#494949" transform="translate(206,174)"/>
<path d="M0,0 L1,0 L1,1 L0,1 Z " fill="#3F3F3F" transform="translate(149,174)"/>
<path d="M0,0 L1,0 L1,1 L0,1 Z " fill="#B5B5B5" transform="translate(107,174)"/>
<path d="M0,0 L1,0 L1,1 L0,1 Z " fill="#FFFFFF" transform="translate(150,162)"/>
<path d="M0,0 L1,0 L1,1 L0,1 Z " fill="#676767" transform="translate(396,161)"/>
<path d="M0,0 L1,0 L1,1 L0,1 Z " fill="#EEEEEE" transform="translate(382,161)"/>
<path d="M0,0 L1,0 L1,1 L0,1 Z " fill="#C6C6C6" transform="translate(163,161)"/>
<path d="M0,0 L1,0 L1,1 L0,1 Z " fill="#0A0A0A" transform="translate(149,161)"/>
<path d="M0,0 L1,0 L1,1 L0,1 Z " fill="#727272" transform="translate(107,161)"/>
<path d="M0,0 L1,0 L1,1 L0,1 Z " fill="#E0E0E0" transform="translate(411,159)"/>
<path d="M0,0 L1,0 L1,1 L0,1 Z " fill="#BBBBBB" transform="translate(398,159)"/>
<path d="M0,0 L1,0 L1,1 L0,1 Z " fill="#585858" transform="translate(148,159)"/>
<path d="M0,0 L1,0 L1,1 L0,1 Z " fill="#AEAEAE" transform="translate(109,159)"/>
<path d="M0,0 L1,0 L1,1 L0,1 Z " fill="#FFFFFF" transform="translate(399,148)"/>
<path d="M0,0 L1,0 L1,1 L0,1 Z " fill="#FFFFFF" transform="translate(364,148)"/>
<path d="M0,0 L1,0 L1,1 L0,1 Z " fill="#FFFFFF" transform="translate(276,148)"/>
<path d="M0,0 L1,0 L1,1 L0,1 Z " fill="#909090" transform="translate(404,147)"/>
<path d="M0,0 L1,0 L1,1 L0,1 Z " fill="#535353" transform="translate(398,147)"/>
<path d="M0,0 L1,0 L1,1 L0,1 Z " fill="#464646" transform="translate(382,147)"/>
<path d="M0,0 L1,0 L1,1 L0,1 Z " fill="#0A0A0A" transform="translate(363,147)"/>
<path d="M0,0 L1,0 L1,1 L0,1 Z " fill="#181818" transform="translate(315,147)"/>
<path d="M0,0 L1,0 L1,1 L0,1 Z " fill="#E0E0E0" transform="translate(109,146)"/>
<path d="M0,0 L1,0 L1,1 L0,1 Z " fill="#FFFFFF" transform="translate(405,134)"/>
<path d="M0,0 L1,0 L1,1 L0,1 Z " fill="#151515" transform="translate(403,132)"/>
<path d="M0,0 L1,0 L1,1 L0,1 Z " fill="#0F0F0F" transform="translate(363,132)"/>
<path d="M0,0 L1,0 L1,1 L0,1 Z " fill="#232323" transform="translate(315,132)"/>
<path d="M0,0 L1,0 L1,1 L0,1 Z " fill="#010101" transform="translate(275,132)"/>
<path d="M0,0 L1,0 L1,1 L0,1 Z " fill="#9F9F9F" transform="translate(163,132)"/>
<path d="M0,0 L1,0 L1,1 L0,1 Z " fill="#070707" transform="translate(149,132)"/>
<path d="M0,0 L1,0 L1,1 L0,1 Z " fill="#515151" transform="translate(107,120)"/>
<path d="M0,0 L1,0 L1,1 L0,1 Z " fill="#303030" transform="translate(149,119)"/>
<path d="M0,0 L1,0 L1,1 L0,1 Z " fill="#1D1D1D" transform="translate(109,119)"/>
<path d="M0,0 L1,0 L1,1 L0,1 Z " fill="#B3B3B3" transform="translate(330,105)"/>
<path d="M0,0 L1,0 L1,1 L0,1 Z " fill="#1B1B1B" transform="translate(316,105)"/>
<path d="M0,0 L1,0 L1,1 L0,1 Z " fill="#3D3D3D" transform="translate(274,105)"/>
<path d="M0,0 L1,0 L1,1 L0,1 Z " fill="#EBEBEB" transform="translate(260,105)"/>
<path d="M0,0 L1,0 L1,1 L0,1 Z " fill="#070707" transform="translate(491,93)"/>
<path d="M0,0 L1,0 L1,1 L0,1 Z " fill="#777777" transform="translate(479,93)"/>
<path d="M0,0 L1,0 L1,1 L0,1 Z " fill="#616161" transform="translate(463,93)"/>
<path d="M0,0 L1,0 L1,1 L0,1 Z " fill="#1D1D1D" transform="translate(451,93)"/>
<path d="M0,0 L1,0 L1,1 L0,1 Z " fill="#151515" transform="translate(403,93)"/>
<path d="M0,0 L1,0 L1,1 L0,1 Z " fill="#0F0F0F" transform="translate(363,93)"/>
<path d="M0,0 L1,0 L1,1 L0,1 Z " fill="#636363" transform="translate(301,93)"/>
<path d="M0,0 L1,0 L1,1 L0,1 Z " fill="#414141" transform="translate(289,93)"/>
<path d="M0,0 L1,0 L1,1 L0,1 Z " fill="#333333" transform="translate(233,93)"/>
<path d="M0,0 L1,0 L1,1 L0,1 Z " fill="#4B4B4B" transform="translate(221,93)"/>
<path d="M0,0 L1,0 L1,1 L0,1 Z " fill="#0D0D0D" transform="translate(206,93)"/>
<path d="M0,0 L1,0 L1,1 L0,1 Z " fill="#717171" transform="translate(194,93)"/>
<path d="M0,0 L1,0 L1,1 L0,1 Z " fill="#373737" transform="translate(148,93)"/>
<path d="M0,0 L1,0 L1,1 L0,1 Z " fill="#6D6D6D" transform="translate(109,93)"/>
<path d="M0,0 L1,0 L1,1 L0,1 Z " fill="#A0A0A0" transform="translate(492,78)"/>
<path d="M0,0 L1,0 L1,1 L0,1 Z " fill="#838383" transform="translate(450,78)"/>
<path d="M0,0 L1,0 L1,1 L0,1 Z " fill="#8E8E8E" transform="translate(404,78)"/>
<path d="M0,0 L1,0 L1,1 L0,1 Z " fill="#969696" transform="translate(362,78)"/>
<path d="M0,0 L1,0 L1,1 L0,1 Z " fill="#CFCFCF" transform="translate(303,78)"/>
<path d="M0,0 L1,0 L1,1 L0,1 Z " fill="#FCFCFC" transform="translate(287,78)"/>
<path d="M0,0 L1,0 L1,1 L0,1 Z " fill="#666666" transform="translate(234,78)"/>
<path d="M0,0 L1,0 L1,1 L0,1 Z " fill="#BDBDBD" transform="translate(192,78)"/>
<path d="M0,0 L1,0 L1,1 L0,1 Z " fill="#616161" transform="translate(149,78)"/>
<path d="M0,0 L1,0 L1,1 L0,1 Z " fill="#C2C2C2" transform="translate(107,78)"/>
</svg>
