<?xml version="1.0" encoding="UTF-8"?>
<!-- Generator: visioncortex VTracer 0.6.4 -->
<svg version="1.1" xmlns="http://www.w3.org/2000/svg" width="70" height="70">
<path d="M0,0 L70,0 L70,70 L0,70 Z " fill="#636363" transform="translate(0,0)"/>
<path d="M0,0 L70,0 L70,70 L0,70 Z M10,10 L10,60 L60,60 L60,10 Z " fill="#FF2C7D" transform="translate(0,0)"/>
<path d="M0,0 L1,0 L1,35 L0,35 L0,34 L-2,34 L-2,33 L-3,33 L-3,32 L-4,32 L-4,31 L-5,31 L-5,30 L-6,30 L-6,29 L-7,29 L-7,28 L-8,28 L-8,27 L-9,27 L-9,26 L-11,26 L-11,25 L-22,25 L-22,10 L-10,10 L-10,9 L-9,9 L-9,8 L-8,8 L-8,7 L-7,7 L-7,6 L-6,6 L-6,5 L-5,5 L-5,4 L-4,4 L-4,3 L-3,3 L-3,2 L-1,2 L-1,1 L0,1 Z " fill="#FF2C7D" transform="translate(36,17)"/>
<path d="M0,0 L2,0 L2,1 L3,1 L3,2 L4,2 L4,4 L5,4 L5,5 L6,5 L6,6 L8,6 L8,5 L9,5 L9,4 L10,4 L10,3 L11,3 L11,1 L12,1 L12,0 L14,0 L14,2 L13,2 L13,3 L12,3 L12,4 L11,4 L11,6 L10,6 L10,7 L9,7 L9,10 L10,10 L10,11 L11,11 L11,12 L12,12 L12,13 L13,13 L13,14 L14,14 L14,17 L13,17 L13,16 L12,16 L12,15 L11,15 L11,14 L10,14 L10,12 L9,12 L9,11 L8,11 L8,10 L6,10 L6,11 L5,11 L5,13 L4,13 L4,14 L3,14 L3,15 L2,15 L2,16 L1,16 L1,17 L0,17 L0,15 L1,15 L1,13 L2,13 L2,12 L3,12 L3,11 L4,11 L4,10 L5,10 L5,9 L6,9 L6,8 L5,8 L5,7 L4,7 L4,5 L3,5 L3,4 L2,4 L2,3 L1,3 L1,2 L0,2 Z " fill="#FF2C7D" transform="translate(41,26)"/>
<path d="M0,0 L2,0 L2,37 L0,37 L0,36 L1,36 L1,1 L0,1 Z " fill="#A24C6D" transform="translate(36,16)"/>
<path d="M0,0 L2,0 L2,1 L3,1 L3,2 L4,2 L4,4 L5,4 L5,5 L6,5 L6,6 L8,6 L8,7 L7,7 L7,8 L5,8 L5,7 L4,7 L4,5 L3,5 L3,4 L2,4 L2,3 L1,3 L1,2 L0,2 Z " fill="#FF2C7D" transform="translate(41,26)"/>
<path d="M0,0 L1,0 L1,18 L-1,18 L-1,17 L0,17 Z " fill="#984F6B" transform="translate(37,35)"/>
<path d="M0,0 L2,0 L2,2 L1,2 L1,3 L0,3 L0,4 L-1,4 L-1,5 L-2,5 L-2,6 L-3,6 L-3,4 L-2,4 L-2,2 L-1,2 L-1,1 L0,1 Z " fill="#FF2C7D" transform="translate(44,37)"/>
<path d="M0,0 L2,0 L2,1 L3,1 L3,2 L4,2 L4,5 L3,5 L3,4 L2,4 L2,3 L1,3 L1,2 L0,2 Z " fill="#FF2C7D" transform="translate(51,38)"/>
<path d="M0,0 L2,0 L2,1 L3,1 L3,2 L4,2 L4,3 L1,3 L1,2 L0,2 Z " fill="#FF2C7D" transform="translate(41,26)"/>
<path d="M0,0 L1,0 L1,6 L-1,6 L-1,5 L0,5 Z " fill="#94516B" transform="translate(37,47)"/>
<path d="M0,0 L1,0 L1,7 L0,7 Z " fill="#9D4E6C" transform="translate(37,28)"/>
<path d="M0,0 L1,0 L1,1 L0,1 Z M0,4 L1,4 L1,5 L0,5 Z " fill="#FF2B7D" transform="translate(24,34)"/>
<path d="M0,0 L1,0 L1,1 L0,1 Z M0,2 L1,2 L1,5 L0,5 Z " fill="#FF2B7C" transform="translate(24,33)"/>
<path d="M0,0 L1,0 L1,5 L0,5 Z " fill="#96506B" transform="translate(37,42)"/>
<path d="M0,0 L2,0 L2,1 L1,1 L1,2 L0,2 L0,3 L-1,3 L-1,1 L0,1 Z " fill="#636363" transform="translate(47,36)"/>
<path d="M0,0 L1,0 L1,2 L0,2 L0,3 L-2,3 L-2,2 L-1,2 L-1,1 L0,1 Z " fill="#F82D7B" transform="translate(47,34)"/>
<path d="M0,0 L2,0 L2,2 L-1,2 L-1,1 L0,1 Z " fill="#FF2C7D" transform="translate(53,26)"/>
<path d="M0,0 L1,0 L1,5 L0,5 Z " fill="#A04C6C" transform="translate(37,23)"/>
<path d="M0,0 L2,0 L2,1 L3,1 L3,2 L1,2 L1,1 L0,1 Z " fill="#FB2C7C" transform="translate(49,36)"/>
<path d="M0,0 L2,0 L2,1 L3,1 L3,2 L1,2 L1,1 L0,1 Z " fill="#F92D7B" transform="translate(43,29)"/>
<path d="M0,0 L2,0 L2,1 L1,1 L1,2 L-1,2 L-1,1 L0,1 Z " fill="#FB2D7C" transform="translate(52,28)"/>
<path d="M0,0 L1,0 L1,1 L0,1 Z " fill="#FF2B7D" transform="translate(24,29)"/>
<path d="M0,0 L1,0 L1,1 L0,1 Z M0,2 L1,2 L1,4 L0,4 Z " fill="#FF2B7C" transform="translate(24,28)"/>
<path d="M0,0 L2,0 L2,3 L1,3 L1,1 L0,1 Z " fill="#A44C6E" transform="translate(36,16)"/>
<path d="M0,0 L2,0 L2,1 L1,1 L1,2 L0,2 Z " fill="#F62F7B" transform="translate(41,41)"/>
<path d="M0,0 L2,0 L2,1 L0,1 Z " fill="#8B5469" transform="translate(36,52)"/>
<path d="M0,0 L1,0 L1,2 L0,2 Z " fill="#95516B" transform="translate(37,45)"/>
<path d="M0,0 L1,0 L1,2 L0,2 Z " fill="#745C66" transform="translate(55,41)"/>
<path d="M0,0 L1,0 L1,2 L0,2 Z " fill="#6A6064" transform="translate(40,41)"/>
<path d="M0,0 L1,0 L1,2 L0,2 Z " fill="#FF2B7C" transform="translate(24,40)"/>
<path d="M0,0 L2,0 L2,1 L0,1 Z " fill="#7F5867" transform="translate(47,36)"/>
<path d="M0,0 L2,0 L2,1 L0,1 Z " fill="#FE2B7C" transform="translate(45,36)"/>
<path d="M0,0 L1,0 L1,2 L0,2 Z " fill="#9A4F6C" transform="translate(37,35)"/>
<path d="M0,0 L2,0 L2,1 L0,1 Z " fill="#696064" transform="translate(47,31)"/>
<path d="M0,0 L2,0 L2,1 L0,1 Z " fill="#FE2B7C" transform="translate(43,29)"/>
<path d="M0,0 L1,0 L1,2 L0,2 Z " fill="#9D4D6C" transform="translate(37,28)"/>
<path d="M0,0 L1,0 L1,2 L0,2 Z " fill="#6A5F63" transform="translate(55,26)"/>
<path d="M0,0 L1,0 L1,2 L0,2 Z " fill="#646263" transform="translate(40,26)"/>
<path d="M0,0 L2,0 L2,1 L0,1 Z " fill="#705D65" transform="translate(41,25)"/>
<path d="M0,0 L2,0 L2,1 L0,1 Z " fill="#984F6B" transform="translate(36,16)"/>
<path d="M0,0 L1,0 L1,1 L0,1 Z " fill="#93516B" transform="translate(36,52)"/>
<path d="M0,0 L1,0 L1,1 L0,1 Z " fill="#92526B" transform="translate(37,51)"/>
<path d="M0,0 L1,0 L1,1 L0,1 Z " fill="#FE2C7D" transform="translate(36,51)"/>
<path d="M0,0 L1,0 L1,1 L0,1 Z " fill="#A44C6E" transform="translate(35,51)"/>
<path d="M0,0 L1,0 L1,1 L0,1 Z " fill="#92516A" transform="translate(37,50)"/>
<path d="M0,0 L1,0 L1,1 L0,1 Z " fill="#B54570" transform="translate(34,50)"/>
<path d="M0,0 L1,0 L1,1 L0,1 Z " fill="#646263" transform="translate(33,50)"/>
<path d="M0,0 L1,0 L1,1 L0,1 Z " fill="#93516B" transform="translate(37,49)"/>
<path d="M0,0 L1,0 L1,1 L0,1 Z " fill="#C73F73" transform="translate(33,49)"/>
<path d="M0,0 L1,0 L1,1 L0,1 Z " fill="#666163" transform="translate(32,49)"/>
<path d="M0,0 L1,0 L1,1 L0,1 Z " fill="#D63975" transform="translate(32,48)"/>
<path d="M0,0 L1,0 L1,1 L0,1 Z " fill="#6C5F64" transform="translate(31,48)"/>
<path d="M0,0 L1,0 L1,1 L0,1 Z " fill="#E33578" transform="translate(31,47)"/>
<path d="M0,0 L1,0 L1,1 L0,1 Z " fill="#745C66" transform="translate(30,47)"/>
<path d="M0,0 L1,0 L1,1 L0,1 Z " fill="#EE327A" transform="translate(30,46)"/>
<path d="M0,0 L1,0 L1,1 L0,1 Z " fill="#7E5867" transform="translate(29,46)"/>
<path d="M0,0 L1,0 L1,1 L0,1 Z " fill="#F62F7B" transform="translate(29,45)"/>
<path d="M0,0 L1,0 L1,1 L0,1 Z " fill="#8A5469" transform="translate(28,45)"/>
<path d="M0,0 L1,0 L1,1 L0,1 Z " fill="#95506B" transform="translate(37,44)"/>
<path d="M0,0 L1,0 L1,1 L0,1 Z " fill="#FC2D7C" transform="translate(28,44)"/>
<path d="M0,0 L1,0 L1,1 L0,1 Z " fill="#994F6B" transform="translate(27,44)"/>
<path d="M0,0 L1,0 L1,1 L0,1 Z " fill="#AA496E" transform="translate(26,43)"/>
<path d="M0,0 L1,0 L1,1 L0,1 Z " fill="#636262" transform="translate(25,43)"/>
<path d="M0,0 L1,0 L1,1 L0,1 Z " fill="#D73976" transform="translate(54,42)"/>
<path d="M0,0 L1,0 L1,1 L0,1 Z " fill="#7B5A67" transform="translate(53,42)"/>
<path d="M0,0 L1,0 L1,1 L0,1 Z " fill="#8E536A" transform="translate(42,42)"/>
<path d="M0,0 L1,0 L1,1 L0,1 Z " fill="#CE3D74" transform="translate(41,42)"/>
<path d="M0,0 L1,0 L1,1 L0,1 Z " fill="#97506B" transform="translate(37,42)"/>
<path d="M0,0 L1,0 L1,1 L0,1 Z " fill="#BD4372" transform="translate(25,42)"/>
<path d="M0,0 L1,0 L1,1 L0,1 Z " fill="#646162" transform="translate(24,42)"/>
<path d="M0,0 L1,0 L1,1 L0,1 Z " fill="#9F4D6C" transform="translate(55,41)"/>
<path d="M0,0 L1,0 L1,1 L0,1 Z " fill="#E93379" transform="translate(53,41)"/>
<path d="M0,0 L1,0 L1,1 L0,1 Z " fill="#6E5E64" transform="translate(52,41)"/>
<path d="M0,0 L1,0 L1,1 L0,1 Z " fill="#7C5A67" transform="translate(43,41)"/>
<path d="M0,0 L1,0 L1,1 L0,1 Z " fill="#FC2C7C" transform="translate(41,41)"/>
<path d="M0,0 L1,0 L1,1 L0,1 Z " fill="#875568" transform="translate(40,41)"/>
<path d="M0,0 L1,0 L1,1 L0,1 Z " fill="#974F6B" transform="translate(37,41)"/>
<path d="M0,0 L1,0 L1,1 L0,1 Z " fill="#BC4371" transform="translate(54,40)"/>
<path d="M0,0 L1,0 L1,1 L0,1 Z " fill="#D83976" transform="translate(52,40)"/>
<path d="M0,0 L1,0 L1,1 L0,1 Z " fill="#666263" transform="translate(51,40)"/>
<path d="M0,0 L1,0 L1,1 L0,1 Z " fill="#6F5E65" transform="translate(44,40)"/>
<path d="M0,0 L1,0 L1,1 L0,1 Z " fill="#EA3379" transform="translate(43,40)"/>
<path d="M0,0 L1,0 L1,1 L0,1 Z " fill="#A24C6D" transform="translate(41,40)"/>
<path d="M0,0 L1,0 L1,1 L0,1 Z " fill="#98506B" transform="translate(37,40)"/>
<path d="M0,0 L1,0 L1,1 L0,1 Z " fill="#FF2B7D" transform="translate(24,40)"/>
<path d="M0,0 L1,0 L1,1 L0,1 Z " fill="#646162" transform="translate(54,39)"/>
<path d="M0,0 L1,0 L1,1 L0,1 Z " fill="#D33B75" transform="translate(53,39)"/>
<path d="M0,0 L1,0 L1,1 L0,1 Z " fill="#C34173" transform="translate(51,39)"/>
<path d="M0,0 L1,0 L1,1 L0,1 Z " fill="#666163" transform="translate(45,39)"/>
<path d="M0,0 L1,0 L1,1 L0,1 Z " fill="#D93876" transform="translate(44,39)"/>
<path d="M0,0 L1,0 L1,1 L0,1 Z " fill="#BB4371" transform="translate(42,39)"/>
<path d="M0,0 L1,0 L1,1 L0,1 Z " fill="#FF2C7C" transform="translate(24,39)"/>
<path d="M0,0 L1,0 L1,1 L0,1 Z " fill="#6B5F64" transform="translate(53,38)"/>
<path d="M0,0 L1,0 L1,1 L0,1 Z " fill="#E53478" transform="translate(52,38)"/>
<path d="M0,0 L1,0 L1,1 L0,1 Z " fill="#AA496E" transform="translate(50,38)"/>
<path d="M0,0 L1,0 L1,1 L0,1 Z " fill="#C44073" transform="translate(45,38)"/>
<path d="M0,0 L1,0 L1,1 L0,1 Z " fill="#D23C75" transform="translate(43,38)"/>
<path d="M0,0 L1,0 L1,1 L0,1 Z " fill="#646162" transform="translate(42,38)"/>
<path d="M0,0 L1,0 L1,1 L0,1 Z " fill="#FF2B7D" transform="translate(24,38)"/>
<path d="M0,0 L1,0 L1,1 L0,1 Z " fill="#775B66" transform="translate(52,37)"/>
<path d="M0,0 L1,0 L1,1 L0,1 Z " fill="#F3307B" transform="translate(51,37)"/>
<path d="M0,0 L1,0 L1,1 L0,1 Z " fill="#FE2C7D" transform="translate(50,37)"/>
<path d="M0,0 L1,0 L1,1 L0,1 Z " fill="#92516A" transform="translate(49,37)"/>
<path d="M0,0 L1,0 L1,1 L0,1 Z " fill="#AB486E" transform="translate(46,37)"/>
<path d="M0,0 L1,0 L1,1 L0,1 Z " fill="#E43578" transform="translate(44,37)"/>
<path d="M0,0 L1,0 L1,1 L0,1 Z " fill="#6A5F63" transform="translate(43,37)"/>
<path d="M0,0 L1,0 L1,1 L0,1 Z " fill="#994F6B" transform="translate(37,37)"/>
<path d="M0,0 L1,0 L1,1 L0,1 Z " fill="#875568" transform="translate(51,36)"/>
<path d="M0,0 L1,0 L1,1 L0,1 Z " fill="#F82E7C" transform="translate(49,36)"/>
<path d="M0,0 L1,0 L1,1 L0,1 Z " fill="#94516B" transform="translate(47,36)"/>
<path d="M0,0 L1,0 L1,1 L0,1 Z " fill="#F2307A" transform="translate(45,36)"/>
<path d="M0,0 L1,0 L1,1 L0,1 Z " fill="#765B66" transform="translate(44,36)"/>
<path d="M0,0 L1,0 L1,1 L0,1 Z " fill="#9D4E6C" transform="translate(50,35)"/>
<path d="M0,0 L1,0 L1,1 L0,1 Z " fill="#F1317A" transform="translate(48,35)"/>
<path d="M0,0 L1,0 L1,1 L0,1 Z " fill="#FB2D7C" transform="translate(46,35)"/>
<path d="M0,0 L1,0 L1,1 L0,1 Z " fill="#865668" transform="translate(45,35)"/>
<path d="M0,0 L1,0 L1,1 L0,1 Z " fill="#9A4E6B" transform="translate(37,35)"/>
<path d="M0,0 L1,0 L1,1 L0,1 Z " fill="#BC4371" transform="translate(49,34)"/>
<path d="M0,0 L1,0 L1,1 L0,1 Z " fill="#FF2B7D" transform="translate(47,34)"/>
<path d="M0,0 L1,0 L1,1 L0,1 Z " fill="#9E4C6C" transform="translate(46,34)"/>
<path d="M0,0 L1,0 L1,1 L0,1 Z " fill="#9B4E6C" transform="translate(37,34)"/>
<path d="M0,0 L1,0 L1,1 L0,1 Z " fill="#686063" transform="translate(50,33)"/>
<path d="M0,0 L1,0 L1,1 L0,1 Z " fill="#DE3576" transform="translate(49,33)"/>
<path d="M0,0 L1,0 L1,1 L0,1 Z " fill="#CA3F74" transform="translate(46,33)"/>
<path d="M0,0 L1,0 L1,1 L0,1 Z " fill="#9C4F6C" transform="translate(37,33)"/>
<path d="M0,0 L1,0 L1,1 L0,1 Z " fill="#FF2B7C" transform="translate(24,33)"/>
<path d="M0,0 L1,0 L1,1 L0,1 Z " fill="#636262" transform="translate(51,32)"/>
<path d="M0,0 L1,0 L1,1 L0,1 Z " fill="#CB3E74" transform="translate(50,32)"/>
<path d="M0,0 L1,0 L1,1 L0,1 Z " fill="#CE3B74" transform="translate(48,32)"/>
<path d="M0,0 L1,0 L1,1 L0,1 Z " fill="#E13678" transform="translate(47,32)"/>
<path d="M0,0 L1,0 L1,1 L0,1 Z " fill="#B1476F" transform="translate(45,32)"/>
<path d="M0,0 L1,0 L1,1 L0,1 Z " fill="#9C4E6C" transform="translate(37,32)"/>
<path d="M0,0 L1,0 L1,1 L0,1 Z " fill="#B2466F" transform="translate(51,31)"/>
<path d="M0,0 L1,0 L1,1 L0,1 Z " fill="#E03778" transform="translate(49,31)"/>
<path d="M0,0 L1,0 L1,1 L0,1 Z " fill="#735C65" transform="translate(47,31)"/>
<path d="M0,0 L1,0 L1,1 L0,1 Z " fill="#EF317A" transform="translate(46,31)"/>
<path d="M0,0 L1,0 L1,1 L0,1 Z " fill="#98506B" transform="translate(44,31)"/>
<path d="M0,0 L1,0 L1,1 L0,1 Z " fill="#9A4F6C" transform="translate(52,30)"/>
<path d="M0,0 L1,0 L1,1 L0,1 Z " fill="#EE3179" transform="translate(50,30)"/>
<path d="M0,0 L1,0 L1,1 L0,1 Z " fill="#725C65" transform="translate(49,30)"/>
<path d="M0,0 L1,0 L1,1 L0,1 Z " fill="#825767" transform="translate(46,30)"/>
<path d="M0,0 L1,0 L1,1 L0,1 Z " fill="#FA2D7C" transform="translate(44,30)"/>
<path d="M0,0 L1,0 L1,1 L0,1 Z " fill="#845668" transform="translate(43,30)"/>
<path d="M0,0 L1,0 L1,1 L0,1 Z " fill="#855568" transform="translate(53,29)"/>
<path d="M0,0 L1,0 L1,1 L0,1 Z " fill="#F92E7C" transform="translate(51,29)"/>
<path d="M0,0 L1,0 L1,1 L0,1 Z " fill="#815767" transform="translate(50,29)"/>
<path d="M0,0 L1,0 L1,1 L0,1 Z " fill="#96506B" transform="translate(45,29)"/>
<path d="M0,0 L1,0 L1,1 L0,1 Z " fill="#F0307A" transform="translate(43,29)"/>
<path d="M0,0 L1,0 L1,1 L0,1 Z " fill="#745C65" transform="translate(42,29)"/>
<path d="M0,0 L1,0 L1,1 L0,1 Z " fill="#765C66" transform="translate(54,28)"/>
<path d="M0,0 L1,0 L1,1 L0,1 Z " fill="#F1307A" transform="translate(53,28)"/>
<path d="M0,0 L1,0 L1,1 L0,1 Z " fill="#FE2B7C" transform="translate(52,28)"/>
<path d="M0,0 L1,0 L1,1 L0,1 Z " fill="#95516B" transform="translate(51,28)"/>
<path d="M0,0 L1,0 L1,1 L0,1 Z " fill="#AE486F" transform="translate(44,28)"/>
<path d="M0,0 L1,0 L1,1 L0,1 Z " fill="#E23578" transform="translate(42,28)"/>
<path d="M0,0 L1,0 L1,1 L0,1 Z " fill="#6A6064" transform="translate(41,28)"/>
<path d="M0,0 L1,0 L1,1 L0,1 Z " fill="#9E4D6C" transform="translate(37,28)"/>
<path d="M0,0 L1,0 L1,1 L0,1 Z " fill="#FF2B7C" transform="translate(24,28)"/>
<path d="M0,0 L1,0 L1,1 L0,1 Z " fill="#E33578" transform="translate(54,27)"/>
<path d="M0,0 L1,0 L1,1 L0,1 Z " fill="#AD486F" transform="translate(52,27)"/>
<path d="M0,0 L1,0 L1,1 L0,1 Z " fill="#C73F73" transform="translate(43,27)"/>
<path d="M0,0 L1,0 L1,1 L0,1 Z " fill="#CF3C74" transform="translate(41,27)"/>
<path d="M0,0 L1,0 L1,1 L0,1 Z " fill="#9F4E6D" transform="translate(37,27)"/>
<path d="M0,0 L1,0 L1,1 L0,1 Z " fill="#FF2C7D" transform="translate(14,27)"/>
<path d="M0,0 L1,0 L1,1 L0,1 Z " fill="#A8496E" transform="translate(55,26)"/>
<path d="M0,0 L1,0 L1,1 L0,1 Z " fill="#C53F73" transform="translate(53,26)"/>
<path d="M0,0 L1,0 L1,1 L0,1 Z " fill="#676163" transform="translate(43,26)"/>
<path d="M0,0 L1,0 L1,1 L0,1 Z " fill="#DB3876" transform="translate(42,26)"/>
<path d="M0,0 L1,0 L1,1 L0,1 Z " fill="#8E536A" transform="translate(40,26)"/>
<path d="M0,0 L1,0 L1,1 L0,1 Z " fill="#9F4D6C" transform="translate(37,26)"/>
<path d="M0,0 L1,0 L1,1 L0,1 Z " fill="#AD486F" transform="translate(25,26)"/>
<path d="M0,0 L1,0 L1,1 L0,1 Z " fill="#636262" transform="translate(24,26)"/>
<path d="M0,0 L1,0 L1,1 L0,1 Z " fill="#9F4D6C" transform="translate(54,25)"/>
<path d="M0,0 L1,0 L1,1 L0,1 Z " fill="#666163" transform="translate(53,25)"/>
<path d="M0,0 L1,0 L1,1 L0,1 Z " fill="#96506B" transform="translate(41,25)"/>
<path d="M0,0 L1,0 L1,1 L0,1 Z " fill="#A04D6D" transform="translate(37,25)"/>
<path d="M0,0 L1,0 L1,1 L0,1 Z " fill="#FC2C7C" transform="translate(27,25)"/>
<path d="M0,0 L1,0 L1,1 L0,1 Z " fill="#9C4F6C" transform="translate(26,25)"/>
<path d="M0,0 L1,0 L1,1 L0,1 Z " fill="#F72E7B" transform="translate(28,24)"/>
<path d="M0,0 L1,0 L1,1 L0,1 Z " fill="#8C546A" transform="translate(27,24)"/>
<path d="M0,0 L1,0 L1,1 L0,1 Z " fill="#EF317A" transform="translate(29,23)"/>
<path d="M0,0 L1,0 L1,1 L0,1 Z " fill="#7F5967" transform="translate(28,23)"/>
<path d="M0,0 L1,0 L1,1 L0,1 Z " fill="#A14C6D" transform="translate(37,22)"/>
<path d="M0,0 L1,0 L1,1 L0,1 Z " fill="#E53579" transform="translate(30,22)"/>
<path d="M0,0 L1,0 L1,1 L0,1 Z " fill="#745C65" transform="translate(29,22)"/>
<path d="M0,0 L1,0 L1,1 L0,1 Z " fill="#D83A76" transform="translate(31,21)"/>
<path d="M0,0 L1,0 L1,1 L0,1 Z " fill="#6C5E64" transform="translate(30,21)"/>
<path d="M0,0 L1,0 L1,1 L0,1 Z " fill="#C93E74" transform="translate(32,20)"/>
<path d="M0,0 L1,0 L1,1 L0,1 Z " fill="#676163" transform="translate(31,20)"/>
<path d="M0,0 L1,0 L1,1 L0,1 Z " fill="#A34C6D" transform="translate(37,19)"/>
<path d="M0,0 L1,0 L1,1 L0,1 Z " fill="#B74470" transform="translate(33,19)"/>
<path d="M0,0 L1,0 L1,1 L0,1 Z " fill="#646263" transform="translate(32,19)"/>
<path d="M0,0 L1,0 L1,1 L0,1 Z " fill="#FE2B7C" transform="translate(35,18)"/>
<path d="M0,0 L1,0 L1,1 L0,1 Z " fill="#A54B6E" transform="translate(34,18)"/>
<path d="M0,0 L1,0 L1,1 L0,1 Z " fill="#A44B6D" transform="translate(37,17)"/>
<path d="M0,0 L1,0 L1,1 L0,1 Z " fill="#FA2D7C" transform="translate(36,17)"/>
<path d="M0,0 L1,0 L1,1 L0,1 Z " fill="#94516B" transform="translate(35,17)"/>
<path d="M0,0 L1,0 L1,1 L0,1 Z " fill="#865668" transform="translate(36,16)"/>
</svg>
